<svg xmlns="http://www.w3.org/2000/svg" xmlns:xlink="http://www.w3.org/1999/xlink" width="393" height="408" viewBox="0 0 393 408">
    <defs>
        <path id="zesqn0876a" d="M.855 3.998C.47 3.393.195 2.624.15 1.91L.075.673C.055.396.16.226.32.226c.04 0 .08.008.12.027l.415 3.745z"/>
    </defs>
    <g fill="none" fill-rule="evenodd">
        <path fill="#F8FAFB" d="M168.66 406c-4.342 0-7.848-2.022-7.837-4.523.006-1.496-2.105-2.483-4.325-2.483-1.061 0-2.151.229-3.04.738-1.551.893-3.582 1.34-5.608 1.34-2.01 0-4.016-.44-5.545-1.32l-1.58-.909c-2.946-1.694-3.043-4.404-.32-6.192-1.886-1.224-2.415-2.896-1.588-4.38-.34-.049-.696-.082-1.077-.082H137.704c-4.344 0-7.851-2.022-7.838-4.523l.007-1.29c.005-.855.428-1.652 1.145-2.336-.73-.688-1.157-1.495-1.152-2.362l.007-1.29c.003-.494.147-.968.402-1.413-2.133 1.056-4.899 1.7-7.925 1.706-.628.001-1.22.05-1.777.137 1.24 2.27.41 4.833-2.476 6.727 4.22 2.74 4.042 6.942-.546 9.581l-2.453 1.411c-2.391 1.376-5.523 2.065-8.648 2.065-3.1 0-6.193-.678-8.55-2.034-1.347-.775-3.005-1.121-4.634-1.121-3.432 0-6.738 1.537-6.75 3.851-.021 3.864-5.483 7.007-12.2 7.019l-3.457.006h-.039c-6.698 0-12.106-3.118-12.085-6.975.013-2.306-3.25-3.828-6.667-3.828-1.642 0-3.321.353-4.688 1.139-2.392 1.376-5.524 2.065-8.65 2.065-3.1 0-6.192-.678-8.55-2.034l-2.437-1.402c-4.541-2.613-4.692-6.792-.492-9.548-2.912-1.89-3.727-4.473-2.443-6.764-.523-.074-1.077-.116-1.662-.116h-.061c-6.699 0-12.106-3.119-12.085-6.975l.01-1.99c.008-1.318.66-2.547 1.766-3.602-1.126-1.06-1.783-2.305-1.776-3.643l.01-1.989c.022-3.864 5.484-7.006 12.2-7.018.628-.002 1.22-.052 1.777-.138-1.24-2.27-.41-4.832 2.476-6.726-4.22-2.74-4.042-6.942.546-9.582l2.452-1.41c2.392-1.377 5.524-2.065 8.65-2.065 3.099 0 6.192.677 8.55 2.034 1.347.775 3.005 1.121 4.634 1.121 3.432 0 6.738-1.537 6.75-3.851.022-3.865 5.484-7.008 12.2-7.02l3.457-.006h.04c6.698 0 12.105 3.118 12.084 6.975-.012 2.306 3.25 3.828 6.667 3.828 1.642 0 3.321-.353 4.688-1.139 2.392-1.376 5.524-2.065 8.65-2.065 3.098 0 6.191.678 8.549 2.034l2.437 1.402c4.542 2.614 4.692 6.792.493 9.548 2.912 1.891 3.726 4.474 2.443 6.764.523.075 1.077.117 1.662.117h.061c6.698 0 12.106 3.118 12.085 6.975l-.01 1.988c-.008 1.319-.66 2.548-1.767 3.603 1.126 1.06 1.785 2.305 1.777 3.643l-.01 1.989c-.007 1.054-.43 2.052-1.16 2.95 1.257-.487 2.769-.773 4.394-.776.408 0 .788-.037 1.15-.094-.801-1.47-.262-3.13 1.608-4.357-2.737-1.777-2.621-4.502.354-6.214l1.59-.915c1.551-.892 3.582-1.339 5.61-1.339 2.01 0 4.018.44 5.546 1.319.87.503 1.95.728 3.005.728 2.226 0 4.365-.998 4.377-2.499.011-2.505 3.553-4.544 7.913-4.551l2.237-.004h.03c4.342 0 7.848 2.022 7.837 4.523-.012 1.495 2.105 2.482 4.32 2.482 1.066 0 2.156-.228 3.044-.738 1.552-.893 3.582-1.34 5.606-1.34 2.013 0 4.02.44 5.548 1.32l1.58.909c2.942 1.695 3.04 4.404.318 6.192 1.885 1.224 2.416 2.897 1.586 4.38.34.049.697.082 1.078.082h.04c4.343 0 7.85 2.022 7.838 4.523l-.012 1.29c-.005.855-.426 1.652-1.141 2.336.726.688 1.153 1.495 1.153 2.363l-.012 1.29c-.011 2.505-3.552 4.544-7.912 4.552-.404 0-.784.037-1.148.093.802 1.47.26 3.13-1.609 4.357 2.74 1.778 2.624 4.503-.352 6.215l-1.591.915c-1.552.892-3.582 1.339-5.612 1.339-2.007 0-4.014-.44-5.542-1.32-.871-.502-1.95-.727-3.005-.727-2.226 0-4.371.997-4.377 2.498-.012 2.506-3.559 4.544-7.913 4.551l-2.243.005h-.023m1.395-34.312c-5.029 0-10.075 1.108-13.922 3.323-2.508 1.443-4.198 3.179-5.07 5.013.866 1.805 2.521 3.508 4.984 4.924 3.795 2.183 8.772 3.274 13.76 3.274 5.03 0 10.07-1.109 13.922-3.323 2.51-1.444 4.193-3.179 5.07-5.013-.865-1.805-2.52-3.509-4.983-4.925-3.795-2.183-8.772-3.273-13.76-3.273M72.97 351.414c-7.755 0-15.53 1.71-21.465 5.124-3.87 2.226-6.47 4.901-7.818 7.73 1.333 2.783 3.888 5.41 7.684 7.594 5.851 3.366 13.526 5.048 21.22 5.048 7.755 0 15.53-1.71 21.465-5.125 3.868-2.226 6.469-4.901 7.817-7.729-1.332-2.784-3.888-5.41-7.683-7.595-5.852-3.366-13.527-5.047-21.22-5.047"/>
        <path fill="#DAE6EE" d="M97.984 300c-1.392 0-2.773-.368-3.984-1.073l3.395-15.837L190.316 222l1.37 2.609c.19.763.554 1.466 1.045 2.063-1.265 5.319-2.525 10.626-3.767 15.854l-86.633 56.155c-1.334.893-2.847 1.319-4.347 1.319m99.317-62.88c.092-.414.19-.824.283-1.239l.416.788-.7.452M175.467 345c-1.196 0-2.386-.275-3.467-.806.989-4.302 2.294-9.992 3.852-16.77L262.662 270l1.914 9.868c.287 1.503 1.213 2.806 2.53 3.572.856.499 1.753.724 2.627.724.633 0 1.248-.119 1.829-.339L179.79 343.68c-1.323.893-2.829 1.32-4.324 1.32m98.015-62.426c.483-.49.874-1.074 1.139-1.728l.379.735-1.518.993"/>
        <path fill="#6F389F" d="M316.14 223.965c-15.754 4.489-27.288 3.78-34.897-.688-3.354-2.618.728-8.073 4.567-8.136 8.543 4.045 18.56 2.545 29.153-1.14 2.453-.029 4.606 1.9 4.982 4.46.386 2.668-1.293 5.095-3.805 5.504"/>
        <path fill="#BAC3C1" d="M267.038 284.28c-1.328-.763-2.262-2.06-2.552-3.558l-38.36-195.114c-1.055-5.364 4.727-9.471 9.489-6.738l39.281 199.827c.87 4.444-3.914 7.846-7.858 5.582"/>
        <path fill="#808D8D" d="M194.036 228.28c-1.328-.763-2.256-2.06-2.552-3.558L153.126 29.61c-1.055-5.365 4.722-9.472 9.484-6.74l39.285 199.828c.876 4.444-3.915 7.846-7.86 5.582"/>
        <path fill="#808D8D" d="M103.258 296.882L90 303l58.493-259L160 50.625l-54.315 241.77c-.507 2.258-.414 3.336-2.427 4.487"/>
        <path fill="#BAC3C1" d="M212.989 154L136 109.175 147.751 102 218 142.689 212.989 154"/>
        <path fill="#808D8D" d="M148 43.768s12.832-53.105 59.464-26.122C254.096 44.628 239.998 97 239.998 97l-11.5-6.654s13.14-39.335-21.357-64.437C172.644.807 159.499 50.423 159.499 50.423L148 43.768"/>
        <path fill="#EEEEEA" d="M221.688 165L135 115.251 136.312 109 223 158.749 221.688 165"/>
        <path fill="#BAC3C1" d="M202.989 200L126 155.175 137.751 148 208 188.689 202.989 200"/>
        <path fill="#EEEEEA" d="M210.688 212L124 162.251 125.312 156 212 205.749 210.688 212"/>
        <path fill="#BAC3C1" d="M192.994 247L116 202.175 127.751 195 198 235.688 192.994 247"/>
        <path fill="#EEEEEA" d="M200.688 258L114 208.251 115.312 202 202 251.749 200.688 258"/>
        <path fill="#BAC3C1" d="M182.989 294L106 249.175 117.751 242 188 282.688 182.989 294"/>
        <path fill="#EEEEEA" d="M190.688 305L104 255.251 105.312 249 192 298.749 190.688 305"/>
        <path fill="#808D8D" d="M181.277 343.18L170 350l58.533-260L240 96.627l-54.96 241.899c-.495 2.182-1.852 3.495-3.763 4.654"/>
        <path fill="#EEEEEA" d="M165.696 350.305c-1.302-.908-1.919-2.519-1.55-4.063 6.173-25.75 56.772-236.372 62.721-265.657 2.484-12.24.34-25.34-6.364-38.933-.536-1.079-1.072-2.117-1.614-3.11-4.519-8.305-11.01-15.082-17.725-18.691-17.316-9.31-31.19-8.388-41.347 2.78-9.012 9.907-11.561 24.453-11.586 24.599l-.024.125-54.305 252.74c-.574 2.673-3.671 3.918-5.938 2.387l-.265-.178c-1.316-.888-1.952-2.491-1.605-4.04l57.122-255.022c.225-1.278 2.985-16.009 12.387-26.345 5.707-6.275 12.676-9.598 20.723-9.878 10.058-.349 21.218 4.022 34.251 13.104l1.435 1.24c.277.312 9.287 8.313 14.002 21.105 4.03 10.934 9.344 24.965 5.85 42.193-5.77 28.42-51.86 227.388-60.201 263.352-.617 2.659-3.724 3.85-5.967 2.292"/>
        <path fill="#F9CE3C" d="M268.921 264L218 234.764 262.76 211 312 239.269 268.921 264"/>
        <path fill="#EC9F41" d="M218.173 235L218 243.474 269 273 269 264.424 218.173 235"/>
        <path fill="#E79D3A" d="M269 273L312 248.456 312 240 269 264.544 269 273"/>
        <path fill="#EC9F41" d="M285.719 248.204c-11.097 6.423-29.144 6.39-40.31-.073-11.165-6.464-11.217-16.911-.125-23.335 11.096-6.423 29.143-6.39 40.309.073 11.16 6.464 11.217 16.91.126 23.335"/>
        <path fill="#EC9F41" d="M237 234L258.144 176 270.2 176 293 232.079 237 234"/>
        <path fill="#FFFFFE" d="M251.552 194.944L247 206.787c11.578 5.94 26.815 5.766 36-1.589L278.203 194c-8.742 6.094-18.435 4.736-26.651.944M245.762 232.115c11.27 6.485 29.478 6.517 40.678.073 2.35-1.352 4.198-2.883 5.56-4.517l-4.214-10.215c-.433.283-.878.563-1.346.833-11.2 6.444-29.409 6.412-40.678-.073-.682-.39-1.317-.798-1.917-1.216L240 227.398c1.391 1.706 3.308 3.306 5.762 4.717"/>
        <path fill="#F9CE3C" d="M269.253 178.983c-2.332 1.362-6.13 1.355-8.48-.016-2.35-1.37-2.368-3.587-.03-4.95 2.34-1.362 6.138-1.355 8.487.016 2.35 1.37 2.362 3.587.023 4.95"/>
        <path fill="#F8DFB9" d="M247.041 240c-.422 0-.856-.08-1.272-.253-1.361-.563-2.063-1.931-1.652-3.224l.754-2.403 3.942-.12c.713.28 1.438.54 2.187.782l-1.022 3.23c-.387 1.22-1.623 1.988-2.937 1.988M245 234l.526-1.83c.105.062.21.124.322.186.959.55 1.976 1.056 3.029 1.514L245 234m9.706-12.148c-1.982-.503-3.894-1.14-5.683-1.907l3.04-10.624c1.883.677 3.818 1.205 5.777 1.58l-3.134 10.95m6.818-23.813c-1.977-.295-3.918-.802-5.812-1.469l2.403-8.41c.38-1.324 1.596-2.159 2.888-2.159.421 0 .842.087 1.252.274 1.339.613 2.034 2.099 1.631 3.504l-2.362 8.26"/>
        <path fill="#FFFFFE" d="M257.496 211c-1.864-.367-3.705-.882-5.496-1.544L255.471 197c1.802.651 3.649 1.147 5.529 1.435L257.496 211M250.394 235c-.722-.267-1.421-.554-2.11-.862-1.031-.466-2.029-.978-2.969-1.537-.109-.063-.212-.126-.315-.189L248.428 220c1.754.78 3.629 1.425 5.572 1.936L250.394 235"/>
        <path fill="#DAE6EE" d="M44.327 296c-7.008 0-14.003-1.55-19.333-4.65-10.706-6.23-10.651-16.36.121-22.628 5.41-3.147 12.49-4.722 19.557-4.722 7.009 0 14.003 1.55 19.334 4.65 10.706 6.23 10.652 16.36-.122 22.628-5.409 3.147-12.49 4.722-19.557 4.722"/>
        <path fill="#6F389F" d="M31.878 149.67c3.16-3.22 8.77-4.464 13.062-4.41 1.413.017 1.414-2.24 0-2.258-4.877-.061-11.042 1.432-14.615 5.072-1.005 1.024.548 2.62 1.553 1.596"/>
        <path fill="#EFA37E" d="M66.468 160.356c-.617 4.304-1.832 8.519-4.18 12.257-1.235 1.967-3.318 4.962-6.038 4.878-4.336-.134-4.331 6.37 0 6.504 10.536.326 15.58-14.001 16.713-21.91.586-4.093-5.903-5.863-6.495-1.729"/>
        <path fill="#8EB0CC" d="M48.016 147.2c.896 11.403 2.6 22.537 5.254 33.671 1.306 5.48 9.903 3.16 8.595-2.325-2.476-10.387-4.1-20.708-4.936-31.346-.438-5.577-9.355-5.624-8.913 0"/>
        <path fill="#4A4166" d="M43.025 276.907l.6-.365c.34-.208.474-.705.295-1.104-.178-.399-.604-.554-.945-.345l-.6.365c-.34.208-.474.705-.295 1.104.178.399.603.554.945.345"/>
        <path fill="#3A3454" d="M44 275.388v-2.776c0-.337-.225-.612-.5-.612s-.5.275-.5.612v2.776c0 .336.225.611.5.612.275 0 .5-.276.5-.612"/>
        <path fill="#3C3C57" d="M41.108 267.877c.668 3.367 1.404 8.37 1.404 8.37l1.23.233-.194-3.5c.148-.521 1.05.046 1.431.598 2.262 3.27.816 5.322 3.032 6.826 0 0 5.153 2.32 10.337 1.366 0 0 2.44-.9 1.389-2.375-2.069-2.905-9.702-10.984-11.193-12.884l-.406-.127-2.732-4.347c-1.032-.295-2.956 1.227-3.688 2.627-.61.652-.887 1.817-.61 3.213"/>
        <path fill="#E59472" d="M45.634 262.005l2.316 1.916s5.81 9.09 6.909 10.906c1.275 2.109-6.362 5.742-11.614-6.667-3.827-6.552 2.39-6.155 2.39-6.155"/>
        <path fill="#E59472" d="M48.043 193.253c.22 15.068.073 30.176-1.3 45.193-.813 8.89-2.148 17.114-3.67 26.027-.947 5.545 7.603 7.927 8.557 2.341 1.573-9.214 3.054-18.43 3.928-27.741 1.428-15.223 1.582-30.543 1.359-45.82-.083-5.663-8.957-5.679-8.874 0"/>
        <path fill="#EFA37E" d="M36.441 200.218c-1.33 23.825-3.414 47.67-3.441 71.55-.006 5.638 8.544 5.647 8.55 0 .028-23.88 2.11-47.725 3.442-71.55.314-5.633-8.237-5.615-8.55 0"/>
        <path fill="#6F389F" d="M28.075 202.468c.883 12.435 8.716 13.69 16.622 9.055C52.603 206.887 57 196.34 57 187.069c0 0-4.397-13.75-12.303-9.114-7.906 4.635-17.648 10.073-16.622 24.513"/>
        <path fill="#CEE5ED" d="M54.309 151s5.242 8.313 4.643 13.327c-.38 3.191-2.662 6.779-2.995 7.8-2.727 8.361-1.221 10.893-1.515 13.206 0 0-1.818 7.952-21.272.436L25 161.549 54.309 151"/>
        <path fill="#CEE5ED" d="M26.922 167.371c-.714-.444-.891-1.629-.891-1.629-.494-4.324-2.843-6.29 1.805-13.692.747-1.19 10.915-6.525 18.556-7.923 3.705-.678 7.367 1.41 8.861 4.907.874 2.045 1.721 6.089 1.72 6.091.364 7.941-3.111-2.486-3.663 1.899.019-.106.046-.214.061-.319 0 0-.947 7.408-1.665 13.143-.444 3.578-.76 6.167-.79 6.53l-.002.045L37.661 187l-10.74-19.629"/>
        <path fill="#EFA37E" d="M45.754 144s6.672 6.873.886 11.746c-5.786 4.871-15.64-6.018-15.64-6.018 5.173-3.23 10.146-5.424 14.754-5.728"/>
        <path fill="#6F389F" d="M57.292 187L60 229.87c-.002.584-.168 1.15-.486 1.66-1.992 3.183-5.665 13.993-25.74 9.312-2.313-.54-3.19-.773-3.085-2.778L28 201.544l11.96-.156L57.291 187"/>
        <path fill="#EFA37E" d="M44.464 145.753L47 134l-7.825 2.23-2.098 9.155c-.837 2.735 5.389 6.36 7.387.368"/>
        <path fill="#4A4166" d="M34.025 281.908l.6-.367c.341-.208.474-.704.296-1.103-.179-.398-.604-.554-.946-.346l-.6.367c-.34.208-.474.704-.296 1.103.18.398.604.554.946.346"/>
        <path fill="#3A3454" d="M35 281.388v-2.776c0-.337-.225-.612-.5-.612s-.5.275-.5.612v2.776c0 .337.225.612.5.612s.5-.275.5-.612"/>
        <path fill="#3C3C57" d="M31.108 272.878c.668 3.366 1.404 8.368 1.404 8.368l1.23.234-.194-3.5c.148-.52 1.05.046 1.431.598 2.262 3.27.816 5.322 3.032 6.826 0 0 5.153 2.32 10.337 1.366 0 0 2.44-.9 1.39-2.376-2.07-2.904-9.702-10.982-11.194-12.883l-.406-.128-2.732-4.346c-1.032-.294-2.956 1.227-3.688 2.627-.61.653-.887 1.816-.61 3.214"/>
        <path fill="#EFA37E" d="M36.635 267.005l2.316 1.916s5.81 9.09 6.908 10.906c1.275 2.109-6.362 5.742-11.613-6.667-3.829-6.552 2.389-6.155 2.389-6.155"/>
        <path fill="#A4BDD7" d="M29.035 165c.645 1.486 1.566 3.013 2.672 4.541 2.844 3.932 7.75 5.7 12.436 4.566C51.024 172.44 58 168.913 58 168.913s-2.98 9.67-1.94 15.304c.482 2.614.135 2.13.135 2.13-.146 2.498-4.22 1.812-4.22 1.812-8.71 2.736-18.33-2.08-18.33-2.08L28 169.385 29.035 165"/>
        <path fill="#40405B" d="M57.974 185.326c.107.544-.116 1.094-.582 1.433-1.677 1.225-6.165 3.835-13.219 3.119-6.037-.613-9.572-1.856-11.274-2.627-.733-.332-1.083-1.125-.802-1.842l.17-.439c.31-.79 1.257-1.18 2.084-.855 3.192 1.26 10.792 3.846 16.128 2.347 2.46-.692 4.042-1.426 5.059-2.085.939-.61 2.23-.103 2.436.95"/>
        <path fill="#FFFFFE" d="M47.915 190.96l3.17-.691c1.053-.23 1.915-1.369 1.915-2.532 0-1.162-.862-1.926-1.915-1.696l-3.17.69c-1.053.23-1.915 1.369-1.915 2.531 0 1.163.862 1.927 1.915 1.697"/>
        <path fill="#6F389F" d="M46.536 144.087c.094 1.465.529 2.928.818 4.36.515 2.554 1.367 4.408-1.415 5.712-4.782 2.243-9.877-2.778-13.078-5.945-1.01-.999-2.542.596-1.528 1.599 3.94 3.895 9.613 9.132 15.456 6.454 5.625-2.577 2.214-7.436 1.908-12.18-.092-1.444-2.255-1.455-2.161 0"/>
        <path fill="#834C4B" d="M51.022 122.36c.613 3.12 2.997 5.723 3.5 8.827.307 1.89-.689 2.59-1.54 4.148-.633 1.16-.823 2.334-.812 3.617.012 1.395 2.405 1.399 2.393 0-.027-3.202 2.952-4.696 2.359-8.06-.569-3.227-2.959-5.886-3.592-9.108-.27-1.373-2.577-.791-2.308.576M25.2 121.79c-.945 4.032 1.557 8.066 5.59 9.01 4.031.945 8.066-1.557 9.01-5.59.945-4.031-1.557-8.066-5.59-9.01-4.032-.945-8.066 1.557-9.01 5.59"/>
        <path fill="#EFA37E" d="M44.197 144.909l2.657.087c4.093.134 7.554-3.046 7.69-7.069l.452-13.28c.136-4.02-3.1-7.422-7.193-7.556l-2.657-.087c-4.093-.134-7.554 3.046-7.69 7.068l-.452 13.28c-.136 4.022 3.1 7.423 7.193 7.557"/>
        <path fill="#834C4B" d="M42.403 127.684c3.003-3.708 8.558.711 11.556-.445 3.253-1.254 2.148-4.597-.059-7.296-1.185-1.449-2.69-2.67-5.696-3.807-8.419-3.181-16.865.38-17.182 9.9 0 0-.768 13.04 6.83 14.964l.491-1.907s-2.737-3.89 1.918-6.702c1.086-.656.203-1.106.103-2.688-.1-1.601 1.028-.772 2.039-2.02"/>
        <path fill="#EFA37E" d="M35.55 137.456c1.276.951 2.736.623 3.261-.734.526-1.356-.083-3.227-1.36-4.178-1.277-.951-2.737-.623-3.262.733-.525 1.357.083 3.228 1.36 4.179"/>
        <path fill="#FFFFFE" d="M51.413 137.037l-4.157 1.902c-.171.078-.279.269-.252.466.096.706.564 2.198 2.833 1.333 1.59-.607 2.036-2.257 2.16-3.234.042-.344-.285-.604-.584-.467"/>
        <path fill="#3A271D" d="M46 134c0 .552.224 1 .5 1s.5-.448.5-1c0-.553-.224-1-.5-1s-.5.447-.5 1M52 132c0 .552.224 1 .5 1s.5-.448.5-1-.224-1-.5-1-.5.448-.5 1"/>
        <path fill="#834C4B" d="M46.52 131.269c-.897.023-2.059.71-2.678 1.537-.442.592-1.143-.306-.702-.897.8-1.068 2.225-1.88 3.38-1.909.64-.016.64 1.252 0 1.269M53.419 128.951c-1.086-.048-2.56.352-3.372.923-.577.405-1.434-.261-.854-.669 1.045-.735 2.817-1.262 4.226-1.2.772.034.777.98 0 .946M39.756 126.065c-.063 3.593-.287 8.24-2.401 11.296-.945 1.365-2.36 2.426-3.017 3.983-.853 2.018.15 3.561.386 5.604.161 1.395 2.407 1.41 2.245 0-.118-1.023-.643-2.074-.71-3.06-.128-1.907.784-2.653 1.82-3.899.994-1.195 1.779-2.258 2.318-3.722 1.178-3.192 1.544-6.825 1.603-10.202.025-1.42-2.22-1.42-2.244 0"/>
        <path fill="#EFA37E" d="M23.151 155.577c-3.012 5.088-6.837 10.205-8.946 15.762-2.133 5.618-1.41 12.337 1.98 17.306 3.283 4.813 7.37 8.995 10.616 13.863 2.334 3.499 7.991.206 5.637-3.325-2.904-4.354-6.21-8.312-9.47-12.386-3.637-4.543-4.578-10.073-1.646-15.286 2.393-4.254 4.98-8.409 7.466-12.61 2.16-3.647-3.482-6.963-5.637-3.324"/>
        <path fill="#CEE5ED" d="M25.568 152.278c-4.111 5.29-9.576 10.237-12.249 16.473-2.796 6.524-.737 13.028 2.365 19.042 2.589 5.018 10.162.587 7.576-4.426-2.003-3.884-3.65-7.961-1.468-12.076 2.507-4.724 6.72-8.616 9.98-12.812 1.464-1.884 1.803-4.359 0-6.201-1.498-1.531-4.753-1.868-6.204 0"/>
        <path fill="#EFA37E" d="M28.841 208.978c2.339.24 4.448-1.486 4.688-3.835l.449-4.412c.239-2.35-1.48-4.468-3.819-4.709-2.339-.24-4.448 1.486-4.688 3.835l-.449 4.412c-.239 2.35 1.48 4.47 3.819 4.709"/>
        <path fill="#DE8266" d="M45 144.378c-.931-.013-3.138-.731-4-1.378 0 0 1.408 2.336 3.428 3l.572-1.622"/>
        <path fill="#7777AB" d="M82.812 151.526c-1.018 1.856-1.089 3.797-.156 4.335.932.538 2.513-.531 3.532-2.387 1.018-1.856 1.089-3.797.156-4.335-.932-.538-2.513.53-3.532 2.387"/>
        <path fill="#3F3E5B" d="M69.114 165.982l-.305.015c-1.667.077-3.08-1.25-3.155-2.962l-.65-14.775c-.076-1.713 1.214-3.165 2.882-3.243l.304-.014c1.668-.077 3.08 1.249 3.156 2.962l.65 14.774c.076 1.714-1.214 3.166-2.882 3.243"/>
        <path fill="#EFA37E" d="M72.032 164h-.064c-2.182 0-3.968-1.727-3.968-3.84v-5.32c0-2.112 1.786-3.84 3.968-3.84h.064c2.182 0 3.968 1.728 3.968 3.84v5.32c0 2.113-1.786 3.84-3.968 3.84M65.533 158h-1.066c-.807 0-1.467-.637-1.467-1.415v-1.17c0-.779.66-1.415 1.467-1.415h1.066c.807 0 1.467.636 1.467 1.414v1.171c0 .778-.66 1.415-1.467 1.415"/>
        <path fill="#DE4371" d="M67.906 143.412c-.135-.096-4.385-2.093-4.554-2.138-.486-.347-1.214-.379-2.06-.013-1.646.713-3.113 2.662-3.277 4.354-.103 1.063.333 1.77 1.08 1.973.134.096 4.384 2.092 4.552 2.138.487.347 1.215.379 2.06.013 1.647-.713 3.114-2.662 3.278-4.354.103-1.062-.333-1.77-1.08-1.973"/>
        <path fill="#C73D6B" d="M68.906 143.411c-.135-.095-4.385-2.091-4.554-2.137-.486-.347-1.213-.379-2.06-.013-1.646.713-3.113 2.662-3.277 4.354-.103 1.062.333 1.77 1.08 1.973.134.096 4.384 2.092 4.553 2.138.486.347 1.214.379 2.06.013 1.646-.713 3.113-2.662 3.277-4.354.103-1.063-.333-1.77-1.079-1.974"/>
        <path fill="#DE4371" d="M74.408 144.752c-.196-.15-6.377-3.254-6.623-3.326-.707-.539-1.765-.59-2.996-.02-2.395 1.11-4.53 4.141-4.767 6.773-.15 1.652.484 2.753 1.57 3.07.195.148 6.377 3.254 6.623 3.325.707.54 1.765.59 2.996.02 2.395-1.11 4.53-4.142 4.767-6.773.15-1.652-.484-2.754-1.57-3.07"/>
        <path fill="#C73D6B" d="M61.332 144c-.718 1.09-1.204 2.303-1.31 3.438-.149 1.59.481 2.65 1.56 2.953.195.143 6.34 3.13 6.584 3.2.703.518 1.755.566 2.978.018 1.726-.773 3.021-1.924 3.856-3.79L61.332 144"/>
        <path fill="#DDF0F6" d="M73.783 144.142L91 145.374 78.855 168 66 152.662c.665-4.886 3.98-9.543 7.783-8.52"/>
        <path fill="#CEE5ED" d="M87 154.93L80.165 167S66.923 152.375 67 152.018c.41-1.876 1.201-3.657 2.244-5.018L87 154.93"/>
        <path fill="#DE4371" d="M92.987 150.306c.266 5.832-3.541 13.11-8.504 16.254-4.964 3.145-9.203.967-9.47-4.866-.266-5.832 3.541-13.11 8.504-16.254 4.964-3.145 9.203-.967 9.47 4.866"/>
        <path fill="#C73D6B" d="M94.987 151.306c.266 5.832-3.541 13.11-8.505 16.254-4.963 3.145-9.203.967-9.469-4.866-.266-5.832 3.541-13.11 8.505-16.254 4.963-3.145 9.202-.967 9.469 4.866"/>
        <path fill="#FFFFFE" d="M93.988 151.78c.251 5.347-3.345 12.017-8.033 14.9-4.687 2.883-8.69.886-8.943-4.46-.251-5.347 3.345-12.018 8.033-14.9 4.687-2.883 8.69-.886 8.943 4.46"/>
        <path fill="#DDF0F6" d="M80 152.748c1.727-2.88 4.063-4.715 5.112-5.386 4.649-2.975 8.62-.914 8.869 4.601.071 1.58.009 3.357-1.396 7.037-1.98-6.216-7.411-7.374-12.585-6.252"/>
        <path fill="#CEE5ED" d="M78.005 158.056c-.11-2.32 1.513-5.22 3.728-6.478 1.063-.604 2.13-.718 2.716-.42l.045.014.104.044 2.767 1.162c.11.039.22.069.32.069h.28v.073c.585.38.98 1.181 1.03 2.266.11 2.319-1.756 5.237-3.97 6.495-1.044.593-1.747.725-2.919.446V162h.175c-.083-.562-.162-.2-.239-.241l-2.544-1.22c-.22-.06-.28-.185-.464-.309l.143-.017v-.008c-1.172-.403-1.124-1.143-1.172-2.15"/>
        <path fill="#5F5E9A" d="M83.133 149l4.594 2.338c.101.04.199.15.292.15h-.222v-.003c.584.39 1.147 1.175 1.197 2.288.11 2.377-1.396 5.278-3.432 6.56-.959.603-1.824.948-2.512.372h.014l.002.063c-.076-.032-.146-.037-.217-.079 0 0-4.68-2.434-4.849-2.562.54-2.131 1.754-5.67 5.133-9.127"/>
        <path fill="#535695" d="M78 158.372s.306-2.392 2.12-5.413c.893-1.489 1.622-2.547 3.027-3.959l.853.442s-3.78 3.746-4.875 9.558L78 158.372"/>
        <path fill="#FFFFFE" d="M72.261 145L83 145.725 79.889 148 71 146.207 72.261 145"/>
        <path fill="#E98FA9" d="M69.583 145L64 141.889 65.316 141 71 144.051 69.583 145"/>
        <path fill="#3F3E5B" d="M105.27 122.51l-36.34-20.84c-2.025-1.16-3.295-4.011-2.836-6.368l13.142-67.646c.458-2.357 2.47-3.326 4.494-2.165l36.34 20.838c2.025 1.16 3.295 4.013 2.836 6.37l-13.142 67.645c-.458 2.356-2.47 3.326-4.494 2.166"/>
        <path fill="#6F389F" d="M93.329 49.614l-7.984-4.506c-1.62-.914-2.637-3.16-2.27-5.016.367-1.856 1.977-2.62 3.597-1.706l7.984 4.506c1.62.914 2.636 3.16 2.27 5.016-.367 1.856-1.977 2.62-3.597 1.706"/>
        <path fill="#FFFFFE" d="M101.233 67.688l-11.466-6.942c-1.22-.738-1.987-2.554-1.71-4.055.276-1.5 1.49-2.118 2.71-1.379l11.467 6.942c1.22.738 1.986 2.554 1.71 4.055-.277 1.5-1.49 2.118-2.71 1.379"/>
        <path fill="#A5CBDB" d="M109.191 85.701L87.793 73.497c-1.239-.707-2.016-2.444-1.736-3.88.28-1.435 1.513-2.025 2.752-1.318l21.397 12.204c1.24.707 2.017 2.444 1.737 3.88-.28 1.435-1.513 2.025-2.752 1.318"/>
        <path fill="#FFFFFE" d="M96.233 92.688l-11.466-6.942c-1.221-.739-1.987-2.554-1.71-4.055.275-1.5 1.49-2.118 2.71-1.379l11.466 6.942c1.221.739 1.987 2.554 1.71 4.055-.275 1.5-1.49 2.118-2.71 1.379"/>
        <path fill="#6F389F" d="M84.096 97.682l-8.242-4.836c-1.281-.752-2.085-2.599-1.795-4.125.29-1.527 1.564-2.155 2.845-1.403l8.242 4.836c1.28.752 2.085 2.599 1.795 4.125-.29 1.527-1.564 2.155-2.845 1.403"/>
        <path fill="#A4A4B0" d="M163.3 194c-.74 0-1.589-.196-2.589-.655l-.318-.173c-.514-.487-.919-1.29-.659-1.894l.162-.506c-.046-.185-.04-.39.047-.621l.918-2.511c.243-.593 1.058-2.257 1.497-2.726.197-.214.503-.576.85-1l7.871 4.538c-.133.168-.22.278-.248.31-2.457 3.107-3.231 3.158-5.294 4.537-.647.433-1.37.701-2.237.701m-13.058-14.338c-.425 0-.837-.015-1.262-.03-.425-.015-.864-.03-1.344-.03-.102 0-.205 0-.311.002h-.045c-1.55 0-3.05-1.121-3.257-2.437-.08-.508.052-.98.355-1.35-.006-.13-.002-.258.022-.38.077-.392.306-.737.67-.988l.785-.539 8.811 5.08c-1.965.556-3.243.672-4.424.672m28.16-8.1l-9.375-5.375c1.44-4.889 3.023-9.728 4.566-14.595.786-2.47 1.399-4.962 2.185-7.404l4.259 21.746c-.567 1.87-1.116 3.745-1.636 5.628m-10.42-5.976l-11.899-6.824c-.537-6.911-.173-13.905.549-20.783.347-3.328.815-6.373 1.838-9.292l9.212 5.31c-.358 1.825-.445 2.838-.659 5.039-.682 7.067-1.266 14.58-.289 21.664.162-.083.324-.16.491-.253.122-.069.255-.1.382-.1.41 0 .78.336.768.807l-.104 3.798c-.005.163-.057.318-.15.45l-.139.184m33.566-33.213l-19.505-11.187-1.208-6.17 19.598 9.829c2.964 1.485 3.398 5.404 1.115 7.528m-31.641-18.146l-1.04-.599.803-.628.237 1.227"/>
        <path fill="#565C65" d="M179.388 166l-4.268-21.7c.492-1.525 1.054-3.03 1.766-4.497l9.114 5.233c-.029.063-.064.127-.093.191l-.098.191-.087.237c-.174.457-.336.914-.492 1.376-.319.94-.602 1.893-.874 2.847-.522 1.85-.985 3.707-1.587 5.535-1.164 3.521-2.304 7.044-3.381 10.587m2.009-44.653l-12.16-6.945-.237-1.224 2.797-2.178 8.39 4.19 1.21 6.157"/>
        <path fill="#7A808B" d="M189.901 140l-9.282-5.314c.94-1.025 1.96-1.976 3.037-2.874l-8.016-4.59-2.206-1.243c-.436.22-.865.45-1.29.693-.177.1-.343.208-.51.321-.12.095-.498.385-.618.524-.264.293-.55.575-.825.86l-.052.054c-.029.048-.063.106-.109.174-.006.004-.006.008-.006.012L161 123.45c.011-.019.029-.039.04-.058.768-1.124 1.61-2.104 2.527-2.975l-1.874-1.056 6.905-5.362 1.031.59L201 132.456c-.23.21-.487.404-.768.575-2.773 1.667-5.506 3.39-8.136 5.251-.814.575-1.536 1.136-2.195 1.717"/>
        <path fill="#9697A2" d="M186.27 145l-9.13-5.317c.041-.085.082-.171.128-.256.888-1.806 2.03-3.406 3.336-4.86L190 140.04c-1.543 1.39-2.703 2.895-3.73 4.961m-19.024-11.08L158 128.537c.655-1.884 1.531-3.716 2.744-5.537l9.135 5.319c-.563.88-1.085 1.768-1.555 2.7-.22.433-.417.874-.632 1.309-.075.163-.145.327-.22.49l-.012.034c-.081.39-.15.741-.214 1.068"/>
        <path fill="#7A808B" d="M173.632 183l-7.3-4.107c.244-.265.493-.519.748-.754v-.058c-.313-.4-.562-.848-.737-1.341-.615-.462-1.02-.861-1.259-1.128-.191-.207-.25-.506-.168-.789l.354-1.198c-.685 1.067-2.1 1.233-2.873 1.548-.214.089-.87.33-1.607.602l-9.79-5.508c1.63-.732 4.126-1.764 6.61-2.473-.076-.163-.145-.335-.198-.516-1.48-.521-2.39-1.076-2.843-1.4-.226-.16-.342-.427-.313-.704l.36-3.79c.034-.422.394-.709.771-.709.047 0 .093.004.14.012-.059-.562-.11-1.124-.157-1.687l11.948 6.687c-.4.495-1.218 1.357-2.478 1.94.4.283.708.667.877 1.181.458 1.382.33 2.306-.064 2.957.012.195.017.378.006.55l.406-1.375c.116-.384.453-.617.79-.617.11 0 .214.024.318.076.383-1.38.784-2.754 1.196-4.124l9.412 5.268c-.087.3-.168.601-.255.901.11.064.006.005.116.068.197-.181.412-.259.61-.259.47 0 .847.445.725.974l-.888 3.857c-.035.165-.116.315-.238.432-.418.41-1.544 1.362-3.168 1.78-.163.124-.343.233-.517.332-.012.196-.029.397-.064.602.122.498.006.916-.081 1.438-.046.279-.22.83-.389 1.332"/>
        <path fill="#9697A2" d="M170.856 188l-7.756-4.49c.689-.85 1.537-1.948 1.987-2.576.564-.784 1.145-1.547 1.749-2.224l7.164 4.147c-.154.446-.302.854-.37.999-.61 1.337-2.164 3.367-2.774 4.144m-16.173-9.361L146 173.612l3.953-2.727s.71-.368 1.837-.885l9.607 5.561c-1.185.446-2.608.97-2.825 1.04-.228.073-2.785 1.701-3.03 1.78-.301.095-.586.18-.86.258"/>
        <path fill="#161E2C" d="M160.08 189.703c.143-.187 2.29-2.89 3.035-4.549.144-.317.665-1.855.75-2.396.19-1.206.545-1.872-1.935-4.13-4.061-3.692-11.742 10.103-11.742 10.103l-1.108 3.517c-.256.611.14 1.423.651 1.914l.314.176c2.148 1.005 3.597.765 4.788-.047 2.04-1.394 2.807-1.446 5.247-4.588"/>
        <path fill="#7B4948" d="M160.06 188.22c.148-.191 6.619-8.028 2.659-10.483-3.485-2.164-6.18.814-8.555 4.089-.707.966-2.333 3.01-2.95 3.667-.448.478-1.287 2.17-1.534 2.774l-.643 2.811c-.246.6.8.242 1.356.729l1.117-2.38c1.075.942 1.365 4.264 2.636 3.444 2.185-1.408 3.366-1.455 5.913-4.652"/>
        <path fill="#834E4A" d="M157 191.007c-.569.338-1.78 1.066-2.436 1.497-1.23.807-2.734.53-4.166-.126-.701-.32-1.68-.857-1.322-1.828l.914-2.514c1.204-.261 4.287.92 7.01 2.971"/>
        <path fill="#E0E9EE" d="M156.874 174c1.646 2.278 5.986 2.858 8.126.8-.268 1.313-.555 2.621-.878 3.92-1.323 5.293-9.302 3.75-7.973-1.563.262-1.048.5-2.1.725-3.157"/>
        <path fill="#EFA37E" d="M174.325 72.26c-.347 4.317-.888 8.68-2.575 12.697-1.618 3.854-3.943 7.377-5.293 11.354-1.14 3.368-1.077 6.733-.855 10.229.296 4.76-.621 8.948-2.353 13.381-1.584 4.064 4.86 5.828 6.427 1.807 1.766-4.531 2.86-9.207 2.65-14.105-.154-3.539-.542-6.73.774-10.118 1.47-3.771 3.704-7.193 5.174-10.974 1.767-4.545 2.32-9.43 2.712-14.271.354-4.358-6.313-4.335-6.66 0"/>
        <path fill="#3C3C57" d="M174.728 68.686l-5.711 17.264c-.514 5.302 10.993 6.867 11.8 2.574l4.09-17.069c.504-2.748-1.095-5.443-3.694-6.233-2.711-.822-5.57.705-6.485 3.464"/>
        <path fill="#FFFEFE" d="M170.576 84.356c3.036 1.711 6.346 2.11 9.621 1.087 1.407-.44.811-2.908-.601-2.466-2.68.835-5.383.575-7.87-.829-1.308-.736-2.458 1.47-1.15 2.208"/>
        <path fill="#E2C09E" d="M186.36 107.256c-6.776 2.565-13.64 4.848-20.504 7.164-3.896 1.317-7.949 2.635-11.245 5.164-2.933 2.247-4.904 5.298-6.449 8.616-1.984 4.264-2.248 8.923-2.639 13.57-.654 7.788-.853 15.664.347 23.407.435 2.8 3.946 4.349 6.455 3.66 2.99-.821 4.099-3.64 3.66-6.447-1.085-7.016-.514-15.057.179-22.312.283-2.942.34-3.467.895-6.23-.035.17-.405.802.161-.357.254-.522.497-1.05.762-1.566.433-.84.918-1.634 1.414-2.435.208-.331 1.068-1.24.075-.138.283-.313.549-.633.85-.929.3-.292.611-.556.928-.825-1.212 1.03-.092.086.243-.097.831-.461 1.65-.908 2.517-1.307.716-.33-.733.25.652-.254.508-.184 1.016-.378 1.524-.56 7.637-2.734 15.373-5.142 22.964-8.016 2.644-1.002 4.462-3.535 3.66-6.448-.699-2.536-3.787-4.669-6.448-3.66"/>
        <path fill="#161E2C" d="M144.362 180.06c.246-.08 2.797-1.737 3.028-1.812.352-.114 3.838-1.44 4.396-1.678 1.172-.502 3.87-.62 3.067-4.416-1.166-5.554-15.95 1.386-15.95 1.386l-5.075 3.177c-.618.387-.917 1.043-.805 1.768.206 1.34 1.708 2.479 3.251 2.457 2.647-.038 3.957.454 8.088-.882"/>
        <path fill="#7B4948" d="M145.439 177.801c.236-.085 2.608-1.73 2.828-1.81.34-.122 4.353-1.432 4.883-1.678 1.111-.518 3.71-1.084 2.565-4.538-1.682-5.053-16.295 2.287-16.295 2.287l-4.73 3.161c-.575.385-.81 1.003-.631 1.665.33 1.222 1.924 2.199 3.45 2.106 2.62-.16 3.963.23 7.93-1.193"/>
        <path fill="#834E4A" d="M140 178.898c-.651.016-2.03.04-2.804.095-1.453.105-2.825-1.001-3.14-2.378-.17-.746.053-1.443.602-1.876l2.198-1.739c1.7.553 2.855 2.607 3.144 5.898"/>
        <path fill="#E0E9EE" d="M147.43 163c1.726 2.212 5.78 2.448 7.57.148-.127 1.375-.275 2.748-.452 4.113-.737 5.567-8.233 4.641-7.497-.946.145-1.102.269-2.207.38-3.315"/>
        <path fill="#EECDB0" d="M157 161.824l-.101 3.875c-.006.166-.056.324-.146.458-.538.792-2.668 3.447-6.536 2.718-3.391-.64-5.21-1.792-5.909-2.331-.217-.167-.33-.445-.305-.732l.347-3.945c.051-.59.649-.934 1.118-.634 1.727 1.1 5.559 2.732 10.416-.13.51-.301 1.132.093 1.116.721"/>
        <path fill="#E2C09E" d="M194.184 118.777c-6.172 3.678-12.564 7.175-18.354 11.446-3.584 2.647-6.9 5.66-8.912 9.714-1.97 3.966-2.803 8.23-4.15 12.409-2.352 7.336-4.75 14.628-6.593 22.117-1.619 6.562 8.507 9.361 10.125 2.792 1.791-7.257 4.05-14.357 6.38-21.455.59-1.804 1.046-3.636 1.56-5.463.283-1.02.584-2.036.925-3.039.168-.485.341-.965.526-1.444.399-1.045-.41.8.121-.257.347-.7.7-1.393 1.121-2.055.208-.326.428-.642.653-.956-.78 1.088.093-.1.301-.318 1.364-1.415 2.774-2.646 3.681-3.296 5.716-4.085 11.888-7.534 17.916-11.126 5.802-3.457.526-12.54-5.3-9.069"/>
        <path fill="#EECDB0" d="M168.977 173.848l-.875 3.782c-.04.162-.12.308-.242.423-.702.68-3.39 2.899-7.153 1.485-3.304-1.239-4.91-2.697-5.508-3.352-.184-.203-.247-.495-.16-.773l1.139-3.807c.166-.569.84-.799 1.254-.42 1.525 1.39 5.076 3.684 10.56 1.754.582-.204 1.129.294.985.908"/>
        <path fill="#C5A584" d="M184.995 128.197l-11.997-6.954c-2.86-1.658-3.85-5.364-2.198-8.234 1.651-2.871 5.345-3.864 8.205-2.206l11.997 6.954c2.86 1.658 3.85 5.363 2.198 8.234-1.651 2.871-5.345 3.864-8.205 2.206"/>
        <path fill="#514E70" d="M172 108.435c.778 1.347 4.903-11.565 3.363-36.435L207 86.448c-2.33 16.328.659 16.422-5.164 36.552L172 108.435"/>
        <path fill="#3C3C57" d="M190 116.854c.735 1.26 11.65-5.05 11.703-25.66.005-2.62.338-2.859 2.868-2.09L208 87c-1.061 13.384.88 17.29-1.907 30.006-.956 4.344-6.029 6.39-9.784 3.95L190 116.853"/>
        <path fill="#514E70" d="M194.944 126.75c-9.152-2.89-17.892-6.101-23.174-11.976-2.54-1.31-2.32-3.79.486-5.512 2.806-1.722 6.82-4.204 9.354-2.895l22.091 12.617c2.54 1.31 1.036 3.027-1.77 4.75l-.11-1.57c-2.805 1.722-4.344 5.896-6.877 4.586"/>
        <path fill="#3C3C57" d="M203.39 120.294L197.26 111c-14.216 18.337-22.891 5.024-26.26 3.287 5.033 5.33 13.48 8.391 21.666 11.615 2.463 1.496 6.883 1.458 9.831-.084 2.948-1.542 3.351-4.028.893-5.524M201 75l-16-5.155L187.914 62c4.905.245 8.251 2.05 12.187 5.138L201 75"/>
        <path fill="#514E70" d="M178.083 66.256c-2.06 2.315-1.94 3.842-2.076 7.186-.138 3.27 1.882 6.248 4.96 7.345L212.406 92s2.688-12.226-3.381-16.38c-3.267-2.238-8.33-5.806-12.31-8.623-5.842-4.136-13.868-6.089-18.633-.74"/>
        <path fill="#2F2E42" d="M190 71s1.035.453 1.99.307l3.01 6.159-.19.182c-.586.565-1.59.43-1.906-.259L190 71"/>
        <path fill="#2F2E42" d="M193 72.848s-1.121-.184-1.818-.848L185 75.726l.046.266c.14.827 1.046 1.27 1.72.843L193 72.848M190.998 77.49c-.021.482-.265.652-.538.381-.278-.27-.48-.88-.458-1.362.02-.48.264-.651.538-.38.277.27.483.88.458 1.362M189.999 80.49c-.026.481-.265.652-.543.381-.273-.27-.48-.88-.454-1.362.021-.48.26-.651.538-.38.274.27.48.88.459 1.361M189.998 83.49c-.021.482-.26.652-.538.381-.278-.27-.48-.88-.458-1.361.02-.481.264-.652.538-.381.277.27.483.88.458 1.361"/>
        <path fill="#6A678D" d="M193 71.434s-4.089-.276-4.362-6.91L185.942 64c-.393.252-1.167.015-1.697 2.195-.315 1.297-.315 2.642-.065 3.95l.732 3.818c.16.856 1.25 1.311 2.047.86l6.041-3.39"/>
        <path fill="#FFFEFE" d="M193 71.848s-1.121-.184-1.818-.848L185 74.727l.046.265c.146.827 1.046 1.27 1.72.843L193 71.848"/>
        <path fill="#EFA37E" d="M190.723 70.065L188 56l8.76 3.337 2.212 11.484c.512 1.883-6.074 6.479-8.249-.756"/>
        <path fill="#EFA37E" d="M190.573 68.6l-2.602.34c-4.015.523-7.718-2.414-8.228-6.528l-1.684-13.581c-.51-4.114 2.353-7.907 6.368-8.43l2.602-.34c4.015-.524 7.718 2.413 8.228 6.527l1.684 13.582c.51 4.113-2.353 7.907-6.368 8.43"/>
        <path fill="#3A271D" d="M189.209 50.193c-2.662 1.595-6.345 2.106-9.543 1.19-3.475-.994-6.148-4.793-3.746-7.525 1.299-1.476 4.924-3.43 7.84-4.964 8.26-4.35 17.745-1.12 18.992 8.799 0 0 2.043 13.555-5.594 16.307l-.693-1.946s2.88-3.259-.854-5.505c-1.132-.68-2.333-2.48-2.384-4.144-.052-1.684-2.587-3.068-4.018-2.212"/>
        <path fill="#564655" d="M196.868 54.63l-6.363 5.296c-.14.119-.34.092-.447-.06-.1-.154-.067-.377.073-.496l6.362-5.296c.14-.119.341-.092.447.061.1.153.073.376-.072.495"/>
        <path fill="#EFA37E" d="M198.205 60.205c-.882 1.123-2.133 1.047-2.8-.17-.667-1.22-.492-3.117.39-4.24.882-1.124 2.133-1.047 2.8.171.667 1.218.492 3.116-.39 4.24"/>
        <path fill="#FFFFFE" d="M181.692 61.034l4.996 1.83c.204.076.334.267.309.469-.093.721-.611 2.254-3.335 1.43-1.908-.577-2.482-2.246-2.655-3.239-.062-.35.32-.622.685-.49"/>
        <path fill="#3A271D" d="M187.975 58.918c.085.55-.053 1.033-.315 1.079-.261.045-.544-.364-.635-.915-.085-.55.053-1.033.315-1.079.261-.045.544.364.635.915M181.966 56.907c.1.55-.032 1.037-.286 1.088-.26.053-.55-.351-.646-.901-.1-.55.027-1.038.286-1.09.26-.051.546.352.646.903"/>
        <path fill="#533424" d="M186.552 56.017c.898-.057 1.797.332 2.453.848.55.433 1.365-.279.81-.714-.87-.685-2.063-1.22-3.263-1.144-.733.047-.739 1.057 0 1.01M179.585 54.07c.885-.036 1.727.238 2.369.778.567.476 1.428-.277.86-.753-.86-.726-2.032-1.14-3.23-1.091-.779.031-.779 1.097 0 1.065"/>
        <path fill="#DE8266" d="M190 67.88c.15.373 4.151-1.409 3.996-1.88 0 0-1.592 2.962-3.575 4L190 67.88"/>
        <path fill="#564655" d="M184.356 56.963l-.957-.298c-.281-.087-.455-.299-.383-.472.066-.172.353-.243.628-.156l.957.298c.281.087.455.3.383.472-.066.172-.353.242-.628.156"/>
        <g transform="translate(178 54)">
            <mask id="2agjrz0zkb" fill="#fff">
                <use xlink:href="#zesqn0876a"/>
            </mask>
            <path fill="#FFFFFE" d="M0.055 3.998L0.855 3.998 0.855 0.226 0.055 0.226z" mask="url(#2agjrz0zkb)"/>
        </g>
        <path fill="#F6CDB4" d="M182.092 59c-.17 0-.355-.045-.551-.14l-1.109-.536c-.36-.175-.705-.49-.992-.877L179 54c.01.005.027.011.037.017l3.363 1.625c.26.125.488.494.514.823l.08 1.138c.058.863-.318 1.397-.902 1.397m-.583-3.11c-.016 0-.032 0-.048.003-.26.049-.387.507-.286 1.025.09.487.355.852.6.852.015 0 .03-.002.047-.005.254-.048.387-.507.286-1.023-.09-.488-.355-.853-.6-.853"/>
        <path fill="#938478" d="M181.633 58c-.244 0-.509-.388-.599-.906-.1-.55.027-1.038.286-1.09.016-.002.032-.004.048-.004.244 0 .508.388.598.907.1.55-.032 1.037-.286 1.089-.016.002-.031.004-.047.004"/>
        <path fill="#F6CDB4" d="M188.966 62c-.193 0-.405-.054-.628-.168l-1.263-.64c-1.003-.507-1.891-2.01-1.982-3.342l-.09-1.36c-.007-.08 0-.154.011-.217.145-.025.254-.105.297-.227.006-.015.012-.03.012-.046.048.004.108.02.163.05l3.83 1.94c.297.15.556.589.58.983l.097 1.359c.067 1.03-.362 1.668-1.027 1.668m-1.196-4.508c-.018 0-.03.001-.049.004-.296.051-.453.595-.356 1.215.097.588.393 1.033.67 1.033.019 0 .03 0 .049-.003.296-.052.453-.596.356-1.215-.096-.589-.392-1.034-.67-1.034"/>
        <path fill="#938478" d="M187.617 60c-.245 0-.506-.395-.592-.918-.085-.55.053-1.033.315-1.079.016-.002.027-.003.043-.003.245 0 .506.395.592.918.085.55-.053 1.033-.315 1.079-.016.002-.027.003-.043.003"/>
        <path fill="#9E969F" d="M184.245 56.718c.06-.276.24-.436.47-.436.02 0 .03 0 .04.002 0 .025-.01.05-.02.074-.07.194-.25.32-.49.36"/>
        <path fill="#564655" d="M184.575 56.465L184.605 56.349 184.605 56.346 184.645 56.285 184.735 56.179 184.425 56.391 184.335 56.495 184.315 56.508 184.295 56.554 184.295 56.559 184.285 56.593 184.275 56.629 184.275 56.661 184.265 56.676 184.265 56.821 184.575 56.611 184.575 56.465M188.88 61.806l-.087.035-.021.009-.114.024-.026.003-.119.006h-.016l-.13-.012-.01-.002c-.046-.007-.093-.017-.14-.03l-.01-.003c-.052-.014-.103-.031-.15-.052l-.01-.004c-.052-.021-.11-.046-.161-.074l-.896-.466c-.052-.028-.11-.06-.161-.094l-.01-.006c-.052-.032-.099-.066-.15-.103l-.016-.012c-.047-.036-.093-.073-.14-.113l-.016-.014c-.046-.042-.093-.084-.14-.13l-.01-.009c-.046-.048-.093-.097-.14-.149l-.005-.004c-.047-.052-.088-.106-.135-.161l-.005-.009c-.041-.048-.078-.099-.114-.15l-.072-.102-.057-.086-.026-.042c-.026-.049-.057-.098-.088-.148l-.01-.017-.094-.186-.005-.01c-.031-.06-.057-.123-.088-.185l-.005-.012c-.026-.065-.052-.129-.073-.194l-.005-.011c-.02-.062-.042-.125-.057-.187l-.005-.017c-.021-.065-.037-.129-.052-.192v-.004c-.016-.065-.026-.13-.036-.193v-.016c-.01-.064-.016-.128-.021-.19L185.16 57l-.161.117.093 1.493.005.074.01.08.006.037v.015l.005.028.016.08.015.082v.007l.021.076.02.085.011.03.005.02.01.036.027.086.02.064.005.011.006.01.03.085.032.082.005.016.005.012.026.051.036.079.026.056.005.01.042.088.046.085.006.013.01.016.041.067.047.081.026.043.01.017.047.067.073.104.01.017.104.135.005.006v.001l.077.092.057.07.006.002v.002l.067.07.062.068.01.01.01.01.048.046.072.064.02.019.016.013.037.03.072.06.031.024.016.012.026.019.072.05.052.034.01.006.01.006.068.042.067.038.016.008.896.466.052.025.062.03.047.019.005.003.016.005.062.024.067.02.01.003.011.003.041.012.063.014.036.005.01.002.021.003.067.007.042.001.015.001h.016l.072-.003.032-.004.025-.003.021-.003.088-.02.005-.001.021-.008.083-.032.005-.003.12-.069.16-.116-.12.068"/>
        <path fill="#564655" d="M184.795 56.078l-.032-.011-.031-.013-.039-.013-.031-.01-.032-.009-.007-.001h-.006l-.025-.006-.032-.007-.038-.004-.032-.003h-.026l-.006-.001h-.006l-.039.001-.044.005-.05.009-.058.017-.064.032-.197.118.12-.048.14-.016h.007l.153.02c.057.014.114.033.178.058L188.796 58l.204-.118-4.205-1.804"/>
        <path fill="#211A22" d="M188.642 60.322l-.095-1.478c-.015-.226-.189-.492-.388-.592l-3.468-1.765c-.2-.1-.347.003-.331.229l.094 1.478c.068 1.04.857 2.261 1.76 2.72l.91.462c.903.46 1.581-.014 1.518-1.054m-.51-2.48c.4.2.741.73.768 1.182l.094 1.48c.084 1.266-.746 1.842-1.844 1.282l-.91-.462c-1.097-.559-2.06-2.045-2.143-3.311l-.095-1.48c-.031-.452.268-.656.662-.457l3.468 1.766"/>
        <path fill="#564655" d="M189.898 59.123l-.005-.034-.005-.033-.005-.034-.005-.035-.01-.035-.01-.035-.01-.036-.01-.036-.016-.036-.01-.035-.015-.035-.015-.033-.03-.065-.016-.032-.02-.036-.026-.04-.035-.057-.056-.081-.046-.06-.03-.038-.03-.032-.026-.03-.025-.028-.03-.028-.031-.027-.03-.026-.031-.025-.036-.023-.03-.021-.03-.02-.026-.018-.03-.016-.006-.003-.162.112.01.004.03.016.026.018.03.019.03.021.036.024.03.025.031.026.03.027.026.028.03.028.026.03.03.031.03.039.047.059.055.082.036.056.025.04.02.036.016.032.015.033.03.066.016.035.01.034.015.037.01.036.02.071.01.035.006.035.005.033.005.034.005.033v.032l.091 1.41.01.16v.079l-.004.087-.006.09-.015.095-.015.1-.025.105-.041.114c-.015.049-.035.095-.06.138-.077.15-.179.268-.3.355l.157-.113c.122-.087.223-.206.3-.354.025-.044.045-.09.06-.139l.041-.114.025-.105.016-.1.015-.097.005-.095.005-.094-.005-.092-.005-.1-.092-1.443v-.031M178.575 53.465L178.605 53.348 178.605 53.346 178.645 53.284 178.735 53.179 178.425 53.39 178.325 53.495 178.315 53.508 178.295 53.555 178.295 53.559 178.265 53.662 178.265 53.821 178.575 53.61 178.575 53.465M182.886 58.805l-.093.036-.021.008-.114.024-.026.003-.119.007h-.01l-.135-.012-.01-.003c-.047-.007-.094-.017-.14-.03l-.01-.002c-.053-.015-.1-.032-.151-.052l-.01-.005c-.052-.02-.11-.045-.161-.073l-.896-.466c-.052-.028-.11-.06-.161-.094l-.01-.006c-.052-.032-.099-.067-.15-.103l-.016-.012c-.047-.036-.093-.074-.14-.114l-.016-.014c-.046-.04-.093-.083-.14-.128l-.01-.01c-.046-.048-.093-.098-.14-.15l-.005-.003c-.047-.052-.093-.106-.135-.162l-.005-.007c-.041-.05-.078-.1-.114-.15l-.072-.103-.057-.086-.026-.042c-.031-.049-.057-.098-.088-.149l-.01-.017c-.032-.06-.063-.122-.094-.185l-.005-.01c-.031-.061-.062-.123-.088-.186l-.005-.012c-.026-.064-.052-.128-.073-.193l-.005-.011-.062-.187-.005-.018-.047-.192v-.004c-.016-.064-.026-.128-.036-.192v-.016c-.01-.064-.016-.128-.021-.19L179.16 54l-.161.117.093 1.493.005.075.01.079.006.037v.015l.005.028.016.08.015.082v.007l.016.076.026.085.005.03.015.056.032.086.02.064.005.01v.011l.032.084.036.083.005.015.005.014.02.05.037.078.031.057v.01l.01.01.037.078.046.085.006.013.01.016.036.067.052.08.026.043.01.017.047.068.073.104.01.017.104.134.005.007.072.092.062.07.006.003v.002l.067.07.062.068.01.009.01.011.048.046.072.064.02.018.016.014.037.03.072.06.031.023.016.013.026.018.072.05.052.034.01.006.01.007.068.042.067.037.016.008.896.467.052.025.062.03.047.018.01.004.01.005.063.024.067.02.01.003.011.003.041.011.068.014.03.005.011.002.021.004.067.006.047.002h.01l.016.001.072-.003.032-.004.025-.003.021-.003.093-.02v-.002l.021-.008.083-.031.01-.004.114-.068.161-.117-.114.068"/>
        <path fill="#564655" d="M178.795 53.078l-.032-.01-.031-.014-.039-.012-.031-.01-.039-.01-.006-.001-.025-.006-.032-.006-.038-.005-.039-.003h-.025l-.006-.001-.045.002-.038.004-.05.01-.058.016-.064.032-.197.118.12-.048.14-.015.16.02c.057.013.114.032.172.057l4.21 1.804.198-.118-4.205-1.804"/>
        <path fill="#211A22" d="M182.638 57.323l-.095-1.48c-.015-.225-.189-.49-.383-.591l-3.475-1.765c-.194-.1-.341.004-.326.229l.095 1.478c.068 1.04.855 2.261 1.758 2.72l.909.462c.903.46 1.585-.014 1.517-1.053m-.504-2.481c.394.2.735.73.766 1.182l.095 1.48c.079 1.266-.746 1.842-1.848 1.282l-.908-.461c-1.098-.56-2.063-2.045-2.142-3.312l-.095-1.48c-.031-.451.268-.656.656-.456l3.476 1.765"/>
        <path fill="#564655" d="M183.898 56.123l-.005-.033v-.034l-.01-.034-.005-.035-.01-.034-.006-.036-.015-.036-.01-.036-.01-.036-.016-.035-.015-.034-.015-.034-.016-.033-.015-.032-.015-.032-.02-.036-.021-.04-.036-.057-.056-.081-.046-.06-.036-.038-.025-.031-.03-.03-.026-.029-.03-.027-.031-.027-.031-.027-.03-.024-.031-.024-.03-.021-.032-.02-.03-.017-.03-.016-.006-.004-.158.113.005.003.03.017.031.017.03.02.032.02.03.024.03.025.031.027.031.026.03.028.026.028.03.03.026.031.03.039.052.06.056.08.036.058.02.04.02.035.016.033.015.032.015.033.016.033.015.034.015.036.01.036.01.036.011.036.01.035.01.035.005.035.01.067.006.033.005.032.087 1.41.01.16v.078l-.005.088-.005.09-.01.095-.021.1-.025.105-.036.114c-.02.048-.041.095-.061.138-.077.149-.179.268-.301.355l.158-.113c.122-.087.224-.206.3-.355.021-.043.042-.09.062-.138l.036-.114.025-.105.02-.101.01-.097.011-.188v-.092l-.005-.1-.092-1.443-.005-.031"/>
        <path fill="#211A22" d="M178.675 53.963l-.48-.298c-.135-.087-.223-.3-.187-.472.032-.172.177-.242.313-.156l.48.298c.14.087.224.299.192.471-.036.173-.177.244-.318.157M189.676 58.963l-.48-.298c-.14-.087-.224-.299-.187-.471.03-.173.172-.244.312-.157l.48.298c.14.087.224.3.192.472-.036.172-.177.242-.317.156"/>
        <path fill="#6A678D" d="M191 71.011s4.357 1.795 9.199-4.011l2.652 3.71c.216.555.245.622-.24 1.067l-6.29 5.8c-.736.682-2.002.513-2.39-.318L191 71.011"/>
        <path fill="#FFFEFE" d="M191 71s1.04.453 1.99.307l3.01 6.159-.19.182c-.586.565-1.584.43-1.906-.259L191 71"/>
        <path fill="#EFA37E" d="M169.715 120.95c-2.124.339-4.139-1.102-4.484-3.201l-1.18-7.268c-.346-2.099 1.11-4.094 3.235-4.432 2.124-.338 4.14 1.103 4.479 3.203l1.186 7.267c.34 2.1-1.117 4.094-3.236 4.432"/>
        <path fill="#A4BDD7" d="M191 125.644l-.006-.837-1.069.417-.225-.532-26.776-15.565c-.323-.188-.89-.164-1.265.052l-11.527 6.702v-.187l-2.132.862v.89h.015c.027.086.094.166.203.23l27.86 16.198c.324.187.896.163 1.265-.053l13.35-7.762c.203-.118.307-.27.307-.415"/>
        <path fill="#FFFFFE" d="M176.08 133.873l-27.862-16.197c-.323-.188-.282-.519.09-.735l13.348-7.762c.376-.216.942-.24 1.265-.053l27.86 16.198c.324.188.284.519-.092.735l-13.35 7.762c-.369.216-.94.24-1.259.052"/>
        <path fill="#A4BDD7" d="M177.53 122.97l-6.478-3.888c-.078-.045-.067-.124.022-.176l3.103-1.863c.089-.052.216-.058.294-.013l6.477 3.888c.078.045.067.124-.022.176l-3.103 1.863c-.089.052-.216.058-.294.013"/>
        <path fill="#FFFFFE" d="M174.947 115.778c-.117-.733-.695-1.6-1.302-1.938l-27.95-15.706c-.25-.14-.463-.166-.62-.098l-.005.002c-.055.026-.104.062-.144.11l-.926.962.842-.074 2.656 16.983c.115.732.695 1.6 1.297 1.938l26.432 14.85.852.95.105.233c.538.114 1.816-.784 1.816-.784l-3.053-17.428"/>
        <path fill="#3F3E5B" d="M176.123 133.865l-27.225-15.795c-.586-.34-1.151-1.212-1.263-1.95l-2.616-17.266c-.112-.737.273-1.058.859-.719l27.226 15.795c.586.34 1.149 1.212 1.262 1.95l2.616 17.266c.108.737-.273 1.058-.859.719"/>
        <path fill="#EFA37E" d="M204.524 82.257c.486 5.082 1.307 10.117 1.863 15.188.266 2.462.422 4.933.498 7.408.086 2.728.52 5.964-.434 8.597-1.077 2.95-4.612 2.85-7.297 2.961-5 .209-9.965.334-14.78 1.85-4.171 1.314-2.389 7.887 1.812 6.564 5.052-1.592 10.138-1.28 15.34-1.748 4.404-.397 8.634-1.744 10.752-5.957 2.633-5.237 1.597-12.424 1.088-18.048-.51-5.623-1.482-11.193-2.026-16.815-.416-4.321-7.239-4.364-6.816 0"/>
        <path fill="#EFA37E" d="M177.194 124.345c-.673-2.016.459-4.206 2.518-4.866l7.123-2.288c2.059-.66 4.298.448 4.97 2.465.674 2.015-.458 4.205-2.517 4.865l-7.123 2.288c-2.059.66-4.292-.448-4.97-2.464"/>
        <path fill="#514E70" d="M202.008 81.802l.93 18.456c1.452 5.188 12.827 2.186 12.021-2.165l-2.382-17.643c-.534-2.78-3.013-4.694-5.747-4.425-2.848.28-4.975 2.827-4.822 5.777"/>
        <path fill="#FFFEFE" d="M205.135 98.95c3.375.286 6.679-.655 9.367-2.694 1.194-.905.018-2.941-1.193-2.024-2.411 1.827-5.148 2.632-8.174 2.374-1.52-.128-1.507 2.215 0 2.344"/>
        <path fill="#FFFFFE" d="M160.985 117.172c.136.895-.648 1.096-1.743.448-1.095-.648-2.092-1.898-2.228-2.793-.13-.894.648-1.095 1.749-.447 1.094.647 2.09 1.898 2.222 2.792"/>
        <path fill="#97AFC5" d="M145.138 392.97c-7.607-4.374-7.569-11.489.086-15.89 7.657-4.403 20.03-4.425 27.636-.05 7.606 4.374 7.571 11.489-.086 15.89-7.658 4.403-20.031 4.425-27.636.05zm-15.297 7.89l1.577.907c3.066 1.762 8.051 1.753 11.136-.02 2.725-1.568 7.364-.47 7.352 1.74-.014 2.5 3.499 4.521 7.852 4.513l2.234-.004c4.353-.007 7.888-2.04 7.9-4.542.01-2.209 4.663-3.323 7.37-1.766 3.068 1.762 8.054 1.754 11.134-.02l1.59-.913c3.086-1.774 3.097-4.64.034-6.403-2.706-1.557-.771-4.232 3.075-4.239 4.347-.008 7.882-2.041 7.9-4.542l.005-1.287c.011-2.5-3.5-4.52-7.853-4.513-3.84.007-5.747-2.66-3.023-4.228 3.086-1.773 3.097-4.64.034-6.403l-1.577-.907c-3.063-1.762-8.05-1.753-11.136.02-2.723 1.568-7.364.47-7.352-1.74.011-2.5-3.5-4.521-7.848-4.513l-2.24.004c-4.347.007-7.885 2.041-7.898 4.542-.012 2.21-4.663 3.324-7.371 1.766-3.065-1.762-8.05-1.753-11.136.02l-1.587.913c-3.085 1.774-3.1 4.64-.035 6.403 2.708 1.558.77 4.232-3.072 4.239-4.349.008-7.885 2.041-7.9 4.542l-.006 1.287c-.013 2.5 3.5 4.521 7.85 4.513 3.841-.007 5.75 2.66 3.026 4.228-3.085 1.773-3.1 4.64-.035 6.403z"/>
        <path fill="#CEE5ED" d="M145.138 386.97c-7.607-4.374-7.569-11.488.086-15.89 7.657-4.402 20.03-4.425 27.636-.05 7.606 4.374 7.571 11.489-.086 15.89-7.658 4.403-20.031 4.425-27.636.05zm-15.297 7.89l1.577.907c3.066 1.762 8.051 1.753 11.136-.02 2.725-1.567 7.364-.47 7.352 1.74-.014 2.5 3.499 4.521 7.852 4.513l2.234-.004c4.353-.008 7.888-2.041 7.9-4.542.01-2.208 4.663-3.323 7.37-1.766 3.068 1.762 8.054 1.753 11.134-.02l1.59-.913c3.086-1.774 3.097-4.64.034-6.403-2.706-1.558-.771-4.232 3.075-4.238 4.347-.008 7.882-2.042 7.9-4.543l.005-1.286c.011-2.501-3.5-4.522-7.853-4.514-3.84.007-5.747-2.66-3.023-4.227 3.086-1.774 3.097-4.64.034-6.403l-1.577-.907c-3.063-1.763-8.05-1.754-11.136.02-2.723 1.566-7.364.469-7.352-1.74.011-2.5-3.5-4.521-7.848-4.514l-2.24.004c-4.347.008-7.885 2.041-7.898 4.542-.012 2.209-4.663 3.324-7.371 1.767-3.065-1.763-8.05-1.754-11.136.02l-1.587.913c-3.085 1.773-3.1 4.64-.035 6.403 2.708 1.557.77 4.231-3.072 4.238-4.349.007-7.885 2.041-7.9 4.542l-.006 1.287c-.013 2.5 3.5 4.52 7.85 4.513 3.841-.006 5.75 2.66 3.026 4.227-3.085 1.774-3.1 4.64-.035 6.404z"/>
        <path fill="#97AFC5" d="M40.188 382.802c-11.697-6.752-11.637-17.733.133-24.527 11.77-6.794 30.794-6.829 42.49-.077 11.698 6.752 11.638 17.733-.132 24.528-11.77 6.794-30.794 6.828-42.49.076zm-23.52 12.177l2.425 1.4c4.713 2.72 12.38 2.706 17.122-.031 4.19-2.419 11.322-.724 11.303 2.685-.02 3.86 5.383 6.979 12.07 6.967l3.441-.006c6.686-.012 12.123-3.15 12.144-7.01.018-3.41 7.169-5.13 11.333-2.727 4.712 2.72 12.377 2.707 17.12-.03l2.44-1.41c4.744-2.738 4.768-7.163.055-9.883-4.164-2.404-1.183-6.531 4.723-6.541 6.687-.013 12.124-3.152 12.145-7.011l.011-1.986c.02-3.86-5.383-6.98-12.069-6.967-5.907.01-8.842-4.106-4.653-6.525 4.743-2.737 4.767-7.162.054-9.882l-2.426-1.4c-4.713-2.721-12.378-2.707-17.12.03-4.19 2.419-11.323.724-11.304-2.686.021-3.859-5.382-6.978-12.069-6.966l-3.441.006c-6.686.012-12.124 3.15-12.144 7.011-.019 3.41-7.17 5.13-11.333 2.726-4.713-2.72-12.379-2.707-17.122.031l-2.44 1.409c-4.743 2.738-4.767 7.163-.054 9.883 4.163 2.404 1.183 6.531-4.724 6.542-6.686.012-12.123 3.15-12.144 7.01L0 371.605c-.02 3.86 5.383 6.978 12.069 6.966 5.907-.01 8.842 4.106 4.652 6.525-4.742 2.737-4.767 7.162-.053 9.883z"/>
        <path fill="#CEE5ED" d="M40.188 373.802c-11.697-6.752-11.637-17.733.133-24.527 11.77-6.794 30.794-6.829 42.49-.077 11.698 6.752 11.638 17.733-.132 24.528-11.77 6.793-30.794 6.828-42.49.076zm-23.52 12.177l2.425 1.4c4.713 2.72 12.38 2.706 17.122-.031 4.19-2.419 11.322-.724 11.303 2.685-.02 3.86 5.383 6.979 12.07 6.967l3.441-.006c6.686-.012 12.123-3.15 12.144-7.01.018-3.41 7.169-5.13 11.333-2.727 4.712 2.72 12.377 2.707 17.12-.03l2.44-1.41c4.744-2.738 4.768-7.163.055-9.883-4.164-2.404-1.183-6.531 4.723-6.542 6.687-.012 12.124-3.15 12.145-7.01l.011-1.986c.02-3.86-5.383-6.98-12.069-6.967-5.907.01-8.842-4.106-4.653-6.525 4.743-2.737 4.767-7.162.054-9.882l-2.426-1.4c-4.713-2.722-12.378-2.707-17.12.03-4.19 2.418-11.323.724-11.304-2.686.021-3.859-5.382-6.978-12.069-6.966l-3.441.006c-6.686.012-12.124 3.15-12.144 7.011-.019 3.41-7.17 5.13-11.333 2.726-4.713-2.72-12.379-2.707-17.122.031l-2.44 1.409c-4.743 2.738-4.767 7.163-.054 9.883 4.163 2.404 1.183 6.531-4.724 6.541C5.47 353.62.032 356.76.011 360.618L0 362.605c-.02 3.86 5.383 6.978 12.069 6.966 5.907-.01 8.842 4.106 4.652 6.525-4.742 2.737-4.767 7.162-.053 9.883z"/>
        <path fill="#DAE6EE" d="M310.33 372c-6.75 0-13.49-1.501-18.624-4.505-10.32-6.034-10.268-15.849.115-21.92 5.214-3.05 12.034-4.575 18.842-4.575 6.758 0 13.497 1.501 18.631 4.505 10.32 6.035 10.268 15.849-.115 21.921-5.214 3.049-12.034 4.575-18.848 4.574"/>
        <path fill="#161E2C" d="M315.882 350.75c.19.165 3.086 1.58 3.265 1.735.284.237 1.11.888 1.613 1.241 1.058.743 3.289 3.565 6.936 1.578 5.329-2.909-7.393-11.185-7.393-11.185l-5.629-2.858c-.682-.348-1.509-.348-2.225 0-1.318.642-1.844 2.231-1.127 3.439 1.225 2.07 1.294 3.277 4.56 6.05"/>
        <path fill="#FFFFFE" d="M316.882 349.75c.19.166 3.086 1.58 3.265 1.735.284.236 1.11.888 1.613 1.24 1.058.744 3.289 3.566 6.936 1.579 5.329-2.909-7.393-11.185-7.393-11.185l-5.629-2.858c-.682-.348-1.509-.348-2.225 0-1.318.642-1.844 2.232-1.127 3.438 1.225 2.07 1.294 3.278 4.56 6.051"/>
        <path fill="#161E2C" d="M296.395 363.474c.228.129 3.393.98 3.604 1.1.327.183 1.287.676 1.854.932 1.205.54 4.008 2.952 7.208.2 4.68-4.026-9.66-9.852-9.66-9.852l-6.177-1.762c-.75-.215-1.568-.048-2.206.449-1.176.918-1.363 2.637-.404 3.717 1.65 1.852 1.966 3.062 5.78 5.216"/>
        <path fill="#FFFFFE" d="M296.399 361.474c.228.128 3.388.979 3.604 1.099.322.184 1.281.677 1.855.934 1.2.54 4.002 2.951 7.203.2 4.68-4.027-9.655-9.853-9.655-9.853l-6.179-1.762c-.749-.215-1.574-.048-2.205.45-1.177.917-1.37 2.636-.41 3.715 1.65 1.852 1.972 3.063 5.787 5.217"/>
        <path fill="#280D40" d="M302.532 285.412c-4.252 12.978-4.798 27.136-4.442 40.73.262 9.998 1.79 20.078 1.55 30.076-.15 6.378 9.38 6.375 9.53 0 .234-9.72-1.237-19.525-1.527-29.243-.39-13.052-.005-26.458 4.08-38.929 1.979-6.048-7.223-8.646-9.19-2.634M322.205 274.496c-2.357 8.511-3.41 17.347-4.294 26.111-.506 5.072-1.257 10.08-.733 15.16 1.047 10.069 2.961 20.315 2.892 30.457-.041 6.364 9.908 6.371 9.949 0 .064-9.988-1.798-20.09-2.84-30.004-.523-4.936.1-9.694.588-14.637.803-8.23 1.821-16.468 4.032-24.458 1.7-6.145-7.895-8.767-9.594-2.629"/>
        <path fill="#E0E9EE" d="M301.013 354.768c2.072 1.893 6.358 1.631 7.963-.768.029 1.322.035 2.643 0 3.962-.12 5.374-8.1 5.394-7.975 0 .023-1.064.023-2.129.012-3.194"/>
        <path fill="#280D40" d="M324.418 290.506c-.915 1.008 2.996-3.896 1.829-3.197-2.439 1.456-16.121 10.644-18.968 10.69-3.44.057-1.438-3.23-3.998-5.5-2.427-2.155-2.996-5.654-3.238-8.871-.063-.89-.109-1.818.253-2.636.386-.883 1.191-1.51 1.967-2.091 6.08-4.547 18.031-15.801 26.526-12.202 9.812 4.158-.017 18.981-4.371 23.807"/>
        <path fill="#6F389F" d="M331.445 217.64c1.804 2.35 1.585 3.802 1.498 7.01-.08 3.136-2.184 5.85-5.175 6.697L297.238 240s-1.757-11.87 4.266-15.442c3.245-1.925 8.276-5.004 12.23-7.435 5.81-3.571 13.544-4.91 17.71.518"/>
        <path fill="#EFA37E" d="M317.975 216.582L315.293 205 308 209.754l2.197 10.545c.21 1.713 8.305.217 7.778-3.717"/>
        <path fill="#EFA37E" d="M317.166 188.385s7.778-3.343 5.372 8.449c-1.676 8.202-8 14.227-15.195 15.972-4.483 1.087-8.916-2.568-8.282-6.697.277-6.166 1.432-11.732 4.33-16.098.765-4.98 3.686-2.498 9.432-1.552l4.343-.074"/>
        <path fill="#3A271D" d="M316.46 211.66s8.637-1.224 10.312-12.482c1.807-12.181-7.532-12.6-13.522-14.817-4.745-1.755-14.431 3.202-8.25 8.01 1.176.916-.087 4.176-.087 5.569.006 2.477 1.252 3.952 1.298 6.363.052 2.28 2.55 6.373 4.606 7.063 3.661 1.228 5.643.294 5.643.294"/>
        <path fill="#6F389F" d="M332.733 272.946c1.947-.756 1.485-34.377-.266-52.946L298 236.458c.173 15.807 2.167 28.28.277 47.542l34.456-11.054"/>
        <path fill="#6F389F" d="M310.283 287.081c8.42-3.13 16.44-6.555 21.155-12.445 2.315-1.362 2.023-3.762-.652-5.334-2.67-1.573-6.75-1.745-9.065-.383l-21.16 12.445c-2.316 1.361-2.019 3.762.65 5.334 2.676 1.573 6.757 1.745 9.072.383"/>
        <path fill="#6F389F" d="M298 236.682l5.663-2.682c.23 15.237 2.108 27.476.26 46.181l.097-.03c-.04 1.058.714 2.184 2.224 3.053 2.696 1.549 6.809 1.719 9.142.378 4.073-1.48 8.054-3.03 11.614-4.881-4.684 3.575-10.86 6.068-17.26 8.394-2.333 1.341-6.446 1.172-9.142-.377-1.51-.869-2.264-1.995-2.224-3.053l-.097.03c1.883-19.048-.104-31.382-.277-47.013"/>
        <path fill="#5A4459" d="M311 353.724l-.087 3.394c-.006.146-.052.284-.144.402-.537.692-2.666 3.014-6.539 2.367-3.393-.567-5.217-1.58-5.921-2.054-.214-.146-.33-.39-.306-.642l.335-3.456c.052-.516.646-.816 1.12-.553 1.73.968 5.568 2.406 10.422-.092.514-.263 1.137.083 1.12.634"/>
        <path fill="#E0E9EE" d="M321.013 344.768c2.066 1.893 6.353 1.63 7.963-.768.029 1.321.035 2.642 0 3.961-.12 5.375-8.1 5.395-7.975 0 .023-1.063.023-2.128.012-3.193"/>
        <path fill="#5A4459" d="M332 343.724l-.092 3.395c0 .145-.052.283-.139.401-.543.693-2.666 3.014-6.539 2.367-3.393-.567-5.217-1.58-5.921-2.054-.22-.146-.33-.39-.306-.642l.335-3.456c.046-.516.646-.816 1.114-.553 1.731.968 5.575 2.406 10.428-.092.514-.263 1.131.083 1.12.634"/>
        <path fill="#FFFFFE" d="M305 221.908c7.835-1.179 13.127 3.747 15-7.538-1.145-.709-2.623-.365-3.385.74-1.346 1.943-4.204 3.171-7.365 2.784-.945-.116-1.873.32-2.389 1.121L305 221.908"/>
        <path fill="#EFA37E" d="M305.202 201.747c-.542 1.888.044 3.754 1.314 4.17.136.046.277.072.418.08 1.161.067 2.377-1.063 2.86-2.744.549-1.888-.038-3.754-1.308-4.17-1.27-.416-2.74.777-3.284 2.664M252.575 237.852c4.512 2.416 9.03 4.832 13.542 7.249 2.095 1.12 4.162 2.311 6.35 3.24 2.175.926 4.517 1.408 6.681 2.36 3.697 1.623 6.924-3.811 3.198-5.449-2.124-.933-4.323-1.536-6.493-2.322-2.279-.824-4.409-2.138-6.538-3.277-4.518-2.416-9.03-4.833-13.548-7.249-3.588-1.92-6.786 3.525-3.192 5.448"/>
        <path fill="#6F389F" d="M308.404 231.717c-11.237 11.961-21.547 17.255-30.431 17.283-4.254-.548-3.57-7.369-.296-9.39 9.47-.874 17.317-7.304 24.532-15.926 2.098-1.282 4.96-.715 6.613 1.313 1.72 2.114 1.535 5.077-.418 6.72"/>
        <path fill="#EFA37E" d="M258.828 236.97c-.66 2.224-3.043 3.512-5.295 2.861l-5.46-1.573c-2.253-.65-3.562-3.003-2.902-5.227.66-2.225 3.043-3.513 5.301-2.862l5.455 1.573c2.259.65 3.561 3.003 2.901 5.228"/>
        <path fill="#6F389F" d="M131.157 47.578l-20.705-13.083c-1.774-1.121-2.819-4.13-2.333-6.719l4.632-24.696c.486-2.589 2.318-3.78 4.092-2.658l20.705 13.083c1.774 1.122 2.819 4.13 2.333 6.719l-4.632 24.696c-.485 2.59-2.318 3.78-4.092 2.658"/>
        <path fill="#FFFFFE" d="M116.064 28L112 17.705 119.152 14 120 16.201 115.287 18.643 118.48 26.729 116.064 28M126.855 34L126 31.81 130.684 29.417 127.422 21.264 129.858 20 134 30.349 126.855 34M121.37 33L119 32.343 126.63 16 129 16.657 121.37 33"/>
        <path fill="#301349" d="M373.314 170.532l-115.253-66.424c-2.175-1.254-3.487-4.64-2.935-7.562l14.62-77.056c.553-2.923 2.768-4.276 4.943-3.022l115.248 66.424c2.18 1.254 3.493 4.639 2.935 7.562l-14.615 77.057c-.558 2.922-2.768 4.275-4.943 3.021"/>
        <path fill="#6F389F" d="M379.301 99.658l-103.07-59.57c-1.584-.917-2.543-3.395-2.138-5.534.404-2.139 2.017-3.13 3.606-2.212l103.07 59.57c1.584.917 2.543 3.395 2.138 5.534-.404 2.139-2.017 3.13-3.606 2.212"/>
        <path fill="#6F389F" d="M376.068 112.728l-40.296-23.307c-1.257-.728-2.022-2.695-1.697-4.393.318-1.699 1.599-2.485 2.856-1.756l40.296 23.307c1.263.728 2.023 2.695 1.698 4.393-.319 1.699-1.6 2.485-2.857 1.756M315.068 77.728l-40.296-23.306c-1.257-.729-2.022-2.696-1.697-4.394.318-1.698 1.599-2.485 2.862-1.756l40.29 23.306c1.263.729 2.023 2.696 1.698 4.395-.319 1.697-1.6 2.484-2.857 1.755" opacity=".6"/>
        <path fill="#FFF" d="M375.836 128L331 102.132 332.159 96 377 121.868 375.836 128M314.836 93L270 67.132 271.159 61 316 86.868 314.836 93M372.841 142L328 116.132 329.159 110 374 135.868 372.841 142M312.841 107L268 81.132 269.159 75 314 100.868 312.841 107" opacity=".093"/>
        <path fill="#A5CBDB" d="M283.821 105L265 94.206 266.185 88 285 98.794 283.821 105"/>
        <path fill="#FFF" fill-opacity=".09" d="M344.821 140L326 129.206 327.185 123 346 133.794 344.821 140"/>
        <path fill="#A4A4B0" d="M329.714 175c-.487 0-.962-.109-1.374-.347l-4.129-2.382.006.043-55.173-31.823.023-.022-7.043-4.063c-1.592-.917-2.32-2.584-1.913-4.387L265.28 109 338 150.939l-4.85 21.578c-.327 1.448-1.936 2.483-3.436 2.483"/>
        <path fill="#FFF" d="M337.687 150L265 107.998l2.908-12.96 15.86 9.164 1.145-6.07-15.666-9.055.52-2.322c.362-1.606 2.147-2.755 3.807-2.755.19 0 .372.015.555.045l38.167 22.055.034-.197 16.239 9.385-.035.196 13.486 7.792c.841.923 1.173 2.176.87 3.506l-.962 4.297-14.733-8.514-1.15 6.069 14.55 8.406-2.908 12.96" opacity=".085"/>
        <path fill="#6B839C" d="M342 124l-14-7.804.036-.196 12.93 7.206c.398.222.743.49 1.034.794M311.966 106L274 84c.336.056.666.168.962.34L312 105.804l-.034.196M283.856 105L268 95.911 269.339 90 285 98.981 283.856 105"/>
        <path fill="#FFF" d="M340.657 138L326 129.289 327.159 123 342 131.823 340.657 138" opacity=".093"/>
        <path fill="#E8D6F7" d="M318.898 175.648l-66.864-38.687c-1.599-.928-2.332-2.614-1.922-4.438l10.017-44.74c.48-2.149 3.487-3.487 5.375-2.393l66.5 38.478c1.57.908 2.286 2.558 1.888 4.342l-10.144 45.279c-.433 1.94-3.147 3.146-4.85 2.16"/>
        <path fill="#6F389F" d="M260 140.94l12.473-9.57c2.945-2.26 7.095-1.63 7.906 1.2l5.383 18.792 14.185-13.475c2.974-2.823 7.85-2.22 8.477 1.048L315 173l-55-32.06M283.82 112.448c-.69 3.024-3.182 4.38-5.573 3.029-2.385-1.353-3.758-4.9-3.069-7.925.695-3.024 3.188-4.38 5.578-3.029 2.385 1.353 3.759 4.9 3.063 7.925"/>
    </g>
</svg>
