<svg xmlns="http://www.w3.org/2000/svg" width="24" height="24" viewBox="0 0 24 24">
    <g fill="none" fill-rule="evenodd">
        <g fill="#FFF">
            <g transform="translate(-110 -787) translate(110 787)">
                <circle cx="12" cy="12" r="12" opacity=".2"/>
                <path d="M9.672 8.287l2.77 2.77 2.771-2.77c.383-.383 1.003-.383 1.385 0 .383.382.383 1.003 0 1.385l-2.77 2.77 2.77 2.771c.383.383.383 1.003 0 1.385-.382.383-1.002.383-1.385 0l-2.771-2.77-2.77 2.77c-.382.383-1.003.383-1.385 0-.383-.382-.383-1.002 0-1.385l2.77-2.771-2.77-2.77c-.383-.382-.383-1.003 0-1.385.382-.383 1.003-.383 1.385 0z"/>
            </g>
        </g>
    </g>
</svg>
