<svg xmlns="http://www.w3.org/2000/svg" xmlns:xlink="http://www.w3.org/1999/xlink" width="657" height="473" viewBox="0 0 657 473">
    <defs>
        <path id="tiprzq6xta" d="M0.057 0L657 0 657 473 0.057 473z"/>
        <path id="4x7drynswc" d="M12.578 15.191L1.059 5.884 0.209 0.803 18.762 8.277 13.597 17.329 12.578 15.191"/>
        <path id="yeid4thm6f" d="M86.377.047c27.743 0 25.862 61.123 22.948 90.324-.878 8.808-9.055 15.127-17.897 13.718C50.66 97.593.858 69.182.858 69.182l3.564-8.551L76.71 74.715S50.744.047 86.377.047"/>
        <path id="xasx1071dh" d="M8.648 16.98L27.436 16.98 27.436 15.629 9.482 15.629 1.506 0.794 0.284 1.423 8.648 16.98"/>
        <linearGradient id="z0k4djn9zd" x1="0%" x2="100.001%" y1="50%" y2="50%">
            <stop offset="0%" stop-color="#D4EBDE"/>
            <stop offset="100%" stop-color="#B0DCDF"/>
        </linearGradient>
        <linearGradient id="8w6ia27rli" x1="100%" x2=".001%" y1="50%" y2="50%">
            <stop offset="0%" stop-color="#D4EBDE"/>
            <stop offset="100%" stop-color="#B0DCDF"/>
        </linearGradient>
    </defs>
    <g fill="none" fill-rule="evenodd">
        <mask id="79pja03w8b" fill="#fff">
            <use xlink:href="#tiprzq6xta"/>
        </mask>
        <path fill="#FFFFFE" d="M0.057 473L657 473 657 0 0.057 0z" mask="url(#79pja03w8b)"/>
        <path fill="#000" d="M174 222.793S156.15 149.82 102.13 142c-45.916 82.654 34.765 128 34.765 128L174 222.793"/>
        <path fill="#FFF" d="M102.292 142c-.161.287-.315.572-.473.858l41.933 77.777L90 208.482c.137.598.28 1.193.43 1.784l54.357 12.29 12.1 22.444 1.113-1.403-24.121-44.74 14.962-28.224c-.373-.464-.748-.926-1.13-1.385l-14.772 27.866-29.623-54.946c-.343-.055-.68-.119-1.024-.168"/>
        <path fill="#dc143c" d="M148.973 219.479s-59.51-45.08-107.65-23.747C35.7 258.21 105.223 275 105.223 275L170 265.02l-21.027-45.541"/>
        <path fill="#FFF" d="M100.227 194l2.68 33.058-59.713-32.63c-.38.163-.762.317-1.141.488-.022.248-.033.49-.053.736l31.981 17.476-28.845 10.57c.092.278.192.55.289.825l.264.726L75.9 214.177l53.297 29.123-50.037 20.173c.6.36 1.198.713 1.79 1.053l50.116-20.205L168.912 265l1.088-.17-.672-1.478-64.697-35.353-2.714-33.468c-.56-.18-1.125-.357-1.69-.531"/>
        <path fill="#000" d="M149.097 255.025S86.607 252.768 70 291.183c49.095 70.023 142 12.774 142 12.774l-62.903-48.932"/>
        <path fill="#FFFFFE" d="M70 291.508c.19.27.382.532.574.798l85.076-3.436-27.43 36.963c.645.062 1.29.117 1.933.167l27.618-37.216L191 287.44l-2.02-1.561-64.696 2.613L98.248 265c-.544.245-1.086.497-1.626.755l25.306 22.833-51.543 2.082c-.128.279-.262.553-.385.836v.002"/>
        <path fill="#F0AB85" d="M547.602 318.133c-.085-.23-.462-.999-1.957-2.047-1.34-.94-4.763-2.154-3.28-3.086 1.834.132 4.005.09 4.005.09 1.1.179 2.39 1.421 3.031 2.334l1.599 3.019s-.736 1.481-.757 1.557l-.765-.131c-.525-.67-1.163-1.25-1.876-1.736"/>
        <path fill="#F0AB85" d="M547.223 318.582s-.003-.11-.045-.3c.224.05.447.086.67.114.71.51 1.437.993 2.152 1.493-.303.441-.73 1.061-.753 1.111L544 318.815s-.058-.842 1.108-.814c1.163.027 2.115.581 2.115.581"/>
        <g transform="translate(547 315)">
            <mask id="uwk322r69e" fill="#fff">
                <use xlink:href="#4x7drynswc"/>
            </mask>
            <path fill="url(#z0k4djn9zd)" d="M12.578 15.191L1.059 5.884 0.209 0.803 18.762 8.277 13.597 17.329 12.578 15.191" mask="url(#uwk322r69e)"/>
        </g>
        <path fill="#F0AB85" d="M544.09 316c-.03 0-.06.005-.09.005.728.656.954 1.127 1.012 1.292.303.214.59.45.857.703.03-.25.078-.494.131-.733-.694-.339-1.333-.768-1.91-1.267"/>
        <path fill="#F0AB85" d="M544.575 316.299c-.354-.126-.92-.286-1.56-.299-1.067-.02-1.015.633-1.015.633l3.872 1.367c.03-.263.075-.521.128-.774-.505-.261-.982-.572-1.425-.927"/>
        <path fill="#CA2C0A" d="M530.917 210.74c-10.268 16.38-31.867 21.334-48.247 11.068-16.379-10.266-21.334-31.866-11.069-48.245 10.268-16.38 31.868-21.336 48.246-11.07 16.38 10.267 21.335 31.869 11.07 48.248zm6.056-106.807c-2.084.205-7.691 5.935-12.579 13.433-7.37-2.285-14.936-3.43-22.464-3.487-1.449-7.692-3.783-15.652-7.356-17.148-7.254-3.035-27.38 4.193-29.495 6.767-1.354 1.647-1.237 9.93.709 18.872-6.649 3.372-12.863 7.71-18.404 12.973-6.477-4.427-13.785-8.43-17.38-6.957-7.275 2.983-16.395 22.325-16.07 25.641.203 2.077 5.898 7.655 13.36 12.531-2.572 7.41-3.968 15.047-4.246 22.67-7.425 1.46-14.874 3.753-16.316 7.199-3.036 7.253 4.192 27.38 6.766 29.494 1.532 1.26 8.803 1.247 17.006-.325 3.408 7.23 7.935 13.988 13.534 19.978-3.865 5.938-6.979 12.185-5.651 15.421 2.982 7.275 22.324 16.395 25.639 16.07 1.868-.182 6.566-4.803 11.038-11.157 8.054 2.869 16.387 4.356 24.683 4.508 1.466 6.54 3.617 12.57 6.68 13.853 7.252 3.035 27.378-4.193 29.494-6.767 1.163-1.416 1.239-7.741.002-15.17 7.523-3.707 14.494-8.659 20.603-14.76 5.644 3.572 11.406 6.297 14.468 5.042 7.275-2.983 16.396-22.325 16.071-25.641-.183-1.872-4.826-6.588-11.205-11.07 2.558-8.011 3.738-16.265 3.657-24.453 6.877-1.467 13.411-3.673 14.752-6.877 3.035-7.253-4.194-27.38-6.768-29.495-1.54-1.264-8.875-1.245-17.128.35-3.659-6.903-8.378-13.308-14.103-18.953 4.174-6.24 7.748-13.043 6.343-16.47-2.982-7.276-22.324-16.396-25.64-16.072z" opacity=".136"/>
        <path fill="#FFFFFE" d="M453.905 179.166c-1.855 7.349-1.956 15.084-.211 22.688 2.898 12.635 10.544 23.384 21.529 30.27 10.986 6.885 23.994 9.08 36.629 6.182 12.637-2.9 23.387-10.546 30.273-21.53 6.884-10.986 9.079-23.993 6.18-36.63-2.897-12.635-10.544-23.386-21.53-30.27-10.984-6.884-23.993-9.08-36.628-6.182-12.636 2.9-23.386 10.544-30.272 21.529-2.743 4.377-4.742 9.075-5.97 13.943zm95.594 24.02c-1.265 5.013-3.323 9.85-6.148 14.357-7.09 11.313-18.163 19.188-31.175 22.173-13.012 2.986-26.408.724-37.721-6.366-11.312-7.091-19.186-18.161-22.171-31.174-2.985-13.012-.725-26.41 6.365-37.72 7.091-11.312 18.161-19.186 31.175-22.172 13.012-2.986 26.409-.724 37.72 6.367 11.313 7.089 19.187 18.16 22.173 31.172 1.795 7.827 1.692 15.795-.218 23.363z"/>
        <path fill="#FFFFFE" d="M525.965 123c-.208.26-.418.516-.638.766 4.837 1.717 9.565 3.966 14.09 6.8 33.546 21.008 43.732 65.367 22.706 98.885-13.768 21.947-37.555 33.882-61.755 33.613 0 .003 0 .005-.002.008-.11.31-.234.616-.366.919 24.637.393 48.9-11.706 62.914-34.046 21.3-33.952 10.98-78.888-23.002-100.169-4.483-2.807-9.161-5.05-13.947-6.776M430.355 198c-1.602-15.22 1.88-31.032 11.086-44.965.18-.273.375-.53.559-.801-.338-.066-.673-.15-1.009-.234-.123.184-.257.357-.379.542-9.287 14.056-12.825 30-11.25 45.359.33.025.663.06.993.099"/>
        <path fill="#CA2C0A" d="M500.174 289.211S488.223 206.807 540.588 176c81.622 65.445 17.405 146 17.405 146l-57.82-32.789"/>
        <g>
            <path fill="#FFFFFE" d="M36.781.544c.286.23.562.458.844.686L27.092 98.934l50.143-35.07c.11.675.21 1.348.306 2.018l-50.71 35.466-3.038 28.195-1.731-.979 6.06-56.204h-.001L.936 49.567c.188-.633.38-1.268.58-1.9L28.358 70.17l7.44-69.024c.329-.2.648-.407.983-.603" transform="translate(505 174)"/>
            <path fill="#000" d="M12.692 115.186s41.73-86.314 108.137-85.367c32.146 62.571-32.02 109.117-32.02 109.117l-70.61 16.739-5.507-40.489" transform="translate(505 174)"/>
        </g>
        <path fill="#FFF" d="M565.062 227.587l11.015 35.206L623.727 204c.458.007.914.005 1.374.02.125.248.237.491.36.738l-25.52 31.488 33.982-1.254c.02.324.03.646.046.97l.031.86-35.591 1.315-42.53 52.476 59.709-.284c-.465.622-.93 1.238-1.397 1.84l-59.803.285-30.2 37.262L523 330l.075-1.807 51.627-63.703-11.15-35.645c.498-.421 1.003-.84 1.51-1.258"/>
        <path fill="#dc143c" d="M527.955 311.298s73.962-28.034 107.045 4.218c-20.937 91.57-140 71.654-140 71.654l32.955-75.872"/>
        <path fill="#FFF" d="M635 314.562c-.08.356-.168.706-.251 1.06l-88.13 31.744 43.456 26.66c-.63.332-1.265.656-1.9.974l-43.754-26.842-34.421 12.4 1.403-2.445 67.018-24.142L595.096 299c.658.027 1.316.062 1.972.102l-16.205 33.99 53.393-19.233c.246.235.499.46.744.701v.002"/>
        <path fill="#FAD473" d="M496.485 357.672c-13.532 5.614-29.086-.727-34.74-14.162-5.655-13.434.732-28.876 14.264-34.49 13.533-5.613 29.086.726 34.74 14.162 5.654 13.435-.732 28.877-14.264 34.49zm50.513-63.071c-1.38-.78-7.363.308-13.674 2.796-3.566-4.61-7.754-8.603-12.393-11.91 2.47-5.362 4.508-11.273 2.95-13.746-3.166-5.02-18.802-9.321-21.239-8.657-1.56.424-5.114 5.57-7.823 11.918-5.596-.817-11.345-.849-17.084-.02-2.074-5.538-4.85-11.178-7.722-11.833-5.813-1.328-19.932 6.607-21.184 8.788-.783 1.366.303 7.273 2.792 13.516-4.837 3.44-9.047 7.53-12.556 12.1-5.238-2.329-10.86-4.157-13.261-2.664-5.056 3.143-9.39 18.666-8.72 21.085.398 1.44 4.907 4.594 10.68 7.192-1.054 5.929-1.208 12.053-.36 18.173-4.996 1.973-9.66 4.462-10.254 7.03-1.338 5.771 6.655 19.79 8.85 21.031 1.238.7 6.172-.102 11.725-2.066 3.735 5.265 8.247 9.802 13.32 13.502-1.953 4.658-3.262 9.304-1.926 11.424 3.166 5.02 18.801 9.321 21.239 8.657 1.341-.366 4.157-4.223 6.642-9.33 6.284.989 12.771.973 19.228-.126 1.933 4.652 4.31 8.832 6.758 9.39 5.813 1.328 19.934-6.607 21.184-8.787.706-1.231-.107-6.151-2.096-11.68 5.091-3.817 9.437-8.381 12.97-13.454 4.905 2.087 9.919 3.57 12.152 2.182 5.057-3.143 9.389-18.666 8.72-21.086-.401-1.447-4.955-4.624-10.766-7.23.754-5.836.635-11.828-.44-17.788 5.317-2.024 10.51-4.657 11.14-7.375 1.337-5.773-6.655-19.791-8.852-21.032z" opacity=".964"/>
        <path fill="#FFFFFE" d="M472.737 298.866c-18.821 7.865-27.736 29.576-19.871 48.397 7.865 18.821 29.575 27.736 48.396 19.871 18.822-7.864 27.737-29.575 19.872-48.397-7.864-18.821-29.575-27.736-48.397-19.871zm28.913 69.196c-19.334 8.078-41.633-1.078-49.713-20.412-8.077-19.333 1.079-41.633 20.412-49.712 19.335-8.079 41.634 1.078 49.714 20.412 8.077 19.333-1.079 41.635-20.413 49.712z"/>
        <path fill="#FFFFFE" d="M532.151 303c-.24.07-.48.135-.723.194 2.223 3.155 4.15 6.587 5.697 10.294 11.474 27.472-1.53 59.158-28.99 70.636-17.982 7.517-37.767 4.531-52.507-6.136l-.005.004c-.203.142-.411.278-.623.406 14.955 10.933 35.103 14.024 53.405 6.374 27.817-11.627 40.991-43.727 29.368-71.554-1.533-3.671-3.432-7.08-5.622-10.218M439.552 308c5.842-10.48 15-19.148 26.754-24.14.23-.097.462-.18.694-.274-.175-.188-.338-.388-.502-.586-.156.065-.313.12-.468.185-11.859 5.037-21.11 13.766-27.03 24.323.188.16.372.324.552.492"/>
        <path fill="#CA2C0A" d="M260.67 324.04c-27.259-8.956-42.096-38.318-33.138-65.577 8.958-27.26 38.319-42.097 65.58-33.14 27.26 8.96 42.096 38.32 33.138 65.58-8.959 27.26-38.32 42.096-65.58 33.138zm156.066-29.323c-1.036-2.93-11.292-8.969-23.836-13.34.667-11.434-.38-22.746-2.98-33.614 10.568-4.828 21.208-11.027 22.09-16.71 1.79-11.533-15.797-37.96-20.26-40.091-2.856-1.363-14.748 1.757-26.942 7.744-7.227-8.377-15.692-15.787-25.251-21.898 4.072-10.91 7.238-22.866 3.833-27.52-6.889-9.421-38.011-15.673-42.673-14.024-2.921 1.033-8.93 11.227-13.3 23.716-11.592-1.064-23.095-.356-34.18 1.96-4.747-10.18-10.705-20.099-16.184-20.949-11.533-1.79-37.96 15.797-40.091 20.258-1.268 2.657 1.338 13.13 6.526 24.39-9.204 7.488-17.327 16.419-23.964 26.62-9.936-3.451-20.046-5.714-24.237-2.65-9.42 6.89-15.672 38.013-14.023 42.674.929 2.626 9.26 7.748 20.01 11.93-1.264 12.628-.437 25.165 2.3 37.175-8.902 4.44-16.827 9.689-17.583 14.559-1.79 11.533 15.796 37.96 20.26 40.091 2.455 1.172 11.595-.972 21.86-5.402 8.021 9.52 17.64 17.803 28.61 24.43-3.137 9.407-5.011 18.68-2.11 22.647 6.889 9.42 38.01 15.672 42.672 14.023 2.633-.931 7.774-9.302 11.962-20.09 12.453.83 24.767-.409 36.538-3.443 4.564 9.388 10.072 18.016 15.164 18.807 11.534 1.789 37.96-15.798 40.091-20.26 1.275-2.669-1.366-13.232-6.604-24.557 8.642-7.731 16.19-16.814 22.286-27.074 10.479 3.791 21.555 6.517 25.993 3.272 9.421-6.89 15.672-38.012 14.023-42.674z" opacity=".501"/>
        <path fill="#FFFFFE" d="M299.773 203.703c-38.21-12.557-79.514 8.313-92.07 46.524-12.558 38.211 8.314 79.513 46.525 92.07 38.21 12.558 79.513-8.313 92.07-46.524 12.556-38.212-8.314-79.513-46.525-92.07zM253.9 343.295c-38.76-12.737-59.932-54.634-47.194-93.396 12.738-38.76 54.634-59.932 93.395-47.194 38.762 12.738 59.933 54.635 47.195 93.396-12.737 38.76-54.635 59.932-93.396 47.194z"/>
        <path fill="#FFFFFE" d="M384 285.644c-.448-.205-.892-.418-1.329-.644-.752 7.55-2.305 15.13-4.773 22.63-18.296 55.584-78.477 85.944-134.152 67.678-36.454-11.96-62.072-41.849-70.284-76.663h-.011c-.486-.05-.97-.118-1.451-.199 8.186 35.485 34.208 65.998 71.315 78.172 56.399 18.504 117.36-12.251 135.894-68.558 2.445-7.43 4.008-14.937 4.791-22.416M241.194 174c21.365-7.066 45.301-7.876 68.465-.803.454.138.89.301 1.341.444-.019-.451-.01-.904-.004-1.357-.306-.097-.6-.208-.908-.302-23.367-7.135-47.512-6.352-69.088.724.075.43.139.862.194 1.294"/>
        <path fill="#F5A623" d="M390.357 92l14.34-.08s-1.092-4.5-.682-7.956c.154-1.305.922-2.46 2.003-3.158 14.055-9.066 10.609-19.421 10.609-19.421s-1.53-13.149-19.595-14.322c-19.26-1.25-18.015 16.4-18.015 16.4s-.828 9.829 9.198 16.443c1.435.946 2.345 2.543 2.56 4.285.542 4.376-.418 7.809-.418 7.809"/>
        <path fill="#000" d="M404.97 91l.03 5.314c.01 1.992-1.295 3.63-2.901 3.638l-9.13.048c-1.605.01-2.93-1.613-2.94-3.605L390 91.08l14.97-.08M401 100L400.103 101.975 395.105 102 394 100.034 401 100"/>
        <path fill="#FAD473" d="M403.605 67.504c-1.149 1.685-2.985 2.167-4.889 2.017l-.018-3.2c-.004-.596.229-1.169.658-1.588.767-.75 2.134-1.543 3.832-.71 1.07.647 1.197 2.336.417 3.481zm-9.213 1.06c-1.442-.462-3.483-1.409-3.68-2.817-.049-.344.105-.698.366-.93 2.518-2.236 3.28 1.77 3.268 2.272.054.486.052.98.046 1.475zm10.086-.893c2.25-4.166-3.35-6.197-5.979-3.339-.475.518-.687 1.218-.696 1.915-.019 1.234.01 3.156.01 3.156-.794-.13-1.677-.331-2.348-.52.027-1.192.007-2.423-.35-3.446-1.582-4.547-7.523-.995-4.036 2.242.816.758 2.016 1.323 3.31 1.728.102 7.197.203 14.396.306 21.593l1.02-.006-.187-13.271-.099-6.888c-.005-.36.005-.743.016-1.136.763.181 1.525.309 2.253.385l.115 20.9 1.022-.006-.116-20.819c.207.008.419.02.61.018 1.943-.014 4.18-.713 5.15-2.506z"/>
        <path fill="#FACB57" d="M380.776 43.767c.301-.308.298-.802-.006-1.107l-7.448-7.434c-.305-.304-.796-.301-1.097.006-.302.308-.3.803.007 1.108l7.447 7.434c.304.303.795.301 1.097-.007M413.233 43.776c-.308-.303-.311-.792-.006-1.098l7.433-7.447c.304-.306.8-.308 1.107-.007.309.302.31.793.006 1.098l-7.433 7.447c-.304.305-.8.308-1.107.007M399.04 41c.534-.002.962-.35.96-.778l-.071-10.452c-.002-.427-.438-.772-.97-.77-.533.003-.963.351-.959.779l.07 10.451c.002.428.436.773.97.77"/>
        <path fill="#21837F" d="M220.144 391L170 222 172.856 222 223 391 220.144 391M193.144 391L143 222 145.855 222 196 391 193.144 391"/>
        <path fill="#21837F" d="M186 266.013L186 268 158.47 267.987 158 266 186 266.013M180 249.013L180 251 152.471 250.987 152 249 180 249.013M175 233.013L175 235 147.47 234.987 147 233 175 233.013M163 282L191 282.013 191 284 163.47 283.988 163 282M195 299.013L195 301 167.471 300.987 167 299 195 299.013M199.887 316.012L201 318 173.47 317.987 173 316 199.887 316.012M204.887 334.012L206 336 178.47 335.987 178 334 204.887 334.012M209.887 351.013L211 353 183.47 352.988 183 351 209.887 351.013M213.887 369.013L215 371 187.471 370.987 187 369 213.887 369.013"/>
        <path fill="#21837F" d="M235 432L207.87 340 205 340 232.129 432 235 432M209 432L181.87 340 179 340 206.13 432 209 432"/>
        <path fill="#21837F" d="M221 385.013L221 387 193.47 386.987 193 385 221 385.013M198 402L226 402.013 226 404 198.47 403.987 198 402M231 418.012L231 420 203.471 419.987 203 418 231 418.012"/>
        <path fill="#13374D" d="M93.856 391L144 222 141.144 222 91 391 93.856 391M119.856 391L170 222 167.144 222 117 391 119.856 391"/>
        <path fill="#13374D" d="M128 266.013L128 268 155.53 267.987 156 266 128 266.013M134 249.013L134 251 161.53 250.987 162 249 134 249.013M139 233.013L139 235 166.529 234.987 167 233 139 233.013M124 282.013L124 284 151.53 283.988 152 282 124 282.013M118 299.013L118 301 145.53 300.987 146 299 118 299.013M114.113 316.012L113 318 140.529 317.987 141 316 114.113 316.012M109.112 334.012L108 336 135.53 335.987 136 334 109.112 334.012M104.113 351.013L103 353 130.529 352.988 131 351 104.113 351.013M100.113 369.013L99 371 126.53 370.987 127 369 100.113 369.013"/>
        <path fill="#13374D" d="M81.942 431L109 343 106.059 343 79 431 81.942 431M106.942 431L134 343 131.058 343 104 431 106.942 431"/>
        <path fill="#13374D" d="M92 387.013L92 389 119.529 388.987 120 387 92 387.013M87 404.012L87 406 114.529 405.987 115 404 87 404.012M82 421.013L82 423 109.53 422.987 110 421 82 421.013"/>
        <path fill="#EC967C" d="M567 318.947L567.373 324.754 572 325 570.135 316 567 318.947"/>
        <path fill="#F0AB85" d="M564.612 320.997c-.727-.02-1.4-.128-1.751-.413-2.095-3.026.292-11.183.292-11.183L566.5 308l4.254 2.636.242 5.466c.064 1.459-.641 2.86-1.899 3.771-1.349.752-2.904 1.168-4.485 1.124"/>
        <path fill="#1B2441" d="M569.717 313.946c-.225-.86-.108-2.846-1.01-2.703-.658.106-2.915.195-3.673.195-1.809 0-5.034-.686-5.034-3.358 0-1.336 1.335-2.488 2.18-2.83.83-.336 1.768-.32 2.617-.032 1.991.676 4.634 2.167 5.687 1.962 1.772-.347 3.54.662 3.516 2.124-.026 1.561-.866 3.91-1.658 5.402-.456.863-1.069 1.638-1.806 2.294l-.819-3.054"/>
        <path fill="#F0AB85" d="M571.795 313.223c-.335-.348-.963-.282-1.402.147-.439.43-.523 1.06-.188 1.407.335.348.963.281 1.402-.148.439-.429.523-1.058.188-1.406"/>
        <path fill="#F5A623" d="M569.023 322.114c11.915-2.53 9.838 37.886 9.838 37.886h-18.847s-.27-7.036-.96-15.958c-.583-7.567 3.56-16.112 9.97-21.928"/>
        <path fill="#1B2441" d="M563.79 427s-2.033 1.618-6.669 2.63c-1.02.224-2.121-.075-2.121 1.37h5.625l4.68-.694V431h2.527s.704-3.546-.772-4h-3.27"/>
        <path fill="#F0AB85" d="M563.225 424l-.225 2.561c.73.551 1.687.586 2.448.09l.137-.09L566 424h-2.775"/>
        <path fill="#1B2441" d="M581.79 423s-2.033 1.618-6.669 2.631c-1.021.223-2.121-.075-2.121 1.369h5.626l4.68-.694V427h2.526s.704-3.545-.772-4h-3.27"/>
        <path fill="#F0AB85" d="M582.225 421l-.225 2.56c.73.552 1.687.587 2.448.09l.137-.09L585 421h-2.775"/>
        <path fill="#1B2441" d="M578.998 360s-1.527 8.322-.161 25.55c.241 3.043.91 6.033 1.989 8.877C584.496 404.117 585 422 585 422h-4.2L566 378.413 578.998 360"/>
        <path fill="#13374D" d="M560 360l2.763 65h3.744s4.198-15.153 3.883-27.101c-.099-3.784.531-7.555 1.917-11.067C578.017 372.365 579 360 579 360h-19"/>
        <path fill="#FFFFFE" d="M567 324L567 321.638 571.4 320 573 321.816 567 324"/>
        <path fill="#F3B689" d="M535.203 334.007c-.288-.024-1.269-.188-2.84-1.297-1.412-.995-3.64-3.803-4.363-2.253.595 1.622 1.068 3.588 1.068 3.588.471.952 2.22 1.83 3.43 2.2l3.88.755s1.539-1.002 1.622-1.037l-.337-.66c-.901-.32-1.726-.764-2.46-1.296"/>
        <path fill="#F0AB85" d="M533.88 335.386s-.079.02-.223.014c.08.222.148.446.21.67.502.635.988 1.288 1.483 1.93.258-.405.619-.972.65-1.006L533.426 332s-.612.11-.37 1.31c.244 1.203.824 2.076.824 2.076"/>
        <path fill="#F5A623" d="M572 334.716s-3.307 12.092-12.276 13.206C550.756 349.036 536 337.898 536 337.898l1.621-3.182 15.568 4.277c2.37.652 4.886-.393 6.061-2.515l4.688-8.478 8.062 6.716"/>
        <path fill="#EE9E35" d="M572.519 335c-.034.123-3.451 12.316-12.362 13.429-8.311 1.039-21.768-8.557-23.835-10.076-.104.129-.21.256-.322.38 1.99 1.475 14.206 10.267 22.825 10.267.476 0 .943-.027 1.395-.083 9.243-1.155 12.746-13.663 12.78-13.79l-.481-.127"/>
        <path fill="#F3B689" d="M536 336.748L533.45 332s-.646.112-.39 1.327c.257 1.217.868 2.101.868 2.101s-.083.02-.235.015c.084.224.156.45.222.678.509.619 1.003 1.254 1.506 1.879.168-.436.362-.854.579-1.252"/>
        <path fill="#F0AB85" d="M273.636 64L286 81.551 281.749 83 270 74.465 270.532 68.53 273.636 64"/>
        <path fill="#FAD473" d="M271.023 56.014C276.858 60.09 272.317 95 272.317 95L248 92.468s2.786-37.291 23.023-36.454"/>
        <path fill="#EC967C" d="M268 55.018L270.166 52 274 53.9l-1.304 4.052c-.036.019-.075.034-.115.048-1.248-1.303-2.841-2.342-4.581-2.982"/>
        <path fill="#F0AB85" d="M271.097 45L270 51.415c.6.123.8.886.555 1.451.03.159.03.328-.003.491.858 1.04 2.509 2.529 5.036 2.64 3.952.172 3.384-8.15 3.384-8.15L271.097 45"/>
        <path fill="#1B2441" d="M268.192 48.012c.073-.45-.304-1.537-.568-1.909-1.698-2.392.522-3.307 1.3-3.59.86-.31 1.032-1.73 2.177-2.272 1.75-.828 2.893.738 3.88.785.988.048 1.871-1.096 3.092-.087 1.219 1.011.814 2.078 1.148 2.65.335.57 1.44-.522 2.446 1.269 1.528 2.725-2.696 2.722-2.696 2.722s-2.404.402-5.039-1.456c-.362-.254-.854-.28-1.188.013-.914.801-2.085 5.863-2.085 5.863l-.78-1.053s-2.028-.864-1.687-2.935"/>
        <path fill="#F0AB85" d="M270.013 49.158c.087.545.6.917 1.145.83.545-.087.916-.6.83-1.146-.088-.545-.6-.917-1.146-.83-.545.088-.917.6-.83 1.146"/>
        <path fill="#1B2441" d="M229 131.21s-1.618 2.033-2.63 6.669c-.224 1.02.074 2.121-1.37 2.121v-5.626l.693-4.68H225v-2.526s3.545-.704 4 .772v3.27"/>
        <path fill="#F0AB85" d="M231 130.504l-2.561.496c-.55-.921-.586-2.131-.09-3.093l.09-.174L231 127v3.504"/>
        <path fill="#1B2441" d="M265.582 152.994s.014 2.976 6.305 4.762c1.291.366.871.73 1.113 1.244h-7.24l-2.834-3.027-.882.72-2.044-1.909s.954-2.76 2.51-2.784l3.072.994"/>
        <path fill="#F0AB85" d="M268 149.14l-1.108 2.75c-1.008.31-2.092-.045-2.77-.907l-.122-.154.895-2.829 3.105 1.14"/>
        <path fill="#1B2441" d="M250.331 98s.26 9.09 3.647 17.023c1.045 2.445-.332 5.246-2.873 5.794-12.211 2.632-19.105 6.86-19.105 6.86V132l28.489-4.012c4.574-.645 8.126-4.424 8.601-9.15l.91-9.07L250.331 98"/>
        <path fill="#13374D" d="M270.816 97S281 115.727 281 121.537c0 5.808-13.707 28.463-13.707 28.463h-3.922s.696-14.355 3.348-26.258c.52-2.335-.218-4.778-1.996-6.413C256.391 109.665 249 97 249 97h21.816"/>
        <path fill="#F5A623" d="M243 93.223l5.895 13.09s3.6-2.747 6.87-3.715c1.237-.366 2.586-.112 3.652.606 13.853 9.339 21.758 2.162 21.758 2.162s11.192-6.508 4.912-23.494c-6.698-18.11-22.051-10.113-22.051-10.113s-9.167 3.061-11.04 14.805c-.267 1.68-1.332 3.134-2.81 4.009-3.711 2.196-7.186 2.65-7.186 2.65"/>
        <path fill="#000" d="M250 106.474l-4.779 2.148c-1.791.805-3.776.281-4.411-1.165l-3.612-8.215c-.635-1.446.31-3.289 2.1-4.093L244.078 93 250 106.474M240 105.949L237.321 106 235 101.038 236.749 99 240 105.949"/>
        <path fill="#FAD473" d="M270.284 95.956c-2.016-.35-3.193-1.784-3.81-3.525l2.954-1.279c.55-.238 1.172-.259 1.731-.045.998.382 2.275 1.277 2.181 3.107-.173 1.202-1.686 1.981-3.056 1.742zm-4.645-7.725c-.146-1.457-.083-3.635 1.143-4.364.3-.18.686-.184 1.006-.044 3.07 1.344-.334 3.597-.802 3.786-.428.239-.887.432-1.347.622zm4.84 8.563c4.75.346 4.4-5.406.71-6.602-.668-.217-1.4-.126-2.05.14-1.147.47-2.915 1.253-2.915 1.253-.196-.753-.361-1.612-.452-2.28 1.112-.446 2.244-.95 3.048-1.668 3.577-3.192-2.072-7.043-3.68-2.684-.377 1.02-.421 2.304-.282 3.607L245 97.35l.411.9 12.205-5.402 6.334-2.804c.331-.147.69-.29 1.058-.435.135.747.32 1.47.54 2.144l-19.292 8.346.411.901 19.218-8.315c.074.185.148.378.225.547.787 1.71 2.324 3.413 4.368 3.562z"/>
        <path fill="#F0AB85" d="M255.837 67L264 71.89l-5.881 6.534-.84 18.576-3.173-.597s-4.966-14.345-3.975-19.285c.99-4.941 5.706-10.118 5.706-10.118M256 97.666l-.025 4.114c-.004.661-.162 1.305-.46 1.855-.567 1.039-1.57 2.564-2.496 2.344-1.389-.33-3.019-4.237-3.019-4.237L253.192 97l2.808.666"/>
        <path fill="#1B2441" d="M234.752 419s-6.882 6.066-22.573 9.865c-3.454.835-7.179-.281-7.179 5.135h19.042l15.836-2.603V434h8.555s2.381-13.294-2.615-15h-11.066"/>
        <path fill="#F0AB85" d="M235.975 409L235 419.243c3.16 2.205 7.308 2.346 10.607.359l.594-.359L248 409h-12.025"/>
        <path fill="#1B2441" d="M155.753 419s-6.883 6.066-22.574 9.865c-3.455.835-7.179-.281-7.179 5.135h19.042l15.837-2.603V434h8.554s2.381-13.294-2.614-15h-11.066"/>
        <path fill="#F0AB85" d="M158.948 409L155 419.243c3.033 2.205 7.015 2.346 10.183.359l.571-.359L172 409h-13.052"/>
        <path fill="#000" d="M430.188 434L400 331.415 404.395 330 435 434 430.188 434M289 434L319.605 330 324 331.415 293.811 434 289 434"/>
        <path fill="#EC967C" d="M402 156.7L407.216 174 425 167.218 410.838 143 402 156.7"/>
        <path fill="#F0AB85" d="M398.334 161.96c-2.113.802-4.18 1.293-5.54.904-9.711-6.076-12.794-31.95-12.794-31.95l7.92-7.914 15.446 2.42 7.36 15.162c1.965 4.048 1.643 8.838-.866 12.9-2.96 3.718-6.927 6.732-11.526 8.478"/>
        <path fill="#1B2441" d="M405.065 134.667c-1.777-2.355-3.992-8.582-6.493-7.014-1.823 1.146-8.419 4.246-10.678 5.197-5.383 2.266-15.867 4.198-19.316-3.988-1.724-4.093.762-9.294 2.836-11.402 2.035-2.069 4.844-3.193 7.743-3.374 6.8-.424 16.586.837 19.456-1.112 4.828-3.28 11.394-2.403 13.206 2.108 1.936 4.817 2.47 13.065 2.043 18.627-.247 3.218-1.068 6.357-2.415 9.291l-6.382-8.333"/>
        <path fill="#F0AB85" d="M411.344 132.132c-1.643-.524-3.8.56-4.819 2.42-1.017 1.86-.512 3.793 1.132 4.316 1.642.524 3.8-.56 4.818-2.42 1.018-1.86.511-3.793-1.131-4.316"/>
        <path fill="#000" d="M436.969 181L493 207.088s-43.364 124.843-119.442 137.257C297.483 356.76 252.06 321.707 248 319.775 357.203 289.142 436.969 181 436.969 181"/>
        <path fill="#dc143c" d="M436.969 180L493 206.284s-49.451 113.528-125.528 126.035c-76.077 12.509-116.84-10.73-119.472-12.505C361.767 288.186 436.969 180 436.969 180"/>
        <path fill="#000" d="M349.75 266.314l-84.876-1.312c-7.722-.12-14.287 5.584-15.21 13.212L235 412h12.717s30.287-64.044 25.346-97.43C268.123 281.183 391 286.619 391 286.619l-41.25-20.305"/>
        <path fill="#dc143c" d="M425.55 164.455C476.495 216.15 411.256 306 411.256 306L349 265.953c23.568-41.208 25.014-43.764 58.031-99.165 3.928-6.591 13.125-7.806 18.519-2.333"/>
        <path fill="#F0AB85" d="M309.156 237.044c0-1.117.735-2.103 1.81-2.428l10.432-3.147c2.582-.778 5.361-.583 7.807.548l9.468 4.382 1.327.205v9.227c-1.886-.945-2.985-1.522-2.985-1.522l-5.97-2.966s-14.924 9.888-18.573-1.068c-2.653 10.131-5.472 8.65-5.472 8.65l2.156-11.881"/>
        <g transform="translate(334 176)">
            <mask id="lzpr7nsbwg" fill="#fff">
                <use xlink:href="#yeid4thm6f"/>
            </mask>
            <path fill="#000000" d="M86.377.047c27.743 0 25.862 61.123 22.948 90.324-.878 8.808-9.055 15.127-17.897 13.718C50.66 97.593.858 69.182.858 69.182l3.564-8.551L76.71 74.715S50.744.047 86.377.047" mask="url(#lzpr7nsbwg)"/>
        </g>
        <path fill="#CA2C0A" d="M338.066 235.447l71.79 14.04c-1.83-5.553-8.724-27.695-8.804-46.487.522.327 1.054.641 1.593.944.395 20.884 8.956 45.94 9.078 46.295l.432 1.245-73.153-14.307-3.076 7.41c5.71 3.196 52.043 28.642 89.949 34.705 4.04.642 8.063-.365 11.317-2.854 3.293-2.517 5.332-6.165 5.742-10.274.768-7.745 2.102-24.563 1.307-41.597.505.16 1.015.31 1.527.451.766 16.982-.546 33.588-1.312 41.295-.444 4.464-2.75 8.594-6.329 11.327-2.885 2.204-6.316 3.36-9.866 3.36-.871 0-1.75-.069-2.63-.21-40.539-6.484-90.552-34.93-91.052-35.216l-.579-.331 4.066-9.796" opacity=".361"/>
        <path fill="#000" d="M411 306.445s-13.571 29.941-70.667 29.941c-57.095 0-96.08-20.299-96.08-20.299s-16.989 43.136-73.69 95.913H157l57.353-118.758c5.187-10.463 16.12-16.834 27.797-16.198l134.705 7.33L411 306.446"/>
        <path fill="#FFFFFE" d="M416.545 153L404 164.423 404.891 169 423 163.88 416.545 153"/>
        <path fill="#000" d="M428.323 422L430 419.457 317.677 346 316 348.543 428.323 422"/>
        <path fill="#000" d="M294.678 422L293 419.457 405.322 346 407 348.543 294.678 422"/>
        <path fill="#1B2441" d="M164.58 228s1.07 1.46 6.113 2.726c1.11.278 2.307.469 2.307 2.274h-4.979l-5.09-.868V233h-2.748s-.766-4.432.839-5h3.557"/>
        <path fill="#F0AB85" d="M165 225l-.274 3.414c-1.05.736-2.43.782-3.527.12l-.199-.12V225h4"/>
        <path fill="#1B2441" d="M146.58 228s1.07 1.46 6.113 2.726c1.11.278 2.307.469 2.307 2.274h-4.978l-5.09-.868V233h-2.75s-.765-4.432.841-5h3.556"/>
        <path fill="#F0AB85" d="M146 225l-.274 3.414c-1.05.736-2.431.782-3.528.12l-.198-.12V225h4"/>
        <path fill="#1B2441" d="M167.003 164.899c4.493 23.38 0 61.101 0 61.101h-5.53L156 164.899s11.003-4.273 11.003 0"/>
        <path fill="#17324A" d="M165 164s-4.967 21.24-8.47 31.851c-3.502 10.612-9.078 30.149-9.078 30.149H142s7.571-45.606 5.84-62H165"/>
        <path fill="#CA2C0A" d="M164.53 133s5.665 13.288 7.103 13.288c1.15 0-.432-10.851-.432-10.851h4.744s5.966 18.598 1.223 21.997c-4.745 3.398-15.168-9.617-15.168-9.617L164.53 133"/>
        <path fill="#F0AB85" d="M150 166.289l1.52 4.233c.732 1.664 3.421 1.706 5.207 1.178.268-.08.362-.455.175-.686-.98-1.213-3.525-4.32-4.408-5.014l-2.494.289"/>
        <path fill="#CA2C0A" d="M162.099 131.054S165 133.008 165 135.25V165h-17v-27.815s.348-6.185 6.433-6.185 7.666.054 7.666.054"/>
        <path fill="#dc143c" d="M165.202 165L165.202 138 165.798 138.018 165.798 165 165.202 165"/>
        <path fill="#EC967C" d="M157 122v8.141s1.3 1.859 3.65 1.859c2.35 0 2.35-1.763 2.35-1.763v-5.218l-3.478-.943L157 122"/>
        <path fill="#F0AB85" d="M163.388 127.997c.726-.023 1.399-.144 1.751-.464 2.094-3.391-.29-12.533-.29-12.533l-7.603 1.385-.242 6.126c-.065 1.636.641 3.205 1.9 4.225 1.347.843 2.902 1.309 4.484 1.26"/>
        <path fill="#1B2441" d="M161.386 116.382s2.503.46 5.135 0c2.633-.46.948-3.316.948-3.316s-1.948.875-5.41.372c-2.337-.34-2.965-.786-4.463 0-2.035 1.068-1.544 4.691-1.544 4.691l1.124 7.663h.42s.103-4.556.103-6.108c.44-.706.918-.706 1.285-.53.398.192.625.616.625 1.053v7.956s5.146 2.185 6.456 1.789c1.31-.396.435-6.292.435-6.292s-1.511-.644-2.681.645c-1.16 1.279-2.566-.051-2.566-.051l.133-7.872"/>
        <path fill="#F0AB85" d="M176 135l-.156-.896c-.346-1.986-2.147-4.456-3.962-5.104H170l.583 4.236L173.24 135H176M157.818 118.003c.544-.053 1.065.572 1.165 1.399.1.827-.259 1.541-.802 1.595-.543.055-1.064-.571-1.164-1.398-.1-.827.259-1.54.8-1.596"/>
        <path fill="#F0AB85" d="M171.463 133.196L175 135s-2.219-.02-2.255 0L169 132.238s.272-.482 1.12-.074c.85.407 1.343 1.032 1.343 1.032"/>
        <path fill="#CA2C0A" d="M150.41 132S141 142.752 141 149.197c0 6.444 7.638 17.803 7.638 17.803l3.774-1.136s-3.405-14.056-3.405-17.795c0-3.739 6.993-9.22 6.993-9.22"/>
        <path fill="#dc143c" d="M150.52 148.335c0 3.182 2.607 14.812 3.22 17.523-.18.05-.254.066-.526.142-.754-3.347-3.214-14.538-3.214-17.665 0-3.79 6.412-9.11 6.684-9.335l.316.446c-.065.053-6.48 5.374-6.48 8.89"/>
        <path fill="#EC944F" d="M169.097 127.053s-.663 3.649 1.472 6.579c.132.181.356.317.6.352.496.071.844-.113 1.113-.194.394-.119.582-.332.672-.509.077-.15.055-.331-.047-.491-.433-.681-1.771-3.021-1.161-5.092-1.14-.972-2.649-.645-2.649-.645"/>
        <path fill="#F2AE53" d="M172.498 134c.29-.138.348-.23.447-.406.092-.16.065-.353-.055-.523-.515-.725-2.106-3.215-1.381-5.418-.479-.366-1.012-.556-1.501-.653-.081 2.42.468 4.039 2.49 7"/>
        <path fill="#EC944F" d="M171.057 130.08c.128.552.43.962.675.917.244-.044.339-.526.211-1.077-.128-.55-.43-.96-.675-.917-.244.044-.339.527-.211 1.078M171.371 128.462L171.629 128.401 171.61 128.531 171.438 128.599 171.371 128.462"/>
        <path fill="#DC3F5E" d="M171.364 130.556L171.679 130.495 171.321 130.444 171.364 130.556"/>
        <path fill="#FACB57" d="M171.057 130.081c.128.55.43.96.675.916.244-.045.339-.526.211-1.077-.128-.55-.43-.962-.675-.917-.244.044-.339.527-.211 1.078M167 123h-.447c-.854 0-1.553.644-1.553 1.431v1.138c0 .787.699 1.431 1.553 1.431H167v-4"/>
        <path fill="#1B2441" d="M181 124c0 3.314-.672 6-1.5 6-.829 0-1.5-2.686-1.5-6 0-3.315.671-6 1.5-6 .828 0 1.5 2.685 1.5 6"/>
        <path fill="#FFFFFE" d="M177.558 122L179 122.859 179 124.765 177.513 126 177 123.522 177.558 122"/>
        <path fill="#EE9E35" d="M177.756 124c0-2.88.527-5.296 1.242-5.996l-.004-.004c-5.52 4.207-11.994 4.801-11.994 4.801v4.38s8.754-.518 11.994 2.819l.006-.002c-.716-.698-1.244-3.115-1.244-5.998"/>
        <path fill="#FACB57" d="M178.691 124c0 .552-.084 1-.19 1-.107 0-.192-.448-.192-1s.085-1 .191-1c.107 0 .191.448.191 1"/>
        <path fill="#F0AB85" d="M174 132.67c-.135.047-.61.33-2.14.33-1.115 0-1.618-1.298-1.807-2.004-.068-.25-.127-.602.201-.76l1.79-.236 1.956 2.67"/>
        <path fill="#dc143c" d="M188.077 117.926c.103.1.269.099.37-.003l2.477-2.482c.102-.102.101-.265-.001-.366-.103-.1-.268-.1-.37.002l-2.478 2.483c-.101.101-.1.265.002.366M188.075 130.077c.1-.102.264-.103.366-.001l2.482 2.477c.102.102.103.267.003.37-.101.102-.265.103-.366.001l-2.483-2.477c-.102-.102-.103-.267-.002-.37M189 125.513c0 .168.117.304.26.303l3.484-.022c.143 0 .257-.138.256-.306 0-.17-.117-.305-.259-.305l-3.484.023c-.143.001-.258.138-.257.307"/>
        <path fill="#17324A" d="M55.906 427.01l9.157-.01c1.215.123 2.574.46 2.801 1.487 0 0 .16.682.133 1.36-.324.37-12.465-.05-12.465-.05l-.054-.042c-1.285-1.508.428-2.746.428-2.746"/>
        <path fill="#1B2441" d="M68.982 429.295L56 429.241 56.113 429.759 69 429.759 68.982 429.295"/>
        <path fill="#FFFFFE" d="M60.219 427L61 427.004 60.757 428 60 428 60.219 427M62.219 427L63 427.004 62.757 428 62 428 62.219 427"/>
        <path fill="#F0AB85" d="M57 424l.514 2.735c.602.334 1.384.353 2.011.052l.114-.055L60 424h-3"/>
        <path fill="#1B2441" d="M34.906 427.01l9.157-.01c1.215.123 2.574.46 2.801 1.487 0 0 .16.682.133 1.36-.324.37-12.465-.05-12.465-.05l-.054-.042c-1.285-1.508.428-2.746.428-2.746"/>
        <path fill="#1B2441" d="M46.982 429.295L34 429.241 34.112 429.759 47 429.759 46.982 429.295"/>
        <path fill="#FFFFFE" d="M38.22 427L39 427.004 38.757 428 38 428 38.22 427M41.219 427L42 427.004 41.757 428 41 428 41.219 427"/>
        <path fill="#F0AB85" d="M35.391 424L35 426.735c.725.334 1.664.353 2.418.052l.137-.055L39 424h-3.609M49.99 320L42 324.913l2.466 5.953c.035.083.082.161.122.243.175-.01.35-.019.528-.019l.086.003c.028 0 .055-.003.083-.003 2.14 0 3.977 1.24 5.092 2.91 1.294-.092 2.58-.388 3.771-.923.813-.364 1.522-.799 1.777-1.27C56.781 327.586 49.99 320 49.99 320M58.884 321.556s.87 8.84-.884 14.467c.815.758 3.807 4.188 4.748-.259.941-4.445-1.056-15.764-1.056-15.764l-2.808 1.556"/>
        <path fill="#1B2441" d="M53.399 321L52 321.926 52.499 323 54 322.319 53.399 321"/>
        <path fill="#1B2441" d="M52.815 322.413c.19.272.203.532.03.58-.174.047-.468-.135-.658-.406-.191-.272-.205-.532-.031-.58.174-.047.468.135.659.406"/>
        <path fill="#1063FE" d="M75.993 314.136c.002-.018.006-.034.007-.052-.338-.801-.936-2.075-1.74-3.247-1.3-1.891-1.672-2.837-1.672-2.837L54 320.64l1.204 2.36 20.791-7.983c-.019-.295-.024-.59-.002-.88"/>
        <path fill="#EC967C" d="M47.633 334.92L47 339 52.598 339 53 334 47.633 334.92"/>
        <path fill="#F0AB85" d="M63.22 344s6.925-2.245 9.094-5.263c2.17-3.019-1.502-19.536-1.502-19.536l.474-2.973c.268-1.674-.993-3.195-2.659-3.21l-1.85-.018c-.77-.006-1.29.799-.976 1.515l2.432 5.574s1.827 12.51-.73 13.46c-3.05 1.106-6.503 1.372-6.503 1.372L63.22 344"/>
        <path fill="#17324A" d="M49.33 334l-1.892-4.073 1.23-.75c.907-.553 1.305-1.639.96-2.624l-1.348-3.838s3.832-.456 3.717-3.92c0-1.785-2.53-1.795-2.53-1.795s-.757 1.596-3.104 1.784c-1.009-.123-3.776.238-5.642 3.4-1.256 2.125-.706 5.456.388 7.956.979 2.24 3.48 3.49 5.958 3.86h2.263"/>
        <path fill="#1B2441" d="M42.148 368s.362 8.366 2.155 17.435c.528 2.67.33 5.436-.531 8.018C39.704 405.653 34 424 34 424h5.073s11.495-21.683 14.457-32.438C56.492 380.805 57 377.39 57 377.39L53.475 368H42.148"/>
        <path fill="#F0AB85" d="M47.058 327.698c-.228.7.233 1.627 1.03 2.07.795.443 1.625.233 1.854-.466.228-.701-.233-1.627-1.03-2.07-.795-.443-1.626-.233-1.854.466"/>
        <path fill="#F6884A" d="M59.349 368H42v-21.505c0-4.71 3.712-8.646 8.566-9.084L62.63 336s1.418 2.098 5.37 6.973c-4.75 2.836-10.247 4.142-10.247 4.142L59.349 368"/>
        <path fill="#13374D" d="M43 368s2.373 8.537 11.126 18.105c1.461 1.445 3.566 4.45 3.266 8.7L55.587 424h5.224s6.368-24.243 4.995-36.195C64.432 375.854 59.796 368 59.796 368H43"/>
        <path fill="#1063FE" d="M75.883 311.464c.916 1.636 2.16 2.755 2.775 2.5.618-.257.375-1.792-.54-3.428-.916-1.636-2.16-2.755-2.776-2.5-.618.257-.375 1.792.54 3.428" opacity=".174"/>
        <path fill="#F0AB85" d="M58 317.688l.155.077c.543.268 1.167.309 1.739.112l.102-.035c.941-.324 1.675-1.093 1.976-2.067.134-.434-.235-.856-.667-.762l-1.154.25c-.45.097-.844.374-1.096.77L58 317.688"/>
        <path fill="#EC967C" d="M464 338.795L466.283 344 470 340.583 467.379 333 464 338.795"/>
        <path fill="#F0AB85" d="M462.79 339.949c-.549.086-1.07.08-1.373-.149-1.986-2.646-1.304-10.442-1.304-10.442l2.325-2.358 3.555 1.953.928 4.284c.247 1.413-.093 3.893-.914 4.965-.91.927-2.023 1.56-3.217 1.747M461.823 366.016s-.901 1.286-2.703 1.896c-1.801.61-15.214-2.162-15.214-2.162l-2.695.278c-1.41.378-2.904.301-4.266-.217L433 364.31l23.142-.476L465 353l-3.177 13.016"/>
        <path fill="#FB7F54" d="M470.504 341s5.476 7.025 6.756 11.645C478.54 357.265 479 370 479 370h-11.524s-3.309-6.009-5.878-11.459c-.77-1.635-.8-3.524-.07-5.178 1.88-4.269 4.705-10.14 4.705-10.14l4.271-2.223"/>
        <path fill="#F0AB85" d="M463.667 444l-.975 2.366c-.24.65-.71 1.201-1.33 1.572-.686.41-1.762.98-3.362 1.422 1.956 1.555 5.07-.07 6.852-1.218.868-.56 1.481-1.396 1.74-2.35L467 444h-3.333"/>
        <path fill="#13374D" d="M466.94 445s1.263.918 1.032 2.088c-.232 1.17-.56 3.912-.56 3.912h-1.3l.04-2.557c-.003-.167-2.787 2.557-3.259 2.557h-6.878s-.456-1.725 3.583-2.279c4.038-.555 7.341-3.721 7.341-3.721"/>
        <path fill="#F0AB85" d="M476.666 444l-.975 2.366c-.241.65-.71 1.201-1.33 1.572-.687.41-1.761.98-3.361 1.422 1.956 1.555 5.07-.07 6.852-1.218.868-.56 1.481-1.396 1.739-2.35L480 444h-3.334"/>
        <path fill="#13374D" d="M479.94 445s1.264.918 1.032 2.088c-.232 1.17-.56 3.912-.56 3.912h-1.3l.04-2.557c-.004-.167-2.787 2.557-3.26 2.557h-6.876s-.457-1.725 3.58-2.279c4.04-.555 7.343-3.721 7.343-3.721"/>
        <path fill="#1B2441" d="M466.954 368.198s-5.578 8.448-.804 42.124C465.4 423.052 464 444 464 444h3.167s8.779-22.313 5.833-33.427c-.7-11.009 2-42.573 2-42.573l-8.046.198"/>
        <path fill="#13374D" d="M478.188 368S484 372.744 484 379.79c0 5.528-2.624 16.978-4.13 24.472-.546 2.721.006 5.531.76 8.2 3.074 10.87-.66 31.538-.66 31.538h-3.135s-.172-10.631-4.46-34.462C467.452 382.166 467 368 467 368h11.188"/>
        <path fill="#F0AB85" d="M475 352.262S469.16 366 466.35 366c-2.808 0-18.35-6.717-18.35-6.717l.413-2.344 15.869 2.716s1.409-3.789 2.383-8.13c.387-1.723 1.706-3.125 3.424-3.454 3.751-.716 4.911 4.19 4.911 4.19"/>
        <path fill="#1B2441" d="M467.163 331.867s-1.712 1.036-6.951-2.327c-.803.21.478-7.353 7.257-5.131 4.745 1.554 4.518 6.155 4.3 8.699-.237 2.75 1.192 4.563 3.079 6.574 1.583 1.687 1.56 4.789 2.614 6.457 1.297 2.053 2.673 1.933 3.702 4.016 1.077 2.18 1.225 4.846-.218 6.803-.82 1.112-2.73 3.796-5.755 2.84-1.697-.537-2.155-3.504-2.23-6.004-.065-2.226-1.143-4.294-2.882-5.68-1.632-1.302-3.413-3.084-3.89-4.943-.934-3.646.974-11.304.974-11.304"/>
        <path fill="#F0AB85" d="M467.693 331.132c-.399-.274-1.032-.107-1.414.373-.382.48-.37 1.09.028 1.363.399.274 1.032.107 1.415-.373.382-.48.369-1.09-.029-1.363M439.238 359.36c-.04-.334.15-.654.468-.79l3.084-1.299c.762-.321 1.62-.358 2.41-.104l3.058.985.413.016.329 2.76c-.612-.217-.97-.352-.97-.352l-1.933-.682s-4.22 3.472-5.728.32c-.451 3.121-1.369 2.775-1.369 2.775l.238-3.63"/>
        <path fill="#1B2441" d="M469.896 329.242c-.613 2.265-3.768 3.353-7.048 2.429-3.28-.925-5.06-3.438-4.828-5.776.304-3.073 3.77-3.355 7.05-2.43 3.278.925 5.44 3.51 4.826 5.777"/>
        <path fill="#CA2C0A" d="M438.133 365.99c-.546 0-1.078-.033-1.607-.083-3.778 2.32-10.107 5.619-18.127 7.573-12.18 2.966-30.854 3.33-50.653-11.783-38.144-29.116-39.84-92.064-39.853-92.697l-1.893.037c.013.64 1.722 64.489 40.597 94.163 13.878 10.593 27.238 13.8 38.33 13.8 5.232 0 9.96-.714 13.997-1.702 10.439-2.558 17.954-7.205 21.076-9.38-.622.045-1.246.072-1.867.072"/>
        <path fill="#CA2C0A" d="M296.202 265.444L267.08 206c-1.363.694-2.723 1.393-4.081 2.096L293.326 270H360v-4.556h-63.798"/>
        <g transform="translate(424 347)">
            <mask id="qnk8i74qxj" fill="#fff">
                <use xlink:href="#xasx1071dh"/>
            </mask>
            <path fill="url(#8w6ia27rli)" d="M8.648 16.98L27.436 16.98 27.436 15.629 9.482 15.629 1.506 0.794 0.284 1.423 8.648 16.98" mask="url(#qnk8i74qxj)"/>
        </g>
        <path fill="#CA2C0A" d="M328.814 273h-3.628c-.652 0-1.186-.517-1.186-1.149v-2.702c0-.632.534-1.149 1.186-1.149h3.628c.652 0 1.186.517 1.186 1.149v2.702c0 .632-.534 1.149-1.186 1.149"/>
        <path fill="#F0AB85" d="M297.912 348.343L303 359 297.394 358.699 297 348 297.912 348.343"/>
        <path fill="#005C5A" d="M288.108 343.008L293.688 343 296 377 286 377 288.108 343.008"/>
        <path fill="#13374D" d="M278.06 442s-1.263.919-1.032 2.089c.231 1.17.56 3.911.56 3.911h1.3l-.04-2.557c.004-.167 2.787 2.557 3.259 2.557h6.877s.458-1.725-3.582-2.279c-4.038-.554-7.342-3.721-7.342-3.721"/>
        <path fill="#F0AB85" d="M281.333 441l.975 2.366c.24.65.708 1.201 1.33 1.573.687.409 1.762.98 3.362 1.42-1.957 1.557-5.07-.069-6.852-1.218-.868-.56-1.482-1.395-1.74-2.349L278 441h3.333"/>
        <path fill="#13374D" d="M292.06 442s-1.263.919-1.032 2.089c.232 1.17.56 3.911.56 3.911h1.3l-.04-2.557c.004-.167 2.788 2.557 3.259 2.557h6.877s.458-1.725-3.58-2.279c-4.04-.554-7.344-3.721-7.344-3.721"/>
        <path fill="#F0AB85" d="M295.333 441l.976 2.366c.24.65.708 1.201 1.329 1.573.687.409 1.762.98 3.362 1.42-1.956 1.557-5.07-.069-6.852-1.218-.867-.56-1.482-1.395-1.74-2.349L292 441h3.333"/>
        <path fill="#0B41A6" d="M284.06 377s-.896 5.014 4.254 29.662C284.145 419.508 290.82 441 290.82 441h4.867L299 377h-14.94"/>
        <path fill="#13374D" d="M292 344l1.622 40 5.378-2.346s-2.422-7.51-2.193-17.941c-.821-7.544 3.377-3.57-1.767-18.094C293.124 343.993 292 344 292 344"/>
        <path fill="#EC967C" d="M293 338.794l-.627 3.43c-.276 1.509-1.924 2.257-3.174 1.44L287 342.232l3.926-9.231 2.074 5.794"/>
        <path fill="#1063FE" d="M279.204 377s-6.314 5.014-1.214 29.662c-4.129 12.846-.486 34.338-.486 34.338h4.326L294 377h-14.796"/>
        <path fill="#13374D" d="M288.21 341s-5.46 2.935-7.156 5.556c-1.617 2.497-2.177 8.181-2.333 13.242C278.51 366.746 275 385 275 385h14.636l.364-39.738-1.79-4.262"/>
        <path fill="#1B2441" d="M298.636 329.093c-3.264-.81-6.403 2.468-6.403 2.468l-2.455 12.954-3.776-5.701s-.215-7.747 3.434-12.876c2.614-3.106 7.63-2.215 10.166.807 1.233 1.469 1.491 3.498 1.372 5.364-.16 2.506-.886 16.891-.886 16.891l-7.475-5.425s.178-1.463.893-4.123c1.232-4.578 7.321-9.815 5.13-10.359"/>
        <path fill="#F0AB85" d="M291.489 331.05c.473-.173 1.087.113 1.37.638.283.525.127 1.09-.348 1.262-.474.172-1.087-.114-1.37-.639-.283-.524-.127-1.089.348-1.26"/>
        <path fill="#F0AB85" d="M295.147 340.727c.65.228 1.288.357 1.712.212 3.042-2.103 4.141-10.5 4.141-10.5L298.59 328l-4.798 1.005-2.365 5.001c-.632 1.334-.56 2.876.196 4.152.896 1.156 2.108 2.072 3.524 2.569"/>
        <path fill="#1B2441" d="M298.997 328.592c-.217 2.226-6.662 2.408-6.662 2.408l-.335-3.013 3.757-1.987 2.974 1.72s.3.5.266.872M299.028 329.416c-.178.942.546 2.584.546 2.584l.426-1.012-.011-.878-.42-.683s-.364-.953-.54-.011"/>
        <path fill="#F0AB85" d="M283.072 346.03c-6.633.793-3.5 18.323-2.075 25.52.35 1.77 2.118 2.852 3.8 2.31 5.771-1.866 14.203-9.608 14.203-9.608l-1.337-1.725-11.2 2.679s4.297-20.094-3.391-19.175"/>
        <path fill="#FFFFFE" d="M295.36 358.548l-2.351 13.696c-.068.396.257.756.684.756H303c.34 0 .63-.233.684-.55l2.308-13.695c.067-.397-.258-.755-.684-.755h-9.263c-.34 0-.63.232-.685.548"/>
        <path fill="#F0AB85" d="M305.966 364.687c.051-.518.007-.841-.147-1.91-.2-1.392-.148-3.57-1.418-2.484-1.202 1.684-1.34 3.474-1.34 3.474-.245.988.296 2.36.8 3.105l.874 2.128s1.509-1.962 1.23-4.313"/>
        <path fill="#5BBDB7" d="M301 362.5c0 .277.224.5.5.5s.5-.223.5-.5c0-.276-.224-.5-.5-.5s-.5.224-.5.5"/>
    </g>
</svg>
