<svg xmlns="http://www.w3.org/2000/svg" width="36" height="36" viewBox="0 0 36 36">
    <g fill="none" fill-rule="evenodd">
        <g fill="#FFF">
            <g transform="translate(-369 -191) translate(369 191)">
                <rect width="36" height="36" opacity=".102" rx="18"/>
                <path fill-rule="nonzero" d="M24.686 14.688c-.496.223-1.025.371-1.576.443.567-.347 1-.893 1.203-1.55-.529.322-1.113.55-1.735.678-.502-.548-1.217-.888-1.998-.888-1.514 0-2.733 1.261-2.733 2.807 0 .222.018.436.063.64-2.274-.114-4.286-1.232-5.638-2.935-.236.42-.375.9-.375 1.418 0 .972.488 1.833 1.215 2.332-.439-.009-.87-.14-1.235-.346v.03c0 1.364.948 2.497 2.191 2.758-.223.062-.465.092-.717.092-.175 0-.352-.01-.518-.048.355 1.111 1.36 1.928 2.556 1.954-.93.747-2.112 1.197-3.392 1.197-.224 0-.439-.01-.654-.039 1.212.802 2.648 1.26 4.196 1.26 5.034 0 7.786-4.277 7.786-7.984 0-.124-.004-.244-.01-.363.543-.395.999-.888 1.37-1.456z"/>
            </g>
        </g>
    </g>
</svg>
