<svg width="23" height="20" viewBox="0 0 23 20" fill="none" xmlns="http://www.w3.org/2000/svg">
<path d="M11.6613 4.4975C14.4225 4.4975 16.6635 6.73852 16.6635 9.49977C16.6635 10.1501 16.5335 10.7603 16.3034 11.3306L19.2247 14.2519C20.7354 12.9914 21.9259 11.3606 22.6562 9.49977C20.9255 5.10778 16.6535 1.99636 11.6512 1.99636C10.2506 1.99636 8.91 2.24648 7.66944 2.69668L9.83042 4.85766C10.4007 4.62756 11.011 4.4975 11.6613 4.4975ZM1.6567 1.76626L3.93774 4.0473L4.39795 4.50751C2.7372 5.79809 1.4366 7.51887 0.65625 9.49977C2.38704 13.8918 6.65898 17.0032 11.6613 17.0032C13.212 17.0032 14.6926 16.703 16.0432 16.1628L16.4634 16.583L19.3948 19.5043L20.6653 18.2337L2.92728 0.495682L1.6567 1.76626ZM7.18922 7.29877L8.73992 8.84948C8.6899 9.05958 8.65989 9.27967 8.65989 9.49977C8.65989 11.1605 10.0005 12.5011 11.6613 12.5011C11.8814 12.5011 12.1015 12.4711 12.3115 12.4211L13.8623 13.9718C13.1919 14.302 12.4516 14.502 11.6613 14.502C8.9 14.502 6.65898 12.261 6.65898 9.49977C6.65898 8.70942 6.85907 7.96908 7.18922 7.29877ZM11.5012 6.51842L14.6526 9.66985L14.6726 9.50978C14.6726 7.84902 13.332 6.50842 11.6713 6.50842L11.5012 6.51842Z" fill="#6F389F"/>
</svg>
