<svg width="23" height="16" viewBox="0 0 23 16" fill="none" xmlns="http://www.w3.org/2000/svg">
<path d="M11.6562 0.5C6.65625 0.5 2.38625 3.61 0.65625 8C2.38625 12.39 6.65625 15.5 11.6562 15.5C16.6562 15.5 20.9263 12.39 22.6562 8C20.9263 3.61 16.6562 0.5 11.6562 0.5ZM11.6562 13C8.89625 13 6.65625 10.76 6.65625 8C6.65625 5.24 8.89625 3 11.6562 3C14.4163 3 16.6562 5.24 16.6562 8C16.6562 10.76 14.4163 13 11.6562 13ZM11.6562 5C9.99625 5 8.65625 6.34 8.65625 8C8.65625 9.66 9.99625 11 11.6562 11C13.3162 11 14.6562 9.66 14.6562 8C14.6562 6.34 13.3162 5 11.6562 5Z" fill="#6F389F"/>
</svg>
