<svg width="25" height="25" viewBox="0 0 25 25" fill="none" xmlns="http://www.w3.org/2000/svg">
<path fill-rule="evenodd" clip-rule="evenodd" d="M15.7458 8.325H14.5692C13.6467 8.325 13.4683 8.76417 13.4683 9.40667V10.8258H15.6683L15.3817 13.0483H13.4683V18.75H11.1733V13.0483H9.255V10.8258H11.1733V9.1875C11.1733 7.285 12.335 6.25 14.0317 6.25C14.8433 6.25 15.5425 6.31 15.7458 6.3375V8.325ZM12.5 0C5.59667 0 0 5.59583 0 12.5C0 19.4033 5.59667 25 12.5 25C19.4042 25 25 19.4033 25 12.5C25 5.59583 19.4042 0 12.5 0Z" fill="#DC143C"/>
</svg>
