<svg xmlns="http://www.w3.org/2000/svg" width="103" height="109" viewBox="0 0 103 109">
    <g fill="none">
        <circle cx="56.5" cy="73.5" r="4.5" fill="#000" opacity=".2"/>
        <path fill="#000" d="M69.938 100.484H17.006c-4.688 0-8.503-3.82-8.503-8.515V57.054c0-4.695 3.815-8.515 8.503-8.515h61.222c.968 0 1.736.085 2.348.261 2.258.648 4.612-.66 5.258-2.92.647-2.26-.658-4.618-2.916-5.266-1.384-.397-2.918-.59-4.69-.59h-5.11V25.006C73.118 11.218 61.675 0 47.61 0S22.1 11.218 22.1 25.007v15.016h-5.094C7.63 40.023 0 47.663 0 57.055v34.914C0 101.359 7.629 109 17.006 109h52.932c2.348 0 4.251-1.906 4.251-4.258 0-2.351-1.903-4.258-4.251-4.258zM30.603 25.007c0-9.093 7.63-16.491 17.006-16.491 9.377 0 17.006 7.398 17.006 16.491v15.016H30.603V25.007z" opacity=".334"/>
        <circle cx="40.5" cy="73.5" r="4.5" fill="#000" opacity=".2"/>
        <path fill="#FFF" d="M102.996 70.099C102.904 61.757 96.211 55 88 55 79.729 55 73 61.852 73 70.274c0 2.376 1.89 4.301 4.223 4.301s4.224-1.925 4.224-4.3c0-3.68 2.94-6.673 6.552-6.673 3.613 0 6.552 2.993 6.552 6.672l.001.117c-.044 2.634-1.597 4.992-3.984 6.029-4.126 1.795-6.793 5.94-6.793 10.56v3.719C83.775 93.074 85.666 95 88 95c2.332 0 4.223-1.926 4.223-4.301v-3.72c0-1.17.653-2.208 1.663-2.648 5.539-2.407 9.116-7.925 9.115-14.058 0-.058-.001-.116-.004-.174z"/>
        <circle cx="87.5" cy="104.5" r="4.5" fill="#FFF"/>
        <circle cx="24.5" cy="73.5" r="4.5" fill="#000" opacity=".2"/>
    </g>
</svg>
