<svg width="25" height="26" viewBox="0 0 25 26" fill="none" xmlns="http://www.w3.org/2000/svg">
<path fill-rule="evenodd" clip-rule="evenodd" d="M18.75 17.4364C18.75 18.2548 18.085 18.9198 17.2642 18.9198H7.73583C6.91583 18.9198 6.25 18.2548 6.25 17.4364V7.90145C6.25 7.08228 6.91583 6.41895 7.73583 6.41895H17.2642C18.085 6.41895 18.75 7.08228 18.75 7.90145V17.4356V17.4364ZM12.5 0.169779C5.59583 0.168945 0 5.76478 0 12.6689C0 19.5714 5.59583 25.1689 12.5 25.1689C19.4042 25.1689 25 19.5714 25 12.6689C25 5.76478 19.4042 0.168945 12.5 0.168945V0.169779Z" fill="#DC143C"/>
<path fill-rule="evenodd" clip-rule="evenodd" d="M12.515 15.082C13.8417 15.082 14.9183 14.0084 14.9183 12.6831C14.9183 11.3587 13.8417 10.2851 12.515 10.2851C11.1875 10.2851 10.1108 11.3587 10.1108 12.6831C10.1108 14.0084 11.1875 15.082 12.515 15.082ZM15.2833 10.2268H16.9725C17.1658 10.2268 17.3225 10.07 17.3225 9.87834V8.19129C17.3225 7.99874 17.1658 7.84204 16.9725 7.84204H15.2825C15.09 7.84204 14.9325 7.99874 14.9325 8.19129V9.87834C14.9325 10.07 15.09 10.2268 15.2825 10.2268" fill="#DC143C"/>
<path fill-rule="evenodd" clip-rule="evenodd" d="M16.3166 12.6833C16.3166 14.7747 14.6116 16.4769 12.5149 16.4769C10.4174 16.4769 8.71239 14.7747 8.71239 12.6833C8.71239 12.3367 8.75906 12 8.84739 11.6809H7.67822V17.116C7.67822 17.3085 7.83406 17.4652 8.02739 17.4652H17.0016C17.1949 17.4652 17.3516 17.3085 17.3516 17.1152V11.6809H16.1816C16.2699 12 16.3166 12.3367 16.3166 12.6833Z" fill="#DC143C"/>
</svg>
