<svg width="958" height="550" viewBox="0 0 958 550" fill="none" xmlns="http://www.w3.org/2000/svg">
<path d="M756.58 522.863C815.423 522.863 863.124 475.118 863.124 416.222C863.124 357.326 815.423 309.582 756.58 309.582C697.738 309.582 650.037 357.326 650.037 416.222C650.037 475.118 697.738 522.863 756.58 522.863Z" fill="#F5F5FF"/>
<path d="M639.9 251.136C639.9 251.136 587.387 234.763 570.846 216.858C554.304 198.953 567.09 141.548 533.333 91.901C499.577 42.2542 412.338 14.9799 412.338 14.9799C412.338 14.9799 323.295 -19.7558 190.986 18.7391C58.6772 57.2339 24.0417 133.058 24.0417 133.058C24.0417 133.058 0.59375 172.284 0.59375 211.716C0.59375 251.148 20.286 282.559 20.286 282.559C20.286 282.559 65.3097 328.789 121.578 302.406C177.846 276.023 182.55 238.054 182.55 238.054C182.55 238.054 186.294 215.521 178.794 204.278C171.294 193.034 212.562 177.106 212.562 177.106C212.562 177.106 251.044 149.809 311.046 149.809C371.047 149.809 393.422 160.355 398.273 175.278C403.125 190.201 393.582 250.931 416.094 302.429C438.605 353.927 491.118 385.84 491.118 385.84L543.63 416.268C543.63 416.268 614.922 435.567 645.87 355.8C676.818 276.034 639.9 251.136 639.9 251.136Z" fill="#F5F5FF"/>
<path d="M922.088 230.398L877.646 359.594C877.646 359.594 856.23 401.345 760.635 370.917C689.092 341.769 694.549 307.742 694.549 307.742L727.232 169.965L922.088 230.398Z" fill="#935BB6"/>
<path d="M850.942 102.39C850.942 102.39 878.477 106.538 896.377 127.436C907.342 140.331 916.625 154.567 924.003 169.805C928.421 182.145 926.286 207.374 926.286 207.374C926.286 207.374 924.814 234.74 915.396 241.264C905.978 247.789 869.128 249.491 869.128 249.491C869.128 249.491 825.417 252.062 784.274 236.191C743.132 220.32 727.709 193.297 727.709 193.297C727.709 193.297 722.001 176.249 730.723 161.989L746.488 136.097L792.722 104.675C792.722 104.675 828.111 97.8197 850.942 102.39Z" fill="#6F389F"/>
<path d="M924.002 169.804C924.307 173.977 923.309 178.141 921.148 181.722C917.507 187.938 908.728 192.006 908.728 192.006L886.444 194.942H865.211L828.098 189.229C817.955 187.316 807.948 184.735 798.143 181.505C789.242 178.227 780.758 173.909 772.869 168.639L753.679 152.482C751.438 150.557 749.461 148.344 747.8 145.901C745.437 142.256 746.487 136.097 746.487 136.097C746.487 136.097 735.482 144.096 732.16 150.62C728.838 157.144 732.16 166.057 732.16 166.057L761.727 194.942C761.727 194.942 774.798 205.306 814.011 215.601C853.224 225.896 851.078 223.965 851.078 223.965C851.078 223.965 884.515 224.399 898.008 221.394C911.502 218.389 919.698 213.03 919.698 213.03C919.698 213.03 925.475 209.602 926.548 203.18C928.252 192.006 927.381 180.59 924.002 169.804V169.804Z" fill="#F9D579"/>
<path d="M818.064 198.942L828.11 189.252C855.063 174.89 865.223 194.965 865.223 194.965C865.223 194.965 869.527 206.963 865.223 210.482L848.088 224.502L818.064 198.942Z" fill="#381159"/>
<path d="M739.398 161.738L757.903 149.809C757.903 149.809 770.974 150.814 772.481 161.783C773.399 168.248 772.96 174.832 771.191 181.117L764.342 190.2L739.398 161.738Z" fill="#381159"/>
<path d="M848.02 224.474C854.267 217.142 852.624 205.472 844.349 198.409C836.074 191.345 824.301 191.562 818.054 198.894C811.807 206.225 813.45 217.895 821.725 224.959C830 232.023 841.773 231.806 848.02 224.474Z" fill="#B89BCD"/>
<path d="M762.654 196.578C771.041 191.753 773.488 180.263 768.119 170.913C762.751 161.564 751.6 157.895 743.213 162.72C734.826 167.544 732.379 179.034 737.748 188.384C743.116 197.734 754.267 201.402 762.654 196.578Z" fill="#B89BCD"/>
<path d="M756.025 190.569C761.736 187.268 763.271 179.228 759.454 172.609C755.636 165.991 747.912 163.302 742.2 166.602C736.489 169.902 734.954 177.943 738.772 184.561C742.589 191.179 750.314 193.869 756.025 190.569Z" fill="#EBE3F0"/>
<path d="M844.205 221.219C848.533 216.139 847.041 207.752 840.872 202.486C834.703 197.22 826.193 197.069 821.865 202.149C817.536 207.229 819.028 215.616 825.197 220.882C831.366 226.148 839.876 226.299 844.205 221.219Z" fill="#EBE3F0"/>
<path d="M790.234 115.062L781.227 121.232C781.227 121.232 756.113 116.079 755.519 115.222C754.925 114.365 753.807 107.075 753.807 107.075L756.957 99.1452L767.083 95.7173L776.729 91.8552L781.867 94.8489L790.234 115.062Z" fill="#DDB762"/>
<path d="M911.436 251.136C911.436 251.136 900.956 261.694 897.589 269.213C894.221 276.731 894.164 285.986 894.164 285.986L904.61 289.597L911.391 283.804L916.824 258.495L911.436 251.136Z" fill="#381159"/>
<path d="M724.799 176.146H722.516C722.516 176.146 715.278 183.379 713.029 189.972C710.78 196.565 710.746 206.38 710.746 206.38L718.623 209.922L724.799 193.034V176.146Z" fill="#381159"/>
<path d="M872.188 178.374C872.507 178.854 878.774 187.515 879.265 187.378C879.756 187.241 904.38 173.667 904.38 173.667C904.38 173.667 902.77 166.594 902.291 166.754C901.811 166.914 884.768 170.776 884.768 170.776L872.188 178.374Z" fill="#381159"/>
<path d="M907.452 281.564C907.452 281.564 908.411 277.142 910.523 270.367C912.635 263.591 916.231 261.329 916.231 261.329L925.523 273.623L880.557 184.373C884.044 181.731 887.688 179.304 891.47 177.106C897.338 173.735 900.135 173.735 900.135 173.735L955.547 284.364C955.547 284.364 961.974 293.882 953.869 299.766C945.764 305.651 937.636 299.766 937.636 299.766L907.452 281.564Z" fill="#AF84C8"/>
<path d="M717.493 182.122L675.802 171.21C685.839 163.932 696.444 157.474 707.515 151.9C726.1 142.519 747.276 134.246 747.276 134.246L740.895 117.164C740.895 117.164 705.164 133.355 695.118 138.383C685.072 143.41 666.407 154.95 666.407 154.95C666.407 154.95 655.699 160.961 655.699 171.473C655.699 181.985 671.761 188.612 671.761 188.612L710.872 198.896L717.493 182.122Z" fill="#AF84C8"/>
<path d="M797.253 112.102L783.394 88.1074C783.394 88.1074 761.898 89.9242 756.955 95.6716L744.74 109.817L743.279 119.975L756.978 136.36C758.977 138.701 761.569 140.459 764.482 141.451C767.395 142.442 770.521 142.629 773.531 141.993C780.358 140.639 786.626 137.278 791.534 132.338L779.296 109.817L773.508 105.967L766.762 109.817C766.762 109.817 760.654 114.388 756.955 112.102C753.257 109.817 756.955 104.104 756.955 104.104C756.955 104.104 761.624 97.9911 767.081 95.7401C772.538 93.4892 779.296 94.449 779.296 94.449C779.296 94.449 788.942 114.822 790.232 115.085C791.522 115.347 797.253 112.102 797.253 112.102Z" fill="#F9D579"/>
<path d="M744.742 109.817C744.262 109.977 740.895 111.908 740.895 111.908L741.694 123.494L749.411 138.348L756.956 136.417L745.541 115.187L744.742 109.817Z" fill="#381159"/>
<path d="M892.016 124.1L872.187 142.382C872.187 142.382 864.413 158.059 865.988 158.036C867.563 158.013 882.552 164.343 883.74 164.343C884.927 164.343 901.879 160.001 901.879 160.001C901.879 160.001 898.318 139.594 897.929 138.383C897.541 137.172 892.016 124.1 892.016 124.1Z" fill="#DDB762"/>
<path d="M845.086 155.236C845.086 155.236 846.228 171.473 857.712 177.106C869.196 182.739 875.361 182.739 875.361 182.739L902.245 166.811C902.245 166.811 912.918 153.945 907.793 142.359C902.667 130.773 892.016 124.077 892.016 124.077L888.26 134.692C888.26 134.692 905.236 149.203 896.754 157.99C888.272 166.777 875.566 156.71 873.922 153.419C872.278 150.129 872.233 142.359 872.233 142.359H862.095L845.086 155.236Z" fill="#F9D579"/>
<path d="M643.05 433.533H637.468L632.902 440.834H610.39C610.39 440.834 599.762 444.89 597.992 452.26C596.223 459.63 600.515 469.228 600.515 469.228C600.515 469.228 614.694 491.258 638.484 496.08C662.274 500.902 671.887 497.851 671.887 497.851C671.887 497.851 684.033 493.28 682.001 478.598C679.969 463.915 664.295 453.506 664.295 453.506L666.818 447.93L663.781 441.588L643.05 433.533Z" fill="#381159"/>
<path d="M736.054 487.453L730.552 488.367L727.242 496.308L705.015 499.976C705.015 499.976 695.186 505.689 694.638 513.242C694.09 520.795 699.889 529.581 699.889 529.581C699.889 529.581 717.458 549.006 741.705 549.886C765.952 550.766 774.948 546.195 774.948 546.195C774.948 546.195 786.192 539.728 781.797 525.559C777.402 511.391 760.244 503.701 760.244 503.701L761.843 497.794L757.801 492.081L736.054 487.453Z" fill="#381159"/>
<path d="M707.848 337.621C707.848 337.621 683.875 361.216 668.509 388.479L641.785 435.761C641.785 435.761 642.265 444.833 648.943 447.701C650.816 448.555 652.85 448.996 654.908 448.996C656.965 448.996 658.999 448.555 660.872 447.701C669.805 428.595 680.173 410.196 691.889 392.661C710.017 366.038 724.858 352.155 724.858 352.155L707.848 337.621Z" fill="#AF84C8"/>
<path d="M786.443 377.853C786.443 377.853 768.018 408.384 758.166 433.373L735.734 490.207C735.734 490.207 736.214 495.463 744.33 498.331C752.447 501.199 757.207 498.331 757.207 498.331C757.207 498.331 768.623 466.806 782.973 435.281C791.307 416.777 800.841 398.838 811.512 381.578L786.443 377.853Z" fill="#AF84C8"/>
</svg>
