<svg width="25" height="25" viewBox="0 0 25 25" fill="none" xmlns="http://www.w3.org/2000/svg">
<path fill-rule="evenodd" clip-rule="evenodd" d="M25 12.5C25 19.4036 19.4036 25 12.5 25C5.59644 25 0 19.4036 0 12.5C0 5.59644 5.59644 0 12.5 0C19.4036 0 25 5.59644 25 12.5ZM18.094 17.5566V13.66C18.094 11.5728 16.9786 10.6018 15.493 10.6018C14.2919 10.6018 13.7564 11.2623 13.4559 11.7239V10.7612H11.1965C11.2267 11.3982 11.1965 17.5566 11.1965 17.5566H13.4559V13.7616C13.4559 13.5576 13.471 13.3562 13.5315 13.211C13.6943 12.8048 14.0653 12.3852 14.6897 12.3852C15.5072 12.3852 15.8346 13.0079 15.8346 13.921V17.5566H18.094ZM13.4559 11.7239V11.7465H13.4408C13.4427 11.7431 13.4452 11.7399 13.4476 11.7366C13.4506 11.7326 13.4536 11.7285 13.4559 11.7239ZM7.55383 8.65977C7.55383 7.9934 8.05994 7.48566 8.83212 7.48566C9.60599 7.48566 10.081 7.9934 10.0953 8.65977C10.0953 9.31186 9.60599 9.83471 8.81784 9.83471H8.80273C8.04483 9.83471 7.55383 9.31186 7.55383 8.65977ZM9.94675 17.5566H7.68811V10.7612H9.94675V17.5566Z" fill="#DC143C"/>
</svg>
