<svg xmlns="http://www.w3.org/2000/svg" width="154" height="114" viewBox="0 0 154 114">
    <g fill="none">
        <circle cx="130.8" cy="93" r="3" fill="#FFF"/>
        <circle cx="112.8" cy="93" r="3" fill="#FFF"/>
        <circle cx="94.8" cy="93" r="3" fill="#FFF"/>
        <circle cx="76.8" cy="93" r="3" fill="#FFF"/>
        <path fill="#000" d="M33 12c0-6.617-5.383-12-12-12S9 5.383 9 12s5.383 12 12 12 12-5.383 12-12zm-12 6c-3.308 0-6-2.692-6-6s2.692-6 6-6 6 2.692 6 6-2.692 6-6 6zM3 51h36c1.657 0 3-1.343 3-3v-3c0-11.587-9.374-21-21-21C9.42 24 0 33.42 0 45v3c0 1.657 1.343 3 3 3zm18-21c8.276 0 15 6.695 15 15H6c0-8.271 6.729-15 15-15zM3 114h36c1.657 0 3-1.343 3-3V93c0-1.657-1.343-3-3-3h-6V75c0-6.617-5.383-12-12-12S9 68.383 9 75v15H3c-1.657 0-3 1.343-3 3v18c0 1.657 1.343 3 3 3zm12-39c0-3.308 2.692-6 6-6s6 2.692 6 6v15H15V75zM6 96h30v12H6V96z" opacity=".35"/>
        <path fill="#FFF" d="M135.6 30c0-1.657-1.343-3-3-3H75c-1.657 0-3 1.343-3 3s1.343 3 3 3h57.6c1.657 0 3-1.343 3-3z"/>
        <path fill="#000" d="M132.6 72H75c-11.58 0-21 9.42-21 21s9.42 21 21 21h15.3c1.657 0 3-1.343 3-3s-1.343-3-3-3H75c-8.271 0-15-6.729-15-15s6.729-15 15-15h57.6c8.271 0 15 6.729 15 15s-6.729 15-15 15h-15.3c-1.657 0-3 1.343-3 3s1.343 3 3 3h15.3c11.58 0 21-9.42 21-21s-9.42-21-21-21zM132.6 9H75c-11.58 0-21 9.42-21 21s9.42 21 21 21h15.3c1.657 0 3-1.343 3-3s-1.343-3-3-3H75c-8.271 0-15-6.729-15-15s6.729-15 15-15h57.6c8.271 0 15 6.729 15 15s-6.729 15-15 15h-15.3c-1.657 0-3 1.343-3 3s1.343 3 3 3h15.3c11.58 0 21-9.42 21-21s-9.42-21-21-21z" opacity=".25"/>
        <circle cx="103.8" cy="48" r="3" fill="#000" opacity=".35"/>
        <circle cx="103.8" cy="111" r="3" fill="#000" opacity=".35"/>
    </g>
</svg>
