<svg width="220" height="175" viewBox="0 0 220 175" fill="none" xmlns="http://www.w3.org/2000/svg">
<g clip-path="url(#clip0_2755_12143)">
<path opacity="0.14" fill-rule="evenodd" clip-rule="evenodd" d="M92.1196 88.6837C89.4246 92.9824 85.5154 96.3855 80.8863 98.4626C76.2573 100.54 71.1163 101.198 66.1134 100.353C61.1104 99.5085 56.4703 97.1995 52.7796 93.7179C49.0889 90.2363 46.5135 85.7386 45.3789 80.7934C44.2443 75.8482 44.6016 70.6776 46.4055 65.9354C48.2094 61.1932 51.3789 57.0924 55.5133 54.1514C59.6477 51.2105 64.5614 49.5616 69.6329 49.4131C74.7044 49.2646 79.7061 50.6232 84.0055 53.3172C86.8608 55.1063 89.3357 57.4404 91.2888 60.1861C93.2419 62.9319 94.635 66.0355 95.3885 69.3197C96.142 72.6039 96.2411 76.0043 95.6802 79.3269C95.1194 82.6494 93.9095 85.8288 92.1196 88.6837ZM96.5615 10.3936C95.0296 10.5476 90.9249 14.7476 87.3406 20.245C82.0079 18.5905 76.461 17.7286 70.8777 17.6868C69.8149 12.0502 68.0997 6.21563 65.483 5.11616C60.1688 2.9172 45.4139 8.18736 43.8599 10.0785C42.8704 11.2879 42.9584 17.357 44.3804 23.9099C39.4459 26.4144 34.9025 29.6244 30.8934 33.4387C26.1437 30.1989 20.7856 27.2596 18.1542 28.3078C12.818 30.5067 6.13323 44.668 6.37511 47.1015C6.52171 48.6188 10.6997 52.7088 16.1678 56.2858C14.3104 61.6394 13.2605 67.2397 13.0526 72.9026C7.61387 73.9727 2.15313 75.6512 1.09764 78.18C-1.10132 83.4942 4.16883 98.2492 6.0526 99.7958C7.18139 100.719 12.5102 100.712 18.5133 99.5612C21.0358 104.934 24.3819 109.88 28.4306 114.221C25.6013 118.575 23.2997 123.156 24.2892 125.531C26.4882 130.86 40.6568 137.544 43.083 137.31C44.4537 137.171 47.8987 133.784 51.1458 129.13C56.9716 131.192 63.0933 132.296 69.2725 132.399C70.35 137.193 71.9259 141.613 74.1688 142.551C79.483 144.75 94.238 139.48 95.7919 137.588C96.6421 136.555 96.7008 131.915 95.7919 126.469C101.383 123.713 106.484 120.058 110.891 115.65C115.033 118.267 119.255 120.268 121.498 119.315C126.826 117.116 133.519 102.955 133.277 100.521C133.145 99.1507 129.736 95.6984 125.067 92.4073C126.906 86.6136 127.809 80.5639 127.743 74.4858C132.786 73.4083 137.572 71.7957 138.554 69.4429C140.753 64.1287 135.483 49.3738 133.599 47.8272C132.47 46.8963 127.09 46.9109 121.043 48.0837C118.325 42.9545 114.84 38.2705 110.708 34.1936C113.765 29.6198 116.381 24.6282 115.355 22.1214C113.156 16.7853 98.9877 10.1004 96.5615 10.335V10.3936Z" fill="#6F3E98"/>
<path fill-rule="evenodd" clip-rule="evenodd" d="M35.6737 65.5435C33.473 74.2443 34.6334 83.4549 38.9233 91.3381C43.2132 99.2212 50.3174 105.197 58.8186 108.074C67.3199 110.951 76.5932 110.517 84.7887 106.859C92.9843 103.202 99.4996 96.5884 103.035 88.3393C106.57 80.0901 106.866 70.8113 103.863 62.3539C100.859 53.8965 94.778 46.8822 86.8318 42.7102C78.8856 38.5382 69.6586 37.5153 60.9916 39.8454C52.3245 42.1756 44.8545 47.6875 40.0716 55.2817C38.078 58.4512 36.594 61.9139 35.6737 65.5435ZM105.74 83.1351C103.56 91.8516 98.2583 99.4655 90.8392 104.533C83.42 109.601 74.3993 111.771 65.487 110.631C56.5748 109.491 48.3905 105.121 42.4858 98.3487C36.5811 91.5766 33.3663 82.8733 33.4508 73.8889C33.5354 64.9044 36.9135 56.2633 42.9447 49.6035C48.9759 42.9438 57.2409 38.7284 66.1731 37.7564C75.1052 36.7845 84.0835 39.1235 91.4059 44.3302C98.7283 49.5369 103.886 57.2492 105.901 66.0052C107.201 71.6477 107.146 77.518 105.74 83.1351Z" fill="#FFFFFD"/>
<path fill-rule="evenodd" clip-rule="evenodd" d="M88.4915 24.3716C88.3376 24.5622 88.1837 24.7527 88.0225 24.936C91.6387 26.2105 95.1025 27.8821 98.3502 29.9203C108.076 36.0072 115.544 45.1095 119.612 55.8377C123.681 66.5659 124.127 78.3307 120.883 89.3364C117.64 100.342 110.884 109.984 101.647 116.791C92.4101 123.597 81.1998 127.195 69.7272 127.033C69.6465 127.261 69.5586 127.488 69.4633 127.708C82.0872 127.954 94.3878 123.706 104.17 115.723C113.952 107.739 120.579 96.5401 122.869 84.1231C125.159 71.7062 122.962 58.8796 116.67 47.9324C110.379 36.9852 100.402 28.6297 88.5209 24.3569L88.4915 24.3716ZM18.4403 79.3307C17.2133 67.724 20.0893 56.054 26.569 46.3465C26.701 46.1412 26.8403 45.958 26.9795 45.7527C26.7303 45.7088 26.4811 45.6428 26.2465 45.5842L25.968 45.98C19.4355 55.7661 16.5195 67.5236 17.7219 79.2281L18.4549 79.3014" fill="#FFFFFD"/>
<path fill-rule="evenodd" clip-rule="evenodd" d="M171.01 60.5667C168.763 61.5016 166.239 61.5108 163.986 60.5923C161.732 59.6738 159.934 57.902 158.981 55.663C158.515 54.5544 158.273 53.3643 158.269 52.1615C158.265 50.9587 158.5 49.7671 158.959 48.6555C159.418 47.5439 160.093 46.5343 160.945 45.6851C161.797 44.836 162.809 44.164 163.922 43.7081C166.168 42.7732 168.693 42.764 170.946 43.6825C173.199 44.601 174.998 46.3728 175.95 48.6117C176.416 49.7204 176.659 50.9105 176.662 52.1133C176.666 53.316 176.432 54.5077 175.972 55.6193C175.513 56.7309 174.838 57.7404 173.986 58.5896C173.134 59.4388 172.123 60.1108 171.01 60.5667ZM188.499 38.7311C188.022 38.4599 185.948 38.8337 183.764 39.6986C182.545 38.1192 181.101 36.7286 179.476 35.5719C180.333 33.7175 181.037 31.6725 180.494 30.8149C179.402 29.0777 173.986 27.5897 173.165 27.817C172.622 27.9636 171.391 29.7447 170.453 31.9437C168.491 31.658 166.499 31.658 164.537 31.9437C163.804 30.0233 162.859 28.0735 161.862 27.8463C159.854 27.3845 154.965 30.1332 154.532 30.8882C154.261 31.3646 154.635 33.4096 155.5 35.5719C153.847 36.7409 152.379 38.1518 151.146 39.7573C149.335 38.951 147.386 38.2913 146.557 38.8337C144.805 39.9259 143.303 45.2986 143.537 46.1636C143.677 46.662 145.238 47.7541 147.239 48.6557C146.867 50.7349 146.825 52.8597 147.114 54.952C145.385 55.6337 143.765 56.4913 143.559 57.3856C143.098 59.3793 145.868 64.239 146.623 64.6641C147.056 64.906 148.764 64.6274 150.684 63.9311C151.96 65.7247 153.517 67.3012 155.294 68.6002C154.62 70.2201 154.166 71.8253 154.627 72.5583C155.727 74.2955 161.144 75.7835 161.957 75.5562C162.419 75.4316 163.423 74.0903 164.259 72.3238C166.465 72.6713 168.713 72.6565 170.914 72.2798C171.581 73.8924 172.38 75.3437 173.253 75.5342C175.268 75.996 180.157 73.2473 180.582 72.4924C180.824 72.0672 180.582 70.3594 179.849 68.4463C181.584 67.1421 183.1 65.5711 184.343 63.7918C186.036 64.5248 187.773 65.0233 188.55 64.5248C190.294 63.4327 191.797 58.0599 191.57 57.195C191.431 56.6892 189.847 55.5897 187.839 54.6882C188.106 52.6402 188.054 50.5632 187.685 48.5311C189.525 47.7981 191.35 46.9185 191.541 45.973C192.032 43.9939 189.261 39.1342 188.499 38.7091V38.7311Z" fill="#F47D55"/>
<path fill-rule="evenodd" clip-rule="evenodd" d="M162.786 40.182C160.447 41.1581 158.451 42.8059 157.048 44.9171C155.646 47.0282 154.901 49.5077 154.908 52.0421C154.916 54.5765 155.674 57.0519 157.088 59.1551C158.502 61.2583 160.508 62.8949 162.853 63.8579C165.197 64.8208 167.774 65.0669 170.259 64.5649C172.743 64.063 175.022 62.8356 176.809 61.038C178.595 59.2403 179.809 56.9532 180.295 54.466C180.782 51.9787 180.52 49.4031 179.542 47.0647C178.229 43.9333 175.728 41.4503 172.587 40.1601C169.446 38.8699 165.922 38.8778 162.786 40.182ZM172.799 64.1433C170.39 65.1524 167.735 65.4237 165.171 64.9229C162.608 64.422 160.251 63.1714 158.398 61.3296C156.546 59.4878 155.282 57.1377 154.767 54.5769C154.252 52.0162 154.508 49.3602 155.504 46.9453C156.499 44.5304 158.189 42.4653 160.36 41.0118C162.53 39.5582 165.083 38.7816 167.695 38.7803C170.307 38.7789 172.861 39.553 175.032 41.0043C177.204 42.4556 178.896 44.5189 179.894 46.9328C181.227 50.1567 181.229 53.7774 179.899 57.0027C178.57 60.228 176.017 62.7954 172.799 64.1433Z" fill="#FFFFFD"/>
<path fill-rule="evenodd" clip-rule="evenodd" d="M183.363 41.6191L183.113 41.685C185.672 45.3014 186.862 49.7091 186.472 54.1217C186.081 58.5343 184.136 62.6647 180.983 65.7759C177.829 68.887 173.673 70.7765 169.255 71.1072C164.838 71.4379 160.447 70.1883 156.865 67.5814L156.645 67.7206C160.262 70.3682 164.7 71.6471 169.171 71.3296C173.641 71.0121 177.854 69.119 181.06 65.987C184.266 62.8549 186.257 58.6871 186.679 54.2251C187.1 49.763 185.925 45.2961 183.363 41.6191ZM151.309 43.3489C153.376 39.6094 156.631 36.6662 160.559 34.9856L160.838 34.9123L160.662 34.7144L160.501 34.773C156.534 36.466 153.242 39.4283 151.141 43.195L151.331 43.3709" fill="#FFFFFD"/>
<path opacity="0.96" fill-rule="evenodd" clip-rule="evenodd" d="M180.042 131.233C175.694 133.046 170.805 133.066 166.442 131.288C162.079 129.509 158.597 126.077 156.755 121.741C155.852 119.599 155.382 117.3 155.372 114.975C155.363 112.651 155.814 110.348 156.7 108.199C157.587 106.05 158.89 104.098 160.535 102.455C162.18 100.813 164.134 99.5128 166.284 98.6302C170.632 96.8171 175.522 96.7976 179.884 98.5759C184.247 100.354 187.729 103.786 189.571 108.122C190.474 110.264 190.944 112.564 190.954 114.888C190.963 117.213 190.512 119.516 189.626 121.665C188.74 123.814 187.437 125.766 185.792 127.408C184.147 129.051 182.193 130.351 180.042 131.233ZM213.891 88.9621C212.968 88.4417 208.958 89.1674 204.729 90.8386C202.368 87.7842 199.57 85.0946 196.424 82.8564C198.081 79.2647 199.444 75.2993 198.403 73.6428C196.278 70.2784 185.796 67.3977 184.169 67.8375C183.121 68.1234 180.739 71.5757 178.921 75.827C175.124 75.2736 171.268 75.2736 167.472 75.827C166.079 72.1181 164.224 68.3359 162.297 67.8962C158.397 67.0092 148.934 72.2941 148.099 73.76C147.571 74.6763 148.304 78.6344 149.968 82.8197C146.775 85.0876 143.938 87.8201 141.553 90.9265C138.042 89.3653 134.275 88.1412 132.662 89.1454C129.276 91.249 126.373 101.65 126.798 103.277C127.069 104.238 130.089 106.356 133.959 108.093C133.237 112.116 133.155 116.227 133.718 120.275C130.368 121.595 127.238 123.266 126.842 124.988C125.948 128.851 131.306 138.248 132.772 139.084C133.608 139.553 136.913 139.018 140.637 137.698C143.105 141.178 146.12 144.235 149.565 146.751C148.253 149.866 147.366 152.981 148.267 154.403C150.393 157.767 160.875 160.648 162.502 160.208C163.403 159.959 165.295 157.379 166.958 153.956C171.23 154.626 175.582 154.597 179.844 153.868C181.142 156.983 182.732 159.79 184.374 160.164C188.274 161.051 197.736 155.766 198.572 154.3C199.048 153.479 198.499 150.181 197.165 146.472C200.526 143.951 203.461 140.907 205.858 137.456C209.149 138.856 212.506 139.846 214.009 138.922C217.395 136.811 220.298 126.41 219.873 124.783C219.601 123.816 216.552 121.69 212.653 119.938C213.166 115.974 213.067 111.954 212.359 108.02C215.922 106.664 219.403 104.897 219.829 103.072C220.723 99.1946 215.365 89.7977 213.891 88.9621Z" fill="#F8D373"/>
<path fill-rule="evenodd" clip-rule="evenodd" d="M164.121 91.8206C159.595 93.7108 155.731 96.9006 153.019 100.987C150.306 105.073 148.866 109.872 148.88 114.776C148.895 119.681 150.364 124.471 153.101 128.541C155.838 132.611 159.721 135.778 164.258 137.641C168.795 139.504 173.783 139.979 178.59 139.007C183.398 138.036 187.809 135.66 191.266 132.181C194.723 128.702 197.071 124.276 198.013 119.462C198.954 114.649 198.447 109.664 196.556 105.139C194.014 99.0776 189.172 94.2717 183.091 91.7751C177.011 89.2785 170.189 89.2948 164.121 91.8206ZM183.501 138.197C178.853 140.14 173.733 140.662 168.788 139.695C163.843 138.729 159.296 136.318 155.722 132.767C152.148 129.216 149.707 124.684 148.709 119.746C147.71 114.808 148.198 109.684 150.112 105.023C152.025 100.363 155.278 96.374 159.459 93.5621C163.639 90.7502 168.56 89.2413 173.598 89.2262C178.636 89.2111 183.566 90.6905 187.763 93.4774C191.961 96.2642 195.237 100.233 197.179 104.882C199.775 111.115 199.793 118.122 197.229 124.368C194.664 130.613 189.728 135.587 183.501 138.197Z" fill="#FFFFFD"/>
<path fill-rule="evenodd" clip-rule="evenodd" d="M203.943 94.5918C203.782 94.6456 203.621 94.6896 203.46 94.7238C208.404 101.724 210.702 110.253 209.944 118.79C209.186 127.327 205.422 135.318 199.322 141.338C193.221 147.358 185.182 151.017 176.635 151.662C168.089 152.307 159.591 149.896 152.657 144.86C152.525 144.955 152.385 145.05 152.239 145.138C159.242 150.288 167.847 152.78 176.518 152.171C185.188 151.562 193.361 147.891 199.575 141.813C205.789 135.735 209.641 127.647 210.442 118.992C211.244 110.336 208.943 101.678 203.951 94.5625L203.943 94.5918ZM141.882 97.9489C145.887 90.7086 152.198 85.0147 159.81 81.7719L160.272 81.5887C160.155 81.4641 160.052 81.3321 159.942 81.1929L159.627 81.3175C151.944 84.5879 145.569 90.3235 141.508 97.6191L141.882 97.9489Z" fill="#FFFFFD"/>
<path d="M90.7345 143.394C90.7345 143.394 71.8675 152.19 65.0434 144.046C60.5129 138.461 56.582 132.415 53.3157 126.007C53.3157 126.007 52.1795 117.717 43.0539 130.882L32.0078 125.685C32.0078 125.685 44.1973 109.435 51.0214 111.025C57.8455 112.616 60.4403 114.111 65.6445 124.673C70.8487 135.236 70.3576 135.397 74.257 136.049L83.1921 135.881L90.7345 143.394Z" fill="#AE85BC"/>
<path d="M72.1445 60.5666C72.1445 60.5666 72.555 30.4409 96.1131 19.087C119.671 7.73307 135.181 14.5498 135.181 14.5498L157.354 29.6933C157.354 29.6933 166.296 39.5959 167.147 50.0702C167.997 60.5446 167.147 61.9959 167.147 61.9959L159.912 79.6242L80.3979 81.4273L72.1445 60.5666Z" fill="#6F3E98"/>
<path d="M72.1445 60.5664V133.689C72.1445 133.689 84.378 145.145 113.58 147.095C131.204 148.266 148.905 147.118 166.23 143.679L167.176 62.0324C167.176 62.0324 159.245 67.4125 119.642 66.4303C80.0388 65.4481 72.1445 60.5664 72.1445 60.5664Z" fill="#8F5EA7"/>
<path d="M162.594 36.9281C159.305 37.7151 155.952 38.2057 152.575 38.394C147.128 38.6946 141.074 38.394 141.074 38.394H122.112L94.1923 37.6611L79.2834 35.2129C77.1148 36.4487 75.4532 38.4115 74.5923 40.7543L72.6719 46.5082L75.6551 47.9741L92.2792 50.3197L120.616 51.5951H138.941L153.505 51.2726C153.505 51.2726 160.696 50.6056 163.562 49.748C165.074 49.3485 166.514 48.7128 167.828 47.8642L162.594 36.9281Z" fill="#F9D578"/>
<path d="M166.7 70.6743H171.948C172.73 73.6499 173.148 76.7092 173.194 79.7853C173.11 83.0145 172.599 86.2184 171.677 89.3141H165.461C164.992 86.2265 164.715 83.1126 164.633 79.9905C164.647 76.0398 166.7 70.6743 166.7 70.6743Z" fill="#381E59"/>
<path d="M124.363 36.6933L131.986 34.6702C131.986 34.6702 140.841 34.2671 141.654 41.3477C142.468 48.4283 139.617 51.0378 139.617 51.0378L133.02 54.5708L124.363 36.6933Z" fill="#381E59"/>
<path d="M128.908 55.45C134.296 55.45 138.664 51.0821 138.664 45.694C138.664 40.3059 134.296 35.938 128.908 35.938C123.52 35.938 119.152 40.3059 119.152 45.694C119.152 51.0821 123.52 55.45 128.908 55.45Z" fill="#B89AC9"/>
<path d="M83.2422 33.996L90.7333 33.4463C92.947 35.0418 94.4574 37.4321 94.9479 40.1164C95.3728 42.9299 94.7438 45.8012 93.1815 48.1793L89.971 51.6463L83.2422 33.996Z" fill="#381E59"/>
<path d="M84.5398 53.8741C89.3167 53.8741 93.1891 49.4242 93.1891 43.9349C93.1891 38.4456 89.3167 33.9956 84.5398 33.9956C79.763 33.9956 75.8906 38.4456 75.8906 43.9349C75.8906 49.4242 79.763 53.8741 84.5398 53.8741Z" fill="#B89AC9"/>
<path d="M84.2486 51.0154C87.8312 51.0154 90.7355 47.8092 90.7355 43.8541C90.7355 39.8991 87.8312 36.6929 84.2486 36.6929C80.666 36.6929 77.7617 39.8991 77.7617 43.8541C77.7617 47.8092 80.666 51.0154 84.2486 51.0154Z" fill="#EBE3F1"/>
<path d="M128.93 52.9213C132.954 52.9213 136.216 49.6593 136.216 45.6355C136.216 41.6116 132.954 38.3496 128.93 38.3496C124.907 38.3496 121.645 41.6116 121.645 45.6355C121.645 49.6593 124.907 52.9213 128.93 52.9213Z" fill="#EBE3F1"/>
<path d="M171.164 75.4097V85.1364H184.292C184.292 85.1364 197.434 83.0914 200.842 75.4097C204.251 67.728 200.842 57.3123 200.842 57.3123C200.842 57.3123 199.318 52.9877 197.91 51.016C196.503 49.0442 195.711 47.395 190.734 42.55C185.758 37.705 162.06 21.2935 162.06 21.2935L157.457 29.1437L179.161 46.3908C179.161 46.3908 186.688 51.9542 189.914 59.0202C193.139 66.0861 192.054 67.9626 192.054 67.9626C192.054 67.9626 191.805 72.9102 186.19 74.3835C180.575 75.8568 171.164 75.4097 171.164 75.4097Z" fill="#AE85BC"/>
<path d="M69.0292 67.9331V77.2713C69.0292 77.2713 52.0386 74.6838 46.6365 71.1948C41.2344 67.7058 38.3098 65.0891 36.6239 59.1519C34.9381 53.2147 37.8993 45.8482 39.0941 44.6095C40.2888 43.3708 44.0197 39.0095 54.1789 32.7058L74.3433 20.2524L78.0742 28.5791L54.1789 43.2828C54.1789 43.2828 44.3862 47.5781 45.0606 54.5488C45.7349 61.5194 50.7998 63.3446 50.7998 63.3446C50.7998 63.3446 55.6082 66.7603 60.2553 67.1708L69.0292 67.9331Z" fill="#AE85BC"/>
<path d="M139.352 147.059C139.352 147.059 141.903 152.967 144.182 144.031C146.462 135.096 149.54 122.254 155.719 123.068C161.898 123.882 165.629 125.509 168.07 142.734L153.85 143.379L150.845 146.311L150.684 151.515L144.343 156.873L134.668 147.345L139.352 147.059Z" fill="#AE85BC"/>
<path d="M163.276 174.669C179.28 173.393 191.974 168.848 191.628 164.518C191.283 160.188 178.029 157.713 162.025 158.989C146.021 160.266 133.327 164.81 133.672 169.14C134.017 173.47 147.271 175.946 163.276 174.669Z" fill="#381E59"/>
<path d="M189.232 157.701L191.628 164.511L133.664 169.136L133.943 162.752L149.108 150.122L148.58 144.808C148.58 144.808 151.637 141.62 158.842 141.62C162.575 141.564 166.306 141.787 170.005 142.287V147.865L189.232 157.701Z" fill="#381E59"/>
<path d="M49.6275 156.518C50.4574 155.074 41.5742 148.412 29.7864 141.637C17.9986 134.862 7.76999 130.541 6.94012 131.985C6.11025 133.429 14.9934 140.092 26.7812 146.866C38.569 153.641 48.7976 157.962 49.6275 156.518Z" fill="#381E59"/>
<path d="M29.5363 123.061L27.6599 127.715L8.54364 129.467L6.41797 132.853L48.9311 157.394L50.9614 154.19L42.7227 135.719L45.2441 131.732C45.2441 131.732 40.729 128.272 37.2693 126.014C34.898 124.557 32.2754 123.555 29.5363 123.061Z" fill="#381E59"/>
<path d="M152.176 29.7296L154.008 31.5327L156.149 31.0782L164.094 24.0563L165.296 20.7652L162.049 17.562L158.384 21.2929L155.628 25.7055L152.176 29.7296Z" fill="#381E59"/>
<path d="M148.075 25.6693C149.885 25.3321 152.67 23.9541 150.691 21.0588C149.153 18.863 147.079 17.0968 144.666 15.9279L143.156 10.841L151.307 0.000172608C151.307 0.000172608 154.972 -0.263702 160.271 5.90803C165.571 12.0798 163.768 15.7887 163.768 15.7887L158.358 21.286L155.61 25.6839L152.157 29.708C149.901 30.1139 147.577 29.8856 145.443 29.0483C144.871 28.8358 144.314 28.6012 143.787 28.352L148.075 25.6693Z" fill="#F9D578"/>
<path d="M142.917 13.2891L137.449 20.4063C137.449 20.4063 138.519 23.6168 140.088 25.1634C141.256 26.2793 142.479 27.3361 143.753 28.3299L150.423 26.5781L154.975 20.4137L142.917 13.2891Z" fill="#F9D578"/>
<path d="M97.5287 19.241C97.3894 20.7742 96.9591 22.2668 96.2606 23.6389C95.1465 25.6912 92.4198 26.8347 92.4198 26.8347C90.6079 27.5053 88.7234 27.9604 86.8051 28.1907C83.4701 28.6232 82.0114 28.264 82.0114 28.264L79.2481 29.9132C79.2481 29.9132 76.3161 29.708 73.7947 25.8012C71.2732 21.8944 71.5224 19.9373 71.5224 19.9373L73.3842 18.4713C73.3842 18.4713 73.5675 12.4389 75.8397 10.2106C78.112 7.98232 79.3727 6.97813 81.4177 6.3551C83.4627 5.73206 88.8135 5.96661 88.8135 5.96661V9.70483L82.1654 13.6923C82.1654 13.6923 79.6586 16.2064 81.7989 19.798C83.9392 23.3897 84.936 23.1478 86.6365 22.9499C88.3371 22.752 89.158 19.2849 89.158 19.2849L94.135 18.0535L97.5287 19.241Z" fill="#F9D578"/>
<path d="M72.1684 63.667V81.6105L68.4375 77.0586V68.0796L72.1684 63.667Z" fill="#381E59"/>
</g>
<defs>
<clipPath id="clip0_2755_12143">
<rect width="219.368" height="175" fill="white" transform="translate(0.5625)"/>
</clipPath>
</defs>
</svg>
