<svg xmlns="http://www.w3.org/2000/svg" width="14" height="14" viewBox="0 0 14 14">
    <g fill="none" fill-rule="evenodd">
        <g fill="#6F389F" fill-rule="nonzero">
            <g>
                <g>
                    <path d="M12.834 1.313h-1.896V.438c0-.242-.196-.438-.438-.438s-.438.196-.438.438v.875H7.438V.438C7.438.196 7.242 0 7 0s-.438.196-.438.438v.875H3.938V.438C3.938.196 3.741 0 3.5 0s-.438.196-.438.438v.875H1.167C.522 1.313 0 1.833 0 2.478v10.354C0 13.478.522 14 1.167 14h11.667c.644 0 1.166-.522 1.166-1.167V2.48c0-.645-.522-1.167-1.166-1.167zm.291 11.52c0 .161-.13.292-.291.292H1.167c-.161 0-.292-.13-.292-.292V2.48c0-.16.13-.292.292-.292h1.895v.876c0 .241.197.437.438.437s.438-.196.438-.438v-.874h2.624v.874c0 .242.196.438.438.438s.438-.196.438-.438v-.874h2.625v.874c0 .242.195.438.437.438s.438-.196.438-.438v-.874h1.896c.16 0 .291.13.291.29v10.355z" transform="translate(-798 -394) translate(398 194) translate(400 200)"/>
                    <path d="M3.063 5.25H4.813000000000001V6.563H3.063zM3.063 7.438H4.813000000000001V8.751H3.063zM3.063 9.625H4.813000000000001V10.938H3.063zM6.125 9.625H7.875V10.938H6.125zM6.125 7.438H7.875V8.751H6.125zM6.125 5.25H7.875V6.563H6.125zM9.188 9.625H10.938V10.938H9.188zM9.188 7.438H10.938V8.751H9.188zM9.188 5.25H10.938V6.563H9.188z" transform="translate(-798 -394) translate(398 194) translate(400 200)"/>
                </g>
            </g>
        </g>
    </g>
</svg>
