<svg width="25" height="25" viewBox="0 0 25 25" fill="none" xmlns="http://www.w3.org/2000/svg">
<path fill-rule="evenodd" clip-rule="evenodd" d="M25 12.5C25 19.4036 19.4036 25 12.5 25C5.59644 25 0 19.4036 0 12.5C0 5.59644 5.59644 0 12.5 0C19.4036 0 25 5.59644 25 12.5ZM16.5284 7.68766L5.44339 11.7658L5.44424 11.7666C4.68423 12.05 4.69757 12.4509 5.31342 12.6376L8.15173 13.4827L14.7334 9.5271C15.0401 9.3329 15.3234 9.44292 15.0917 9.63795L9.76422 14.2303L9.56006 17.0224C9.85675 17.0224 9.98672 16.899 10.1401 16.7532L11.5259 15.478L14.4009 17.4999C14.9251 17.7833 15.2992 17.6366 15.4392 17.0349L17.3268 8.54862L17.3259 8.54945C17.4926 7.80685 17.0434 7.51014 16.5284 7.68766Z" fill="#DC143C"/>
</svg>
