<svg width="25" height="25" viewBox="0 0 25 25" fill="none" xmlns="http://www.w3.org/2000/svg">
<path fill-rule="evenodd" clip-rule="evenodd" d="M17.47 9.95C17.475 10.0608 17.4783 10.1708 17.4783 10.2833C17.4783 13.6708 14.8983 17.5792 10.1817 17.5792C8.7325 17.5792 7.385 17.1542 6.25 16.4275C6.45 16.4508 6.655 16.4625 6.86167 16.4625C8.06333 16.4625 9.16833 16.0533 10.0467 15.365C8.92417 15.3442 7.9775 14.6033 7.65083 13.5842C7.8075 13.6142 7.9675 13.63 8.13417 13.63C8.3675 13.63 8.59417 13.5983 8.80917 13.54C7.63583 13.305 6.7525 12.2683 6.7525 11.0258V10.9925C7.0975 11.185 7.49417 11.3008 7.91417 11.3142C7.22583 10.8542 6.7725 10.0683 6.7725 9.18C6.7725 8.70917 6.89917 8.26833 7.12 7.89C8.385 9.44167 10.275 10.4625 12.4067 10.5692C12.3625 10.3817 12.34 10.1858 12.34 9.98583C12.34 8.56917 13.4883 7.42 14.9042 7.42C15.6425 7.42 16.3083 7.73167 16.7758 8.23083C17.36 8.11583 17.9092 7.9025 18.405 7.60833C18.2133 8.20667 17.8067 8.70917 17.2775 9.0275C17.7958 8.965 18.29 8.8275 18.75 8.62333C18.4067 9.1375 17.9708 9.58917 17.47 9.95083V9.95ZM12.5 0C5.59583 0 0 5.59583 0 12.5C0 19.4033 5.59583 25 12.5 25C19.4042 25 25 19.4033 25 12.5C25 5.59583 19.4042 0 12.5 0Z" fill="#DC143C"/>
</svg>
