<svg width="25" height="25" viewBox="0 0 25 25" fill="none" xmlns="http://www.w3.org/2000/svg">
<path fill-rule="evenodd" clip-rule="evenodd" d="M18.7499 12.9719C18.7499 13.9836 18.6249 14.9954 18.6249 14.9954C18.6249 14.9954 18.503 15.8563 18.128 16.236C17.653 16.7336 17.1202 16.736 16.8757 16.7649C15.1265 16.8915 12.4999 16.8954 12.4999 16.8954C12.4999 16.8954 9.24992 16.8657 8.24992 16.7704C7.9718 16.718 7.3468 16.7336 6.8718 16.236C6.4968 15.8563 6.37492 14.9954 6.37492 14.9954C6.37492 14.9954 6.24992 13.9836 6.24992 12.9719V12.0235C6.24992 11.0118 6.37492 10.0008 6.37492 10.0008C6.37492 10.0008 6.4968 9.13911 6.8718 8.75942C7.3468 8.26176 7.87961 8.25942 8.12414 8.23051C9.87336 8.10395 12.4976 8.10395 12.4976 8.10395H12.5023C12.5023 8.10395 15.1265 8.10395 16.8757 8.23051C17.1202 8.25942 17.653 8.26176 18.128 8.75942C18.503 9.13911 18.6249 10.0008 18.6249 10.0008C18.6249 10.0008 18.7499 11.0118 18.7499 12.0235V12.9719ZM12.5 0C5.59609 0 0 5.59609 0 12.5C0 19.4031 5.59609 25 12.5 25C19.4039 25 25 19.4031 25 12.5C25 5.59609 19.4039 0 12.5 0Z" fill="#DC143C"/>
<path fill-rule="evenodd" clip-rule="evenodd" d="M11.2098 14.1211L14.5871 12.3711L11.209 10.6086L11.2098 14.1211Z" fill="#DC143C"/>
</svg>
