<svg width="197" height="116" viewBox="0 0 197 116" fill="none" xmlns="http://www.w3.org/2000/svg">
<g opacity="0.5">
<path d="M24.3198 47.1538C26.0893 47.1551 27.8534 47.3655 29.581 47.7812C32.186 40.5113 36.6505 34.1998 42.4493 29.5891C48.2481 24.9783 55.14 22.2602 62.3143 21.7544C66.5384 15.0454 72.2086 9.55699 78.8322 5.7658C85.4558 1.97461 92.8324 -0.00463951 100.321 8.16637e-06C109.307 0.000685999 118.097 2.85396 125.607 8.20817C133.116 13.5624 139.018 21.1835 142.584 30.1322C147.542 30.9362 152.26 32.9792 156.365 36.1001C160.47 39.2209 163.851 43.3342 166.24 48.1153C168.346 47.4834 170.521 47.1634 172.705 47.164C178.544 47.1646 184.187 49.4447 188.603 53.5875C193.019 57.7302 195.914 63.4589 196.758 69.7264C196.899 70.7839 196.98 71.8497 197 72.918C197 73.1226 197 73.3272 197 73.5352C196.998 80.5248 194.437 87.2273 189.882 92.1698C185.326 97.1122 179.148 99.89 172.705 99.8927C166.795 99.9015 161.085 97.563 156.655 93.3187C151.44 97.3887 145.221 99.6723 138.8 99.8756C135.542 104.695 131.283 108.613 126.369 111.311C121.454 114.01 116.022 115.413 110.514 115.407C104.865 115.411 99.2998 113.934 94.2914 111.101C89.283 108.268 84.9802 104.163 81.7499 99.1357C76.4786 102.027 70.6534 103.529 64.7469 103.521C55.6927 103.535 46.9383 100.002 40.094 93.571C35.699 97.6584 30.0991 99.9013 24.3103 99.8927C18.7559 99.8924 13.3692 97.8282 9.04666 94.0438C4.72415 90.2594 1.72668 84.9831 0.553177 79.0931C0.452606 78.5884 0.37088 78.0702 0.295456 77.5621C0.105118 76.2228 0.00843811 74.8698 0.00630188 73.5147C0.00880432 66.5212 2.57169 59.8152 7.13126 54.8717C11.6908 49.9281 17.8737 47.1519 24.3198 47.1538Z" fill="#F5F5FF"/>
<path opacity="0.8" d="M172.979 50.5533C170.793 50.5524 168.617 50.8724 166.511 51.5046C164.121 46.7235 160.741 42.6102 156.635 39.4894C152.53 36.3685 147.812 34.3255 142.854 33.5215C139.287 24.5752 133.385 16.9566 125.876 11.6044C118.367 6.2521 109.579 3.40002 100.595 3.39954C93.1059 3.39489 85.7292 5.37414 79.1056 9.16533C72.482 12.9565 66.8118 18.445 62.5877 25.1539C55.4134 25.6597 48.5215 28.3779 42.7227 32.9886C36.9239 37.5993 32.4594 43.9109 29.8544 51.1807C28.1268 50.765 26.3627 50.5547 24.5932 50.5533C18.1471 50.5542 11.9652 53.333 7.40744 58.2784C2.84964 63.2239 0.289154 69.931 0.289154 76.9245C0.289154 77.1427 0.289154 77.3541 0.289154 77.5723C0.0988007 76.233 0.00215149 74.88 0 73.5249C0 66.5314 2.5605 59.8244 7.1183 54.8789C11.6761 49.9334 17.8579 47.1547 24.304 47.1538C26.0736 47.1551 27.8377 47.3655 29.5652 47.7812C32.1703 40.5113 36.6348 34.1998 42.4336 29.5891C48.2324 24.9783 55.1243 22.2602 62.2985 21.7544C66.5227 15.0454 72.1929 9.55699 78.8165 5.7658C85.4401 1.97461 92.8167 -0.00463951 100.306 8.16637e-06C109.294 -0.00264178 118.087 2.84908 125.6 8.20348C133.113 13.5579 139.017 21.1808 142.584 30.1322C147.542 30.9362 152.26 32.9792 156.365 36.1001C160.47 39.2209 163.851 43.3342 166.24 48.1153C168.346 47.4834 170.521 47.1634 172.705 47.164C178.544 47.1646 184.187 49.4447 188.603 53.5875C193.019 57.7302 195.914 63.4589 196.758 69.7264C196.899 70.7839 196.98 71.8497 197 72.918C196.118 66.6921 193.211 61.0143 188.805 56.9121C184.399 52.81 178.785 50.5543 172.979 50.5533Z" fill="white"/>
<path d="M110.526 45.5103C101.947 45.5073 93.6647 48.9143 87.2441 55.0872C80.8235 61.2601 76.7099 69.7711 75.681 79.0113C75.5144 77.4984 75.4305 75.9761 75.4295 74.4525C75.4295 69.4531 76.3375 64.5027 78.1015 59.8842C79.8655 55.2656 82.451 51.0694 85.7103 47.5352C88.9696 44.0011 92.8387 41.1983 97.0968 39.287C101.355 37.3757 105.918 36.3933 110.526 36.396C115.133 36.396 119.695 37.3806 123.951 39.2935C128.208 41.2065 132.075 44.0103 135.332 47.5449C138.59 51.0795 141.173 55.2756 142.936 59.8936C144.698 64.5116 145.605 69.4611 145.604 74.4593C145.603 75.9829 145.519 77.5052 145.353 79.0181C144.326 69.7799 140.216 61.2697 133.799 55.0957C127.382 48.9217 119.103 45.5118 110.526 45.5103Z" fill="white"/>
<path opacity="0.05" d="M0.566177 79.1032C1.73969 84.9932 4.73717 90.2695 9.05966 94.0539C13.3822 97.8383 18.7689 99.9025 24.3233 99.9028C30.1121 99.9114 35.712 97.6685 40.107 93.5811C46.9514 100.012 55.7057 103.545 64.7599 103.531C70.6664 103.539 76.4916 102.037 81.7629 99.1458C84.9933 104.173 89.296 108.278 94.3044 111.111C99.3128 113.944 104.878 115.422 110.527 115.417C116.035 115.423 121.467 114.02 126.382 111.321C131.296 108.623 135.555 104.705 138.813 99.8857C145.234 99.6824 151.453 97.3987 156.668 93.3287C161.097 97.5663 166.801 99.9008 172.706 99.8926C179.15 99.8889 185.328 97.1093 189.883 92.1648C194.438 87.2203 196.997 80.5156 196.997 73.5248C196.998 72.2503 196.914 70.9774 196.746 69.7161C194.914 74.6057 182.996 102.719 157.167 84.6577C157.167 84.6577 143.577 96.8544 129.991 90.6418C129.991 90.6418 113.896 123.891 82.1244 90.7816C82.1244 90.7816 63.5216 107.728 40.5281 87.2355C40.5407 87.2355 23.5093 102.368 0.566177 79.1032Z" fill="#1D1D1B"/>
</g>
</svg>
