<svg width="303" height="139" viewBox="0 0 303 139" fill="none" xmlns="http://www.w3.org/2000/svg">
<g opacity="0.5">
<path d="M300.836 89.5598C299.379 86.9731 297.26 84.8208 294.698 83.3237C292.135 81.8266 289.221 81.0386 286.253 81.0403C285.815 81.0403 285.383 81.0632 284.952 81.0975C283.949 74.5557 280.638 68.5896 275.62 64.279C270.602 59.9684 264.207 57.5982 257.594 57.5973C255.985 57.5984 254.379 57.7402 252.794 58.0212C251.612 52.8301 248.703 48.1951 244.543 44.8758C240.384 41.5566 235.221 39.7501 229.901 39.7526C225.48 39.7471 221.15 40.9985 217.412 43.3612C214.522 35.7273 209.379 29.1545 202.666 24.5162C195.954 19.8779 187.99 17.3939 179.833 17.3942C174.689 17.3883 169.593 18.3737 164.822 20.2964C159.203 13.9101 152.288 8.79648 144.538 5.2966C136.787 1.79672 128.381 -0.00895872 119.878 3.34206e-05C106.53 0.00211266 93.5633 4.46106 83.0326 12.6707C72.5019 20.8803 65.0088 32.3714 61.7401 45.3241C61.6866 45.5303 61.6333 45.7365 61.5837 45.9465L61.5379 45.9159C55.1408 41.8813 47.7319 39.7443 40.1706 39.7526C31.0763 39.7537 22.2514 42.8423 15.1383 48.5135C8.02526 54.1847 3.04485 62.103 1.01114 70.9742C0.445573 73.4462 0.115944 75.9664 0.0267119 78.5008C0.00763398 78.9858 0 79.4708 0 79.9596C0.00101178 90.6218 4.23359 100.847 11.7668 108.386C19.3 115.926 29.517 120.162 40.1706 120.163C43.1342 120.165 46.089 119.838 48.9807 119.189C52.5953 124.952 57.613 129.702 63.5633 132.993C69.5137 136.285 76.2018 138.01 83.0006 138.007C89.6542 138.012 96.2044 136.36 102.062 133.201C107.919 130.042 112.899 125.475 116.555 119.911C117.661 119.972 118.772 120.006 119.894 120.006C131.905 120.025 143.642 116.415 153.57 109.65C159.706 114.341 167.216 116.876 174.937 116.863C182.254 116.874 189.391 114.596 195.351 110.349C198.3 114.694 202.268 118.25 206.907 120.707C211.546 123.164 216.716 124.447 221.964 124.443C227.024 124.444 232.012 123.25 236.523 120.957C241.035 118.665 244.941 115.339 247.926 111.25C251.019 112.403 254.293 112.993 257.594 112.991C263.138 113 268.554 111.333 273.135 108.21C274.701 110.19 276.695 111.79 278.967 112.889C281.239 113.988 283.73 114.559 286.253 114.557C289.398 114.557 292.48 113.67 295.145 112C297.81 110.329 299.952 107.941 301.325 105.109C302.43 102.83 303.003 100.33 303 97.7967C303.004 94.9099 302.258 92.0716 300.836 89.5598Z" fill="#F5F5FF"/>
<g opacity="0.57">
<path opacity="0.7" d="M303 97.8005C303.004 94.9124 302.259 92.0727 300.837 89.5597C299.379 86.973 297.26 84.8208 294.698 83.3237C292.135 81.8266 289.221 81.0386 286.253 81.0403C285.815 81.0403 285.383 81.0632 284.952 81.0975C283.949 74.5557 280.638 68.5896 275.62 64.279C270.602 59.9684 264.208 57.5982 257.595 57.5973C255.985 57.5984 254.379 57.7402 252.795 58.0212C251.612 52.8301 248.703 48.1951 244.543 44.8758C240.384 41.5566 235.221 39.7501 229.901 39.7526C225.481 39.7471 221.15 40.9985 217.413 43.3612C214.522 35.7273 209.379 29.1545 202.666 24.5162C195.954 19.8779 187.99 17.3939 179.833 17.3942C174.689 17.3883 169.593 18.3737 164.822 20.2964C159.203 13.9101 152.288 8.79648 144.538 5.2966C136.788 1.79672 128.381 -0.00895872 119.878 3.34206e-05C106.53 0.00211266 93.5634 4.46106 83.0327 12.6707C72.502 20.8803 65.009 32.3714 61.7402 45.324C65.8424 33.5673 73.497 23.3785 83.6431 16.1697C93.7892 8.9609 105.924 5.08894 118.367 5.09035C126.87 5.08136 135.277 6.88703 143.027 10.3869C150.777 13.8868 157.692 19.0004 163.311 25.3867C168.082 23.464 173.179 22.4786 178.322 22.4845C186.479 22.4842 194.443 24.9682 201.155 29.6065C207.868 34.2448 213.011 40.8176 215.902 48.4516C219.639 46.0888 223.97 44.8373 228.39 44.8429C233.71 44.8404 238.873 46.6469 243.032 49.9661C247.192 53.2854 250.101 57.9204 251.284 63.1115C252.868 62.8306 254.474 62.6887 256.084 62.6876C262.697 62.6885 269.091 65.0588 274.109 69.3693C279.127 73.6799 282.438 79.646 283.441 86.1878C283.873 86.1535 284.304 86.1306 284.742 86.1306C287.71 86.1289 290.624 86.917 293.187 88.414C295.749 89.9111 297.868 92.0634 299.326 94.6501C300.748 97.163 301.493 100.003 301.489 102.891C301.488 103.632 301.438 104.371 301.34 105.106C302.439 102.828 303.007 100.33 303 97.8005Z" fill="white"/>
<path opacity="0.7" d="M1.01099 70.9738C3.87886 63.3018 9.01932 56.6892 15.7446 52.0207C22.47 47.3522 30.4594 44.8504 38.6441 44.8502C46.2294 44.8386 53.6614 46.9868 60.0725 51.0441C60.4922 49.3053 60.9857 47.5958 61.5529 45.9156C55.1558 41.8809 47.747 39.7439 40.1856 39.7522C31.0887 39.7499 22.2603 42.8369 15.1441 48.5084C8.02797 54.1798 3.04528 62.1001 1.01099 70.9738Z" fill="white"/>
</g>
<path d="M61.7553 45.324C61.6866 45.5225 61.6179 45.7058 61.553 45.9159L61.5988 45.9464C61.6485 45.7364 61.7019 45.5302 61.7553 45.324Z" fill="#E2D7EC"/>
<path d="M118.195 52.4417C128.111 52.4422 137.671 56.1413 145.008 62.8167C152.346 69.4921 156.934 78.6646 157.877 88.5435C157.996 87.2948 158.057 86.027 158.057 84.7478C158.055 74.1686 153.854 64.0234 146.379 56.5435C138.904 49.0636 128.766 44.8616 118.195 44.8616C107.623 44.8616 97.4844 49.0646 90.0089 56.5462C82.5335 64.0277 78.3338 74.1749 78.3338 84.7554C78.3338 86.0347 78.3987 87.3025 78.5169 88.5512C79.4576 78.6712 84.0443 69.4968 91.3812 62.8198C98.7182 56.1427 108.279 52.4425 118.195 52.4417Z" fill="white"/>
<path d="M227.55 74.4569C232.508 74.4571 237.287 76.3061 240.956 79.643C244.624 82.9799 246.919 87.5652 247.391 92.504C247.449 91.8816 247.483 91.2477 247.483 90.5947C247.479 85.3066 245.377 80.2364 241.639 76.4986C237.902 72.7608 232.834 70.6611 227.55 70.6611C224.932 70.6631 222.341 71.1813 219.923 72.1859C217.506 73.1906 215.309 74.6621 213.46 76.5164C211.611 78.3707 210.145 80.5714 209.146 82.9929C208.146 85.4144 207.634 88.0092 207.637 90.6291C207.637 91.2668 207.667 91.9007 207.724 92.5384C208.189 87.5964 210.479 83.0053 214.145 79.6618C217.811 76.3184 222.59 74.4626 227.55 74.4569Z" fill="white"/>
<path opacity="0.05" d="M303 97.8004C303 100.001 302.567 102.181 301.725 104.214C300.884 106.248 299.65 108.095 298.095 109.652C296.54 111.208 294.694 112.443 292.662 113.285C290.63 114.127 288.453 114.561 286.253 114.561C283.73 114.562 281.239 113.992 278.967 112.893C276.695 111.794 274.701 110.194 273.135 108.214C268.554 111.337 263.138 113.003 257.594 112.995C254.293 112.996 251.019 112.405 247.926 111.25C244.94 115.34 241.031 118.666 236.518 120.958C232.004 123.25 227.014 124.443 221.953 124.44C216.704 124.443 211.535 123.16 206.895 120.703C202.256 118.246 198.289 114.69 195.339 110.345C189.379 114.592 182.242 116.87 174.926 116.859C167.204 116.872 159.694 114.337 153.558 109.646C143.63 116.411 131.893 120.021 119.882 120.002C118.76 120.002 117.65 119.968 116.543 119.907C112.888 125.471 107.907 130.038 102.05 133.197C96.193 136.356 89.6427 138.008 82.9891 138.004C76.1926 138.005 69.5071 136.279 63.5589 132.988C57.6108 129.698 52.5947 124.949 48.9808 119.189C46.089 119.838 43.1342 120.165 40.1706 120.163C29.517 120.162 19.3 115.926 11.7668 108.386C4.23359 100.847 0.00101178 90.6217 0 79.9595C0 79.4707 2.79451e-06 78.9857 0.0267119 78.5007C0.85088 80.3719 18.5819 119.796 52.2774 108.413C52.2774 108.413 68.3983 157.173 118.196 110.456C118.196 110.456 131.962 118.597 151.502 99.2935C151.502 99.2935 172.564 120.514 195.381 102.284C195.381 102.284 225.982 132.195 247.479 102.284C247.479 102.284 260.345 106.205 275.066 95.891C275.066 95.891 291.855 111.166 300.817 89.5597C302.246 92.0708 302.999 94.9106 303 97.8004Z" fill="#1D1D1B"/>
</g>
</svg>
