<svg width="1770" height="396" viewBox="0 0 1770 396" fill="none" xmlns="http://www.w3.org/2000/svg">
<g opacity="0.7">
<path d="M544.987 175.491C543.921 173.599 542.372 172.025 540.498 170.931C538.624 169.836 536.493 169.26 534.323 169.261C534.002 169.261 533.687 169.278 533.372 169.303C532.638 164.519 530.217 160.156 526.547 157.004C522.878 153.852 518.202 152.119 513.366 152.118C512.189 152.119 511.015 152.223 509.856 152.428C508.992 148.632 506.864 145.243 503.822 142.815C500.781 140.388 497.005 139.067 493.115 139.069C489.883 139.065 486.716 139.98 483.983 141.708C481.869 136.126 478.108 131.319 473.2 127.927C468.291 124.536 462.468 122.719 456.503 122.719C452.742 122.715 449.015 123.436 445.526 124.842C441.417 120.172 436.36 116.432 430.693 113.873C425.026 111.314 418.879 109.993 412.661 110C402.9 110.002 393.418 113.262 385.718 119.265C378.017 125.269 372.538 133.672 370.147 143.143C370.108 143.294 370.069 143.445 370.033 143.598L370 143.576C365.322 140.626 359.904 139.063 354.375 139.069C347.725 139.07 341.271 141.328 336.07 145.476C330.868 149.623 327.227 155.413 325.739 161.9C325.326 163.708 325.085 165.55 325.02 167.404C325.006 167.758 325 168.113 325 168.47C325.001 176.267 328.096 183.744 333.604 189.258C339.113 194.771 346.584 197.868 354.375 197.869C356.542 197.871 358.703 197.632 360.817 197.157C363.46 201.371 367.13 204.845 371.481 207.252C375.832 209.658 380.723 210.92 385.694 210.918C390.56 210.921 395.35 209.713 399.633 207.403C403.916 205.093 407.558 201.753 410.231 197.685C411.04 197.729 411.852 197.755 412.672 197.755C421.455 197.768 430.038 195.129 437.298 190.182C441.785 193.612 447.277 195.466 452.923 195.456C458.273 195.464 463.492 193.799 467.85 190.693C470.007 193.87 472.908 196.47 476.301 198.267C479.693 200.064 483.474 201.002 487.312 200.999C491.011 201 494.659 200.127 497.958 198.45C501.257 196.774 504.114 194.342 506.296 191.352C508.558 192.195 510.952 192.626 513.366 192.625C517.42 192.631 521.38 191.413 524.73 189.129C525.876 190.577 527.334 191.747 528.995 192.55C530.656 193.354 532.478 193.771 534.323 193.77C536.623 193.77 538.876 193.122 540.825 191.9C542.774 190.678 544.34 188.932 545.344 186.861C546.152 185.195 546.571 183.366 546.569 181.514C546.572 179.403 546.027 177.327 544.987 175.491Z" fill="#F5F5FF"/>
<g opacity="0.57">
<path opacity="0.7" d="M546.569 181.517C546.572 179.405 546.027 177.328 544.987 175.491C543.921 173.599 542.372 172.025 540.498 170.931C538.624 169.836 536.493 169.26 534.323 169.261C534.002 169.261 533.687 169.278 533.372 169.303C532.638 164.519 530.217 160.156 526.547 157.004C522.878 153.852 518.202 152.119 513.366 152.118C512.189 152.119 511.015 152.223 509.856 152.428C508.992 148.632 506.864 145.243 503.823 142.815C500.781 140.388 497.005 139.067 493.115 139.069C489.883 139.065 486.716 139.98 483.983 141.708C481.87 136.126 478.108 131.319 473.2 127.927C468.291 124.536 462.468 122.719 456.503 122.719C452.742 122.715 449.015 123.436 445.526 124.842C441.417 120.172 436.361 116.432 430.693 113.873C425.026 111.314 418.879 109.993 412.661 110C402.9 110.002 393.418 113.262 385.718 119.265C378.017 125.269 372.538 133.672 370.148 143.143C373.147 134.546 378.745 127.096 386.164 121.824C393.583 116.553 402.457 113.721 411.556 113.722C417.774 113.716 423.921 115.036 429.588 117.595C435.256 120.155 440.312 123.894 444.422 128.564C447.91 127.158 451.637 126.438 455.398 126.442C461.363 126.442 467.186 128.258 472.095 131.65C477.004 135.042 480.765 139.848 482.878 145.43C485.611 143.702 488.778 142.787 492.01 142.791C495.901 142.79 499.676 144.111 502.718 146.538C505.759 148.965 507.887 152.354 508.751 156.15C509.91 155.945 511.085 155.841 512.261 155.84C517.097 155.841 521.773 157.574 525.443 160.726C529.112 163.879 531.533 168.241 532.267 173.025C532.582 173 532.897 172.983 533.218 172.983C535.388 172.982 537.519 173.558 539.393 174.653C541.267 175.748 542.816 177.321 543.882 179.213C544.922 181.051 545.467 183.127 545.464 185.239C545.463 185.781 545.427 186.322 545.355 186.859C546.159 185.193 546.574 183.366 546.569 181.517Z" fill="white"/>
<path opacity="0.7" d="M325.739 161.9C327.837 156.29 331.596 151.454 336.513 148.04C341.431 144.627 347.274 142.797 353.259 142.797C358.805 142.789 364.24 144.359 368.928 147.326C369.235 146.055 369.596 144.805 370.011 143.576C365.333 140.626 359.915 139.063 354.386 139.069C347.734 139.067 341.278 141.325 336.074 145.472C330.871 149.619 327.227 155.411 325.739 161.9Z" fill="white"/>
</g>
<path d="M370.159 143.143C370.108 143.289 370.058 143.423 370.011 143.576L370.044 143.598C370.08 143.445 370.119 143.294 370.159 143.143Z" fill="#E2D7EC"/>
<path d="M411.431 148.348C418.682 148.349 425.672 151.054 431.038 155.935C436.403 160.816 439.758 167.524 440.448 174.748C440.535 173.835 440.579 172.908 440.579 171.972C440.578 164.236 437.506 156.817 432.04 151.348C426.574 145.878 419.16 142.805 411.431 142.805C403.7 142.805 396.286 145.879 390.819 151.35C385.353 156.821 382.282 164.241 382.282 171.978C382.282 172.913 382.329 173.84 382.416 174.753C383.104 167.529 386.458 160.82 391.823 155.937C397.188 151.055 404.179 148.349 411.431 148.348Z" fill="white"/>
<path d="M491.396 164.447C495.021 164.447 498.516 165.799 501.199 168.239C503.882 170.679 505.56 174.032 505.905 177.644C505.947 177.188 505.972 176.725 505.972 176.247C505.969 172.38 504.432 168.673 501.699 165.94C498.966 163.206 495.26 161.671 491.396 161.671C489.482 161.672 487.587 162.051 485.819 162.786C484.051 163.521 482.445 164.597 481.093 165.953C479.741 167.309 478.669 168.918 477.938 170.689C477.207 172.459 476.832 174.357 476.835 176.272C476.835 176.739 476.857 177.202 476.899 177.669C477.239 174.055 478.913 170.698 481.594 168.253C484.274 165.808 487.769 164.451 491.396 164.447Z" fill="white"/>
<path opacity="0.05" d="M546.569 181.517C546.569 183.126 546.252 184.72 545.637 186.207C545.021 187.694 544.119 189.045 542.982 190.183C541.845 191.321 540.495 192.224 539.009 192.84C537.524 193.456 535.931 193.773 534.323 193.773C532.478 193.774 530.656 193.357 528.995 192.553C527.334 191.749 525.876 190.58 524.73 189.132C521.38 191.415 517.42 192.634 513.366 192.628C510.952 192.628 508.558 192.196 506.296 191.352C504.112 194.342 501.254 196.775 497.954 198.451C494.653 200.127 491.004 200.999 487.303 200.997C483.465 200.999 479.685 200.061 476.292 198.264C472.9 196.468 469.999 193.867 467.842 190.69C463.484 193.796 458.265 195.461 452.915 195.454C447.268 195.463 441.777 193.609 437.29 190.179C430.03 195.126 421.447 197.765 412.664 197.752C411.844 197.752 411.032 197.727 410.222 197.682C407.549 201.751 403.907 205.09 399.624 207.4C395.341 209.71 390.551 210.918 385.686 210.915C380.716 210.916 375.827 209.654 371.478 207.248C367.128 204.842 363.46 201.369 360.817 197.157C358.703 197.632 356.542 197.871 354.375 197.869C346.584 197.868 339.113 194.771 333.604 189.258C328.096 183.744 325.001 176.267 325 168.47C325 168.113 325 167.758 325.02 167.404C325.622 168.772 338.588 197.601 363.228 189.277C363.228 189.277 375.016 224.933 411.431 190.771C411.431 190.771 421.497 196.724 435.786 182.609C435.786 182.609 451.188 198.126 467.873 184.795C467.873 184.795 490.25 206.668 505.969 184.795C505.969 184.795 515.378 187.663 526.142 180.12C526.142 180.12 538.419 191.29 544.973 175.491C546.018 177.327 546.568 179.404 546.569 181.517Z" fill="#1D1D1B"/>
</g>
<g opacity="0.7">
<path d="M1386.35 138.886C1380.7 138.89 1375.07 139.509 1369.55 140.734C1361.23 119.321 1346.98 100.731 1328.46 87.1511C1309.95 73.5708 1287.94 65.5648 1265.04 64.0749C1251.55 44.3146 1233.45 28.149 1212.3 16.9825C1191.15 5.81598 1167.6 -0.0136651 1143.68 2.40531e-05C1114.99 0.00202053 1086.93 8.40601 1062.95 24.1762C1038.97 39.9464 1020.13 62.3935 1008.74 88.7507C992.915 91.1188 977.852 97.1364 964.743 106.328C951.635 115.521 940.841 127.636 933.212 141.718C926.489 139.857 919.545 138.914 912.57 138.916C893.929 138.918 875.911 145.634 861.81 157.836C847.709 170.038 838.467 186.911 835.773 205.371C835.321 208.486 835.063 211.625 835 214.771C835 215.374 835 215.977 835 216.589C835.008 237.176 843.183 256.918 857.729 271.475C872.274 286.033 892 294.214 912.57 294.222C931.442 294.248 949.672 287.361 963.818 274.859C980.469 286.847 1000.32 293.573 1020.83 294.172C1031.23 308.366 1044.83 319.906 1060.52 327.854C1076.21 335.802 1093.55 339.936 1111.14 339.918C1129.18 339.931 1146.95 335.579 1162.94 327.235C1178.93 318.89 1192.67 306.799 1202.98 291.993C1219.81 300.507 1238.41 304.932 1257.27 304.908C1286.18 304.949 1314.13 294.543 1335.98 275.602C1350.02 287.641 1367.9 294.248 1386.38 294.222C1404.11 294.221 1421.31 288.142 1435.11 276.995C1448.92 265.849 1458.49 250.308 1462.23 232.959C1462.55 231.473 1462.82 229.946 1463.06 228.45C1463.66 224.505 1463.97 220.52 1463.98 216.529C1463.97 195.93 1455.79 176.179 1441.23 161.618C1426.67 147.057 1406.93 138.881 1386.35 138.886Z" fill="#F5F5FF"/>
<path opacity="0.8" d="M911.697 148.899C918.676 148.896 925.623 149.839 932.349 151.701C939.978 137.619 950.772 125.503 963.88 116.311C976.989 107.119 992.052 101.102 1007.88 98.7336C1019.27 72.3835 1038.11 49.9438 1062.09 34.1793C1086.07 18.4148 1114.12 10.0144 1142.81 10.0129C1166.72 9.99926 1190.28 15.8289 1211.42 26.9954C1232.57 38.1619 1250.68 54.3275 1264.16 74.0879C1287.07 75.5777 1309.08 83.5837 1327.59 97.1641C1346.11 110.744 1360.36 129.334 1368.68 150.747C1374.19 149.522 1379.83 148.903 1385.48 148.899C1406.06 148.901 1425.8 157.086 1440.35 171.652C1454.9 186.219 1463.08 205.973 1463.08 226.572C1463.08 227.215 1463.08 227.837 1463.08 228.48C1463.68 224.535 1463.99 220.55 1464 216.559C1464 195.961 1455.82 176.206 1441.27 161.639C1426.72 147.073 1406.98 138.888 1386.4 138.886C1380.75 138.89 1375.12 139.509 1369.6 140.734C1361.28 119.321 1347.03 100.731 1328.51 87.1511C1310 73.5707 1287.99 65.5648 1265.09 64.0749C1251.6 44.3146 1233.5 28.149 1212.35 16.9825C1191.2 5.81598 1167.65 -0.0136651 1143.73 2.40531e-05C1115.03 -0.00778106 1086.96 8.39162 1062.97 24.1624C1038.98 39.9332 1020.13 62.3856 1008.74 88.7507C992.915 91.1188 977.852 97.1364 964.743 106.328C951.635 115.521 940.841 127.636 933.212 141.718C926.489 139.857 919.545 138.914 912.57 138.916C893.929 138.918 875.911 145.634 861.81 157.836C847.709 170.038 838.467 186.911 835.773 205.371C835.321 208.485 835.063 211.625 835 214.771C837.816 196.434 847.098 179.711 861.166 167.628C875.234 155.546 893.159 148.902 911.697 148.899Z" fill="white"/>
<path d="M1111.1 134.045C1138.49 134.036 1164.94 144.071 1185.44 162.253C1205.94 180.434 1219.07 205.502 1222.36 232.718C1222.89 228.262 1223.16 223.778 1223.16 219.291C1223.16 204.565 1220.26 189.985 1214.63 176.381C1209 162.778 1200.74 150.418 1190.34 140.009C1179.93 129.6 1167.58 121.344 1153.98 115.715C1140.38 110.085 1125.81 107.192 1111.1 107.2C1096.39 107.2 1081.83 110.1 1068.24 115.734C1054.65 121.368 1042.3 129.627 1031.9 140.037C1021.5 150.448 1013.25 162.807 1007.62 176.409C1001.99 190.011 999.099 204.589 999.101 219.311C999.104 223.798 999.372 228.282 999.904 232.738C1003.18 205.528 1016.3 180.462 1036.79 162.277C1057.28 144.093 1083.72 134.049 1111.1 134.045Z" fill="white"/>
<path opacity="0.05" d="M1462.19 232.99C1458.45 250.338 1448.88 265.879 1435.07 277.025C1421.27 288.172 1404.07 294.251 1386.34 294.252C1367.86 294.278 1349.98 287.672 1335.94 275.632C1314.09 294.573 1286.14 304.98 1257.23 304.938C1238.37 304.962 1219.77 300.538 1202.94 292.023C1192.63 306.829 1178.89 318.92 1162.9 327.265C1146.91 335.61 1129.14 339.961 1111.1 339.948C1093.51 339.966 1076.17 335.833 1060.48 327.884C1044.79 319.936 1031.19 308.396 1020.79 294.202C1000.28 293.603 980.429 286.877 963.778 274.889C949.637 287.371 931.424 294.247 912.57 294.222C891.996 294.212 872.268 286.025 857.724 271.461C843.18 256.897 835.01 237.15 835.01 216.559C835.007 212.805 835.276 209.056 835.812 205.341C841.663 219.743 879.715 302.548 962.182 249.35C962.182 249.35 1005.57 285.274 1048.95 266.975C1048.95 266.975 1100.34 364.905 1201.79 267.387C1201.79 267.387 1261.18 317.301 1334.6 256.942C1334.56 256.942 1388.94 301.513 1462.19 232.99Z" fill="#1D1D1B"/>
</g>
<g opacity="0.7">
<path d="M284.37 297.315C281.372 297.317 278.384 297.651 275.459 298.31C271.743 288.09 264.974 279.262 256.072 273.025C247.171 266.787 236.567 263.442 225.7 263.443C224.521 263.443 223.352 263.481 222.196 263.558C217.115 248.506 206.855 235.751 193.248 227.569C179.641 219.387 163.572 216.31 147.908 218.888C132.244 221.465 118.004 229.529 107.731 241.641C97.4577 253.752 91.8187 269.123 91.8204 285.01C91.2804 285.01 90.7403 284.982 90.1945 284.982C79.9107 284.981 69.8492 287.978 61.2392 293.606C52.6292 299.234 45.8435 307.25 41.711 316.675C40.2334 316.497 38.7467 316.407 37.2585 316.404C31.2727 316.402 25.3743 317.843 20.0633 320.606C14.7522 323.369 10.1849 327.373 6.74847 332.278C3.31201 337.183 1.10761 342.845 0.322075 348.784C-0.463459 354.723 0.193002 360.764 2.23586 366.395C4.27872 372.026 7.64775 377.081 12.0575 381.132C16.4672 385.183 21.7877 388.11 27.5682 389.666C33.3486 391.222 39.4186 391.361 45.2639 390.07C51.1091 388.779 56.5574 386.097 61.1469 382.252C69.1001 387.474 78.3117 390.457 87.8143 390.887C97.317 391.317 106.76 389.178 115.152 384.695C129.968 394.288 147.933 397.732 165.242 394.297C182.552 390.863 197.846 380.82 207.884 366.296C215.072 368.86 222.729 369.842 230.331 369.175C237.933 368.507 245.301 366.205 251.933 362.426C256.916 369.045 263.803 373.982 271.669 376.574C279.535 379.166 288.004 379.29 295.942 376.929C303.881 374.568 310.908 369.835 316.083 363.365C321.258 356.894 324.333 348.995 324.896 340.726C324.954 339.812 325 338.886 325 337.955C324.994 327.174 320.71 316.838 313.092 309.217C305.473 301.596 295.142 297.315 284.37 297.315Z" fill="#F5F5FF"/>
<path opacity="0.59" d="M38.4077 329.244C39.8959 329.246 41.3827 329.337 42.8602 329.514C46.9928 320.089 53.7785 312.073 62.3885 306.445C70.9985 300.817 81.0599 297.82 91.3438 297.821C91.9183 297.821 92.4296 297.821 92.9697 297.85V297.821C92.972 281.935 98.6139 266.567 108.889 254.459C119.163 242.35 133.403 234.289 149.065 231.714C164.728 229.139 180.796 232.217 194.401 240.399C208.007 248.582 218.265 261.335 223.345 276.385C224.494 276.313 225.662 276.274 226.85 276.271C237.716 276.27 248.32 279.615 257.222 285.853C266.123 292.09 272.892 300.918 276.608 311.138C286.922 308.818 297.733 310.614 306.744 316.144C315.755 321.675 322.257 330.503 324.868 340.755C324.925 339.841 324.971 338.915 324.971 337.983C324.975 331.885 323.607 325.864 320.969 320.366C318.331 314.868 314.491 310.035 309.733 306.225C304.975 302.415 299.421 299.725 293.483 298.354C287.545 296.984 281.375 296.969 275.431 298.31C271.714 288.09 264.946 279.262 256.044 273.025C247.142 266.787 236.538 263.442 225.672 263.443C224.492 263.443 223.324 263.481 222.167 263.558C217.071 248.527 206.809 235.795 193.209 227.63C179.609 219.465 163.555 216.397 147.905 218.973C132.256 221.548 118.029 229.6 107.758 241.694C97.4868 253.788 91.839 269.138 91.8207 285.01C91.2806 285.01 90.7406 284.981 90.1948 284.981C79.9109 284.981 69.8494 287.977 61.2394 293.606C52.6295 299.234 45.8437 307.25 41.7112 316.675C40.2336 316.497 38.7469 316.407 37.2587 316.404C31.5411 316.406 25.9007 317.725 20.7745 320.26C15.6482 322.794 11.1738 326.476 7.69791 331.019C4.22201 335.563 1.83793 340.846 0.730377 346.46C-0.377172 352.074 -0.178458 357.867 1.31114 363.392C2.0918 354.082 6.33809 345.406 13.2087 339.081C20.0793 332.757 29.0729 329.246 38.4077 329.244Z" fill="white"/>
<path opacity="0.05" d="M325 337.978C325.002 346.505 322.325 354.816 317.348 361.737C312.372 368.658 305.346 373.838 297.267 376.543C289.187 379.249 280.462 379.344 272.326 376.815C264.189 374.285 257.053 369.26 251.927 362.449C245.295 366.228 237.927 368.53 230.325 369.197C222.723 369.865 215.067 368.883 207.879 366.319C197.84 380.843 182.546 390.886 165.237 394.32C147.928 397.754 129.962 394.311 115.146 384.718C106.754 389.201 97.3114 391.34 87.8087 390.91C78.3061 390.48 69.0944 387.497 61.1413 382.275C55.7092 386.825 49.0929 389.729 42.069 390.647C35.0451 391.566 27.9053 390.459 21.4877 387.458C15.0701 384.457 9.64118 379.686 5.83831 373.705C2.03543 367.724 0.0164239 360.781 0.018373 353.692C0.018373 353.692 30.6229 400.582 65.7777 365.376C65.7777 365.376 91.9585 385.903 112.888 366.077C112.888 366.077 161.314 405.142 208.695 347.017C208.695 347.017 224.741 359.252 255.311 347.017C255.299 347.017 289.242 384.005 325 337.978Z" fill="#1D1D1B"/>
<path d="M162.509 301.719C172.056 301.714 181.255 305.303 188.28 311.773C195.305 318.244 199.641 327.122 200.427 336.644C200.513 335.603 200.565 334.562 200.565 333.504C200.565 323.409 196.558 313.727 189.425 306.589C182.293 299.451 172.619 295.44 162.532 295.44C152.445 295.44 142.771 299.451 135.639 306.589C128.506 313.727 124.499 323.409 124.499 333.504C124.499 334.562 124.556 335.603 124.637 336.644C125.422 327.129 129.752 318.258 136.767 311.789C143.782 305.32 152.97 301.726 162.509 301.719Z" fill="white"/>
</g>
<g opacity="0.7">
<path d="M1768.8 89.8619C1767.16 84.6527 1763.89 80.1044 1759.49 76.8762C1755.09 73.648 1749.78 71.9076 1744.32 71.9074C1743.12 71.9084 1741.91 71.9927 1740.72 72.1599C1737.99 66.5535 1733.75 61.8276 1728.47 58.5218C1723.19 55.2161 1717.09 53.4638 1710.87 53.465C1709.35 53.4653 1707.84 53.5679 1706.34 53.7721C1702.12 48.5296 1696.77 44.3019 1690.7 41.3995C1684.63 38.4971 1677.99 36.9938 1671.26 37C1662.98 36.9958 1654.85 39.2766 1647.78 43.5924C1640.7 47.9082 1634.95 54.0922 1631.15 61.4665C1630.52 61.4282 1629.88 61.4091 1629.24 61.4091C1621.38 61.4124 1613.78 64.2304 1607.81 69.3544C1601.85 74.4783 1597.9 81.5706 1596.7 89.351C1591.79 89.759 1587.15 91.763 1583.49 95.0574C1579.82 98.3518 1577.34 102.756 1576.4 107.598C1576.13 109.005 1576 110.434 1576 111.866C1576 112.124 1576 112.377 1576.02 112.635C1576.22 118.488 1578.69 124.033 1582.89 128.102C1587.1 132.171 1592.72 134.446 1598.56 134.447C1602.15 134.449 1605.69 133.59 1608.89 131.943C1612.08 130.295 1614.83 127.906 1616.92 124.976C1620.83 126.559 1625.02 127.372 1629.24 127.369C1635.14 127.38 1640.93 125.793 1646.01 122.777C1649.59 127.839 1654.34 131.965 1659.84 134.812C1665.35 137.658 1671.46 139.141 1677.65 139.136C1684.42 139.143 1691.07 137.377 1696.94 134.012C1702.82 130.648 1707.71 125.804 1711.14 119.959C1716.48 119.928 1721.73 118.6 1726.44 116.088C1730.55 120.071 1735.86 122.569 1741.54 123.186C1747.22 123.803 1752.95 122.504 1757.81 119.495C1762.67 116.486 1766.39 111.939 1768.39 106.573C1770.38 101.207 1770.52 95.3295 1768.8 89.8705V89.8619Z" fill="#F5F5FF"/>
<path d="M1671.72 73.0152C1679.97 73.0153 1687.92 76.1219 1693.98 81.7182C1700.05 87.3144 1703.79 94.9912 1704.47 103.224C1704.54 102.332 1704.58 101.431 1704.58 100.518C1704.58 91.7888 1701.12 83.4173 1694.96 77.2451C1688.8 71.0728 1680.44 67.6053 1671.72 67.6053C1667.41 67.6053 1663.13 68.4566 1659.15 70.1106C1655.16 71.7647 1651.54 74.189 1648.49 77.2452C1642.32 83.4176 1638.86 91.789 1638.86 100.518C1638.86 101.431 1638.9 102.333 1638.97 103.224C1639.65 94.9915 1643.39 87.3147 1649.46 81.7184C1655.53 76.122 1663.47 73.0154 1671.72 73.0152Z" fill="white"/>
<path opacity="0.05" d="M1770 97.6251C1770 102.679 1768.51 107.621 1765.73 111.835C1762.94 116.048 1758.97 119.345 1754.33 121.315C1749.68 123.285 1744.56 123.84 1739.6 122.91C1734.64 121.98 1730.06 119.607 1726.44 116.088C1721.73 118.603 1716.48 119.934 1711.14 119.968C1707.72 125.813 1702.83 130.659 1696.95 134.026C1691.08 137.392 1684.43 139.162 1677.67 139.159C1671.47 139.164 1665.36 137.681 1659.86 134.835C1654.35 131.988 1649.61 127.862 1646.02 122.8C1640.95 125.816 1635.15 127.403 1629.25 127.392C1625.03 127.395 1620.85 126.582 1616.93 124.999C1614.85 127.929 1612.1 130.318 1608.9 131.966C1605.71 133.613 1602.17 134.472 1598.58 134.47C1595.61 134.47 1592.68 133.886 1589.94 132.751C1587.21 131.615 1584.72 129.951 1582.62 127.853C1580.53 125.755 1578.87 123.264 1577.73 120.522C1576.6 117.78 1576.01 114.842 1576.01 111.874C1576.01 110.442 1576.15 109.013 1576.42 107.607C1584.16 117.101 1599.8 130.391 1617.45 111.874C1617.45 111.874 1628.81 122.528 1649.87 107.836C1649.87 107.836 1671.16 142.293 1708.54 110.729C1708.54 110.729 1719.43 114.71 1728.41 104.757C1728.41 104.757 1753.25 118.421 1767.92 91.4863C1768.22 90.9314 1768.52 90.3928 1768.82 89.8705C1769.6 92.3796 1770 94.995 1770 97.6251Z" fill="#1D1D1B"/>
<path opacity="0.57" d="M1596.12 95.2746C1597.33 87.4928 1601.27 80.3993 1607.24 75.2752C1613.21 70.151 1620.82 67.334 1628.68 67.3327C1629.32 67.3327 1629.95 67.3518 1630.58 67.3901C1634.38 60.0158 1640.13 53.8318 1647.21 49.516C1654.29 45.2003 1662.41 42.9194 1670.7 42.9236C1677.42 42.9187 1684.06 44.4226 1690.13 47.325C1696.2 50.2273 1701.55 54.4543 1705.77 59.6957C1707.27 59.4915 1708.78 59.3889 1710.29 59.3886C1716.52 59.3874 1722.62 61.1397 1727.9 64.4455C1733.18 67.7512 1737.42 72.4771 1740.15 78.0835C1741.34 77.9164 1742.54 77.832 1743.75 77.831C1749.2 77.8312 1754.52 79.5716 1758.92 82.7998C1763.32 86.028 1766.58 90.5763 1768.23 95.7855C1768.98 98.1479 1769.37 100.606 1769.41 103.084C1770.23 99.3304 1770.19 95.4418 1769.31 91.7037C1768.43 87.9656 1766.72 84.473 1764.31 81.4825C1761.91 78.492 1758.86 76.0797 1755.4 74.4227C1751.94 72.7657 1748.16 71.9062 1744.32 71.9074C1743.12 71.9084 1741.91 71.9927 1740.72 72.1599C1737.99 66.5535 1733.75 61.8276 1728.47 58.5218C1723.19 55.2161 1717.09 53.4638 1710.87 53.465C1709.35 53.4653 1707.84 53.5679 1706.34 53.7721C1702.12 48.5296 1696.77 44.3019 1690.7 41.3995C1684.63 38.4971 1677.99 36.9938 1671.26 37C1662.98 36.9958 1654.85 39.2766 1647.78 43.5924C1640.7 47.9082 1634.95 54.0922 1631.15 61.4665C1630.52 61.4282 1629.88 61.4091 1629.24 61.4091C1621.38 61.4124 1613.78 64.2304 1607.81 69.3544C1601.85 74.4783 1597.9 81.5706 1596.7 89.351C1591.79 89.759 1587.15 91.763 1583.49 95.0574C1579.82 98.3518 1577.34 102.756 1576.4 107.598C1576.13 109.005 1576 110.434 1576 111.866C1576 112.124 1576 112.377 1576.02 112.635C1577.11 107.985 1579.64 103.801 1583.25 100.682C1586.87 97.5631 1591.37 95.6702 1596.12 95.2746Z" fill="white"/>
</g>
</svg>
