<svg width="430" height="232" viewBox="0 0 430 232" fill="none" xmlns="http://www.w3.org/2000/svg">
<g opacity="0.5">
<path d="M426.564 120.047C422.919 108.217 415.704 97.8884 405.965 90.5573C396.226 83.2262 384.47 79.2739 372.4 79.2733C369.734 79.2756 367.071 79.4672 364.431 79.8469C358.401 67.1148 349.01 56.3824 337.331 48.8753C325.651 41.3681 312.154 37.3887 298.38 37.3914C295.034 37.3921 291.692 37.6251 288.376 38.0888C279.028 26.1833 267.204 16.5823 253.773 9.99109C240.341 3.39989 225.645 -0.0140658 210.762 4.35558e-05C192.432 -0.00950613 174.454 5.17018 158.799 14.9711C143.143 24.7721 130.415 38.8158 122.009 55.5624C120.615 55.4755 119.212 55.432 117.8 55.432C100.408 55.4396 83.5918 61.8392 70.3867 73.4755C57.1816 85.1118 48.4578 101.218 45.79 118.887C34.9343 119.814 24.6711 124.365 16.5653 131.846C8.45959 139.328 2.95604 149.329 0.893874 160.326C0.296087 163.52 -0.00321362 166.765 2.60184e-05 170.018C2.60184e-05 170.604 3.0663e-05 171.178 0.044407 171.764C0.492971 185.056 5.94355 197.649 15.2473 206.889C24.551 216.13 36.9809 221.296 49.917 221.298C57.864 221.302 65.6967 219.353 72.7614 215.611C79.826 211.87 85.9176 206.445 90.5277 199.79C99.19 203.386 108.445 205.232 117.787 205.225C130.844 205.249 143.663 201.646 154.892 194.797C162.824 206.291 173.32 215.663 185.5 222.127C197.681 228.591 211.191 231.958 224.899 231.948C239.87 231.963 254.585 227.951 267.582 220.312C280.579 212.672 291.407 201.669 298.988 188.397C310.799 188.327 322.416 185.31 332.841 179.605C341.923 188.65 353.68 194.323 366.251 195.725C378.822 197.127 391.489 194.177 402.246 187.344C413.002 180.511 421.235 170.184 425.64 157.998C430.044 145.812 430.37 132.464 426.564 120.067V120.047Z" fill="#F5F5FF"/>
<path d="M211.777 81.7895C230.025 81.7898 247.606 88.8447 261.029 101.554C274.452 114.263 282.737 131.696 284.237 150.394C284.395 148.367 284.484 146.32 284.484 144.247C284.482 124.424 276.822 105.412 263.186 91.3954C249.551 77.3784 231.059 69.5039 211.777 69.5039C202.23 69.5039 192.776 71.4372 183.955 75.1934C175.135 78.9496 167.12 84.4552 160.369 91.3958C146.735 105.413 139.076 124.424 139.076 144.247C139.076 146.32 139.158 148.369 139.323 150.394C140.822 131.697 149.105 114.263 162.527 101.554C175.949 88.8451 193.529 81.7899 211.777 81.7895Z" fill="white"/>
<path opacity="0.05" d="M429.202 137.677C429.205 149.154 425.92 160.378 419.755 169.947C413.59 179.515 404.819 187.003 394.539 191.477C384.258 195.95 372.923 197.21 361.95 195.098C350.977 192.987 340.853 187.598 332.842 179.605C322.418 185.317 310.801 188.341 298.989 188.417C291.414 201.69 280.593 212.696 267.602 220.341C254.611 227.987 239.9 232.006 224.931 232C211.224 232.011 197.713 228.643 185.532 222.179C173.352 215.715 162.856 206.344 154.924 194.85C143.695 201.698 130.876 205.301 117.819 205.278C108.477 205.284 99.222 203.438 90.5597 199.842C85.9496 206.497 79.858 211.922 72.7934 215.663C65.7287 219.405 57.896 221.355 49.949 221.35C43.3941 221.351 36.9033 220.024 30.8471 217.446C24.7909 214.868 19.288 211.088 14.6527 206.323C10.0174 201.558 6.34046 195.901 3.83182 189.675C1.32318 183.449 0.0320084 176.776 0.0320084 170.037C0.0287688 166.785 0.32807 163.539 0.925857 160.346C18.0424 181.906 52.6623 212.089 91.7135 170.037C91.7135 170.037 116.843 194.23 163.426 160.867C163.426 160.867 210.534 239.117 293.233 167.437C293.233 167.437 317.323 176.477 337.197 153.874C337.197 153.874 392.16 184.904 424.612 123.736C425.28 122.476 425.939 121.253 426.59 120.067C428.332 125.765 429.213 131.704 429.202 137.677Z" fill="#1D1D1B"/>
<path opacity="0.57" d="M44.5221 132.339C47.1904 114.667 55.917 98.5582 69.1261 86.9215C82.3351 75.2847 99.156 68.8873 116.551 68.8843C117.967 68.8843 119.37 68.9278 120.761 69.0147C129.166 52.2681 141.894 38.2244 157.55 28.4234C173.205 18.6225 191.184 13.4428 209.513 13.4523C224.393 13.4411 239.086 16.8565 252.513 23.4476C265.941 30.0387 277.762 39.6381 287.108 51.541C290.424 51.0774 293.766 50.8444 297.112 50.8437C310.886 50.841 324.384 54.8204 336.063 62.3276C347.742 69.8347 357.133 80.567 363.163 93.2991C365.803 92.9195 368.466 92.7278 371.132 92.7256C383.202 92.7262 394.958 96.6785 404.697 104.01C414.436 111.341 421.651 121.67 425.296 133.5C426.946 138.864 427.828 144.448 427.914 150.074C429.718 141.55 429.64 132.719 427.688 124.23C425.736 115.741 421.959 107.809 416.634 101.018C411.309 94.2268 404.571 88.7485 396.917 84.9855C389.262 81.2226 380.884 79.2707 372.4 79.2733C369.734 79.2756 367.071 79.4672 364.431 79.8469C358.401 67.1148 349.01 56.3824 337.331 48.8753C325.651 41.3681 312.154 37.3887 298.38 37.3914C295.034 37.3921 291.692 37.6251 288.376 38.0888C279.028 26.1833 267.204 16.5823 253.773 9.99109C240.342 3.39989 225.645 -0.0140658 210.762 4.35558e-05C192.432 -0.00950613 174.454 5.17018 158.799 14.9711C143.143 24.7721 130.415 38.8158 122.009 55.5624C120.615 55.4755 119.212 55.432 117.8 55.432C100.408 55.4397 83.5918 61.8392 70.3867 73.4755C57.1816 85.1119 48.4578 101.218 45.79 118.887C34.9343 119.814 24.6711 124.365 16.5653 131.846C8.45959 139.328 2.95604 149.329 0.893875 160.326C0.296087 163.52 -0.00321362 166.765 2.60185e-05 170.018C2.60185e-05 170.604 3.06635e-05 171.178 0.044407 171.764C2.45656 161.205 8.05977 151.702 16.0503 144.619C24.0408 137.537 34.008 133.238 44.5221 132.339Z" fill="white"/>
</g>
</svg>
