<svg width="500" height="471" viewBox="0 0 500 471" fill="none" xmlns="http://www.w3.org/2000/svg">
<path fill-rule="evenodd" clip-rule="evenodd" d="M360.341 273.536C394.336 274.305 431.505 274.392 453.508 297.77C476.086 321.758 476.902 356.552 466.825 386.673C457.582 414.297 431.834 432.222 403.845 446.21C372.872 461.689 338.655 478.704 305.599 467.249C270.163 454.968 248.706 422.843 240.172 389.489C231.611 356.031 235.12 318.507 261.121 293.418C285.457 269.936 324.707 272.73 360.341 273.536Z" fill="#F4EFF7"/>
<g filter="url(#filter0_d)">
<path d="M474.742 262H442C435.925 262 431 266.925 431 273V312.348C431 318.423 435.925 323.348 442 323.348H474.742C480.817 323.348 485.742 318.423 485.742 312.348V273C485.742 266.925 480.817 262 474.742 262Z" fill="#6F389F"/>
</g>
<path d="M328.039 315.928C327.519 315.404 326.677 315.404 326.156 315.928L324.638 317.459L323.12 315.929C322.6 315.404 321.758 315.404 321.238 315.929C320.718 316.453 320.718 317.303 321.238 317.827L322.756 319.357L321.238 320.888C320.718 321.413 320.718 322.263 321.238 322.788C321.498 323.049 321.838 323.181 322.178 323.181C322.52 323.181 322.861 323.049 323.12 322.788L324.638 321.256L326.156 322.788C326.416 323.049 326.757 323.181 327.098 323.181C327.438 323.181 327.778 323.049 328.038 322.788C328.558 322.263 328.558 321.413 328.038 320.888L326.522 319.358L328.04 317.827C328.56 317.302 328.56 316.453 328.04 315.928H328.039Z" fill="#6F389F"/>
<path opacity="0.202" d="M393.816 395.743C393.174 395.383 392.364 395.618 392.006 396.266L390.966 398.16L389.088 397.11C388.445 396.751 387.635 396.985 387.278 397.633C386.923 398.283 387.155 399.099 387.798 399.458L389.676 400.508L388.635 402.402C388.278 403.051 388.511 403.867 389.153 404.227C389.475 404.407 389.838 404.438 390.166 404.343C390.493 404.249 390.786 404.028 390.963 403.704L392.003 401.81L393.881 402.86C394.203 403.04 394.567 403.07 394.894 402.976C395.221 402.881 395.513 402.661 395.691 402.336C396.047 401.688 395.815 400.871 395.171 400.512L393.294 399.462L394.334 397.568C394.692 396.919 394.459 396.103 393.816 395.743Z" fill="#6F389F"/>
<path d="M313.957 328.047C311.677 328.047 309.822 329.762 309.822 331.87C309.822 333.978 311.677 335.693 313.957 335.693C316.237 335.693 318.092 333.978 318.092 331.87C318.092 329.762 316.238 328.047 313.957 328.047ZM313.957 333.173C313.18 333.173 312.547 332.589 312.547 331.87C312.547 331.15 313.18 330.567 313.957 330.567C314.735 330.567 315.367 331.151 315.367 331.87C315.367 332.589 314.734 333.173 313.957 333.173Z" fill="#6F389F"/>
<path d="M314.474 395.469C313.429 395.469 312.579 396.327 312.579 397.38C312.579 398.434 313.429 399.292 314.474 399.292C315.519 399.292 316.369 398.434 316.369 397.38C316.369 396.327 315.519 395.47 314.474 395.47V395.469Z" fill="#6F389F" fill-opacity="0.2"/>
<path d="M300.34 359.654C304.402 359.654 308.215 357.115 309.646 353.059C309.829 352.539 309.558 351.968 309.039 351.783C306.569 350.906 303.907 351.041 301.539 352.163C302.139 351.373 302.797 350.614 303.516 349.893C303.906 349.503 303.906 348.869 303.516 348.479C303.127 348.089 302.496 348.089 302.108 348.479C301.594 348.994 301.11 349.528 300.652 350.076C300.543 347.106 299.114 344.217 296.521 342.366C296.072 342.046 295.451 342.15 295.131 342.6C293.604 344.754 293.004 347.376 293.441 349.983C293.847 352.395 295.097 354.526 296.982 356.046C296.655 356.806 296.369 357.582 296.122 358.366C295.926 357.928 295.698 357.5 295.437 357.087C294.027 354.855 291.834 353.307 289.263 352.729C289.006 352.671 288.735 352.719 288.513 352.861C288.289 353.003 288.132 353.228 288.073 353.487C286.927 358.627 290.01 363.744 294.997 365.167C294.972 366.226 295.017 367.287 295.127 368.342C294.897 368.136 294.656 367.939 294.404 367.752C292.28 366.187 289.677 365.544 287.073 365.944C286.529 366.028 286.156 366.537 286.239 367.084C286.636 369.697 288.024 371.998 290.147 373.564C291.858 374.826 293.882 375.488 295.967 375.488C296.3 375.488 296.636 375.47 296.971 375.436C297.379 376.386 297.849 377.315 298.381 378.216C295.3 377.226 291.793 377.767 289.109 379.974C288.683 380.324 288.62 380.954 288.969 381.381C290.638 383.426 293.001 384.697 295.622 384.958C295.955 384.992 296.287 385.008 296.617 385.008C298.652 385.008 300.615 384.381 302.281 383.198C303.403 384.301 304.627 385.297 305.925 386.158C306.095 386.269 306.285 386.323 306.474 386.323C306.797 386.323 307.114 386.165 307.306 385.873C307.609 385.413 307.482 384.793 307.023 384.489C305.769 383.658 304.589 382.69 303.516 381.614C301.116 379.205 299.379 376.381 298.301 373.37C303.031 371.54 305.663 366.331 304.215 361.362C304.061 360.832 303.508 360.528 302.979 360.683C300.451 361.425 298.362 363.111 297.097 365.429C297.057 365.503 297.02 365.579 296.982 365.653C296.992 363.526 297.299 361.4 297.906 359.345C298.716 359.554 299.533 359.655 300.34 359.655V359.654ZM294.952 363.051C291.652 361.821 289.557 358.503 289.855 354.984C291.461 355.581 292.822 356.681 293.755 358.158C294.687 359.634 295.1 361.338 294.952 363.051ZM291.327 371.951C289.923 370.917 288.922 369.478 288.44 367.829H288.567C292.034 367.829 295.125 370.139 296.109 373.487C294.397 373.515 292.729 372.987 291.327 371.952V371.951ZM295.82 382.968C294.086 382.795 292.495 382.069 291.243 380.897C294.241 379.049 298.137 379.437 300.713 381.843C299.256 382.744 297.553 383.141 295.82 382.968ZM298.844 366.388C299.681 364.855 300.968 363.669 302.533 362.971C303.056 366.463 301.176 369.909 297.963 371.349C297.706 369.649 298.008 367.922 298.844 366.389V366.388ZM302.359 353.984C303.931 353.232 305.667 353.026 307.344 353.378C305.732 356.518 302.199 358.209 298.753 357.49C299.535 355.961 300.787 354.737 302.359 353.984ZM295.407 349.65C295.117 347.927 295.397 346.195 296.195 344.674C298.76 347.091 299.411 350.965 297.775 354.094C296.525 352.919 295.697 351.374 295.407 349.65ZM407.678 375.487C409.763 375.487 411.788 374.825 413.498 373.563C415.621 371.997 417.009 369.696 417.406 367.083C417.489 366.536 417.116 366.027 416.572 365.943C413.552 365.48 410.638 366.452 408.517 368.348C408.629 367.291 408.674 366.228 408.649 365.166C410.983 364.502 412.967 363.021 414.276 360.949C415.687 358.716 416.146 356.066 415.571 353.486C415.451 352.948 414.919 352.609 414.381 352.729C411.811 353.307 409.618 354.855 408.208 357.087C407.947 357.5 407.718 357.927 407.523 358.367C407.277 357.582 406.991 356.807 406.663 356.046C410.696 352.791 411.553 346.886 408.513 342.6C408.36 342.384 408.128 342.238 407.868 342.194C407.607 342.15 407.34 342.212 407.124 342.365C404.978 343.898 403.555 346.178 403.117 348.785C403.045 349.214 403.004 349.643 402.987 350.071C402.531 349.524 402.049 348.992 401.537 348.479C401.148 348.089 400.517 348.089 400.129 348.479C399.739 348.869 399.739 349.503 400.129 349.893C400.848 350.614 401.506 351.373 402.106 352.163C399.738 351.042 397.076 350.906 394.606 351.783C394.087 351.968 393.816 352.539 393.999 353.059C395.43 357.115 399.243 359.654 403.305 359.654C404.112 359.654 404.929 359.553 405.739 359.344C406.347 361.402 406.655 363.532 406.663 365.662C405.469 363.33 403.365 361.474 400.666 360.682C400.138 360.527 399.585 360.832 399.43 361.362C398.69 363.899 398.98 366.572 400.245 368.892C401.377 370.966 403.169 372.531 405.344 373.37C404.265 376.38 402.528 379.205 400.129 381.613C399.056 382.689 397.876 383.657 396.622 384.488C396.162 384.792 396.036 385.412 396.339 385.873C396.531 386.163 396.849 386.322 397.171 386.322C397.36 386.322 397.551 386.268 397.719 386.156C399.019 385.296 400.243 384.299 401.364 383.196C403.074 384.408 405.061 385.002 407.037 385.002C409.894 385.002 412.729 383.766 414.677 381.38C414.844 381.175 414.923 380.911 414.897 380.647C414.871 380.383 414.741 380.141 414.537 379.973C412.499 378.298 409.932 377.52 407.311 377.782C406.609 377.852 405.926 377.997 405.269 378.207C405.799 377.308 406.268 376.382 406.674 375.435C407.009 375.469 407.344 375.487 407.678 375.487ZM413.791 354.985C413.938 356.697 413.527 358.402 412.594 359.878C411.661 361.355 410.3 362.455 408.694 363.052C408.396 359.532 410.492 356.215 413.791 354.985ZM415.204 367.829C414.208 371.216 411.054 373.539 407.536 373.486C408.533 370.099 411.686 367.771 415.204 367.829ZM396.301 353.378C397.978 353.026 399.713 353.232 401.286 353.985C402.858 354.737 404.11 355.962 404.892 357.49C401.445 358.208 397.913 356.518 396.302 353.378H396.301ZM405.869 354.093C405.072 352.573 404.793 350.841 405.082 349.117C405.372 347.393 406.201 345.849 407.451 344.674C409.085 347.802 408.435 351.676 405.869 354.094V354.093ZM407.509 379.771C409.242 379.598 410.944 379.994 412.403 380.896C409.826 383.301 405.93 383.69 402.931 381.842C404.184 380.67 405.775 379.944 407.508 379.771H407.509ZM405.682 371.349C404.117 370.651 402.83 369.465 401.993 367.931C401.156 366.398 400.855 364.671 401.111 362.971C404.325 364.411 406.205 367.857 405.682 371.349Z" fill="#6F389F"/>
<path opacity="0.197" d="M354.69 358.488C355.62 358.984 356.726 358.903 357.576 358.276C358.426 357.65 358.844 356.607 358.666 355.556L358.055 351.939L360.644 349.378C361.397 348.633 361.662 347.541 361.338 346.528C361.013 345.513 360.165 344.788 359.126 344.634L355.546 344.107L353.946 340.816C353.481 339.859 352.54 339.266 351.489 339.266C350.439 339.266 349.497 339.859 349.032 340.816L347.432 344.107L343.852 344.634C342.812 344.788 341.966 345.514 341.641 346.527C341.316 347.541 341.581 348.633 342.334 349.377L344.924 351.94L344.312 355.557C344.135 356.607 344.552 357.65 345.402 358.277C345.882 358.631 346.444 358.811 347.01 358.811C347.446 358.811 347.884 358.704 348.288 358.488L351.489 356.78L354.69 358.488ZM347.928 354.748L348.455 351.626C348.551 351.062 348.366 350.486 347.963 350.086L345.727 347.874L348.817 347.419C349.375 347.337 349.857 346.981 350.107 346.467L351.489 343.625L352.871 346.467C353.121 346.981 353.603 347.337 354.161 347.419L357.251 347.874L355.016 350.086C354.612 350.486 354.427 351.062 354.523 351.626L355.051 354.749L352.287 353.274C352.037 353.141 351.763 353.074 351.489 353.074C351.215 353.074 350.941 353.141 350.692 353.274L347.928 354.749V354.748Z" fill="#6F389F"/>
<path d="M372.673 394.796C372.673 393.828 371.908 393.043 370.963 393.043H365.836V391.64C365.836 387.095 362.233 383.397 357.804 383.397H357.291V373.179C363.775 371.369 369.011 366.422 371.35 360.031C378.1 359.514 383.44 353.717 383.44 346.661V340.651C383.44 337.435 380.891 334.82 377.757 334.82H372.674V329.559C372.674 328.59 371.909 327.805 370.964 327.805H332.681C331.737 327.805 330.972 328.59 330.972 329.559V334.819H325.887C322.753 334.82 320.204 337.435 320.204 340.652V346.662C320.204 353.718 325.544 359.515 332.294 360.032C334.633 366.423 339.869 371.37 346.353 373.18V383.398H345.84C341.411 383.398 337.808 387.096 337.808 391.641V393.044H332.68C331.736 393.044 330.971 393.829 330.971 394.797C330.971 395.766 331.255 396.551 334.389 396.551H369.255C372.098 396.551 372.673 395.766 372.673 394.797V394.796ZM377.757 338.327C379.006 338.327 380.022 339.37 380.022 340.651V346.661C380.022 351.43 376.72 355.421 372.338 356.357C372.558 355.117 372.673 353.837 372.673 352.532V338.327H377.757ZM323.622 346.661V340.651C323.622 339.37 324.638 338.327 325.887 338.327H330.971V352.532C330.971 353.838 331.086 355.116 331.306 356.357C326.924 355.422 323.622 351.43 323.622 346.661ZM334.389 352.532V331.312H369.255V352.532C369.255 362.395 361.435 370.42 351.822 370.42C342.21 370.42 334.389 362.395 334.389 352.532ZM349.771 373.825C350.446 373.893 351.13 373.928 351.822 373.928C352.514 373.928 353.198 373.893 353.872 373.825V383.398H349.772V373.825H349.771ZM341.226 393.044V391.641C341.226 389.03 343.296 386.906 345.84 386.906H357.804C360.348 386.906 362.418 389.03 362.418 391.641V393.044H341.226Z" fill="#6F389F"/>
<g opacity="0.083">
<path opacity="0.083" d="M403.947 414.068L384.692 380.524C392.222 372.301 396.741 361.372 396.741 349.361C396.741 336.593 391.577 325.123 383.294 316.791C375.01 308.461 363.607 303.266 350.912 303.266C338.218 303.266 326.815 308.46 318.532 316.792C310.249 325.123 305.086 336.593 305.086 349.362C305.086 361.372 309.604 372.301 317.134 380.524L297.879 414.068C297.556 414.608 297.449 415.366 297.664 416.124C298.094 417.314 299.385 417.855 300.568 417.422L315.952 411.254L318.318 427.81C318.426 428.459 318.748 429.108 319.394 429.433C320.47 430.083 321.868 429.649 322.514 428.567L341.984 394.699C344.781 395.24 347.794 395.565 350.698 395.565C353.71 395.565 356.614 395.24 359.411 394.699L378.882 428.567C379.528 429.649 380.926 429.974 382.002 429.433C382.647 429.108 382.97 428.459 383.078 427.81L385.444 411.254L400.827 417.422C402.011 417.855 403.302 417.314 403.732 416.124C404.377 415.366 404.27 414.609 403.947 414.068ZM322.083 420.56L320.147 407.684C319.932 406.494 318.856 405.628 317.565 405.736C317.35 405.736 317.135 405.844 316.92 405.952L304.979 410.713L320.469 383.77C325.31 388.099 331.119 391.453 337.574 393.4L322.084 420.56H322.083ZM350.913 390.912C339.51 390.912 329.183 386.259 321.761 378.793C314.338 371.327 309.712 360.939 309.712 349.469C309.712 337.999 314.338 327.612 321.761 320.146C329.182 312.463 339.511 307.811 350.912 307.811C362.315 307.811 372.642 312.463 380.065 319.93C387.487 327.396 392.113 337.783 392.113 349.253C392.113 360.723 387.487 371.11 380.065 378.577C372.642 386.259 362.315 390.912 350.912 390.912H350.913ZM384.906 405.952C384.691 405.844 384.476 405.736 384.261 405.736C383.078 405.52 381.894 406.386 381.679 407.684L379.743 420.56L364.253 393.4C370.707 391.453 376.516 388.099 381.357 383.77L396.847 410.713L384.907 405.953L384.906 405.952Z" fill="#6F389F"/>
<path opacity="0.083" d="M376.548 324.017C370.082 317.557 361.137 313.574 351.222 313.574C341.307 313.574 332.362 317.558 325.896 324.017C319.429 330.477 315.442 339.412 315.442 349.317C315.442 359.221 319.429 368.157 325.896 374.616C332.362 381.074 341.307 385.058 351.222 385.058C361.137 385.058 370.082 381.075 376.548 374.616C383.014 368.156 387.002 359.221 387.002 349.316C387.002 339.412 383.014 330.476 376.548 324.016V324.017ZM373.423 371.386C367.711 377.092 359.843 380.536 351.222 380.536C342.6 380.536 334.732 376.984 329.129 371.386C323.417 365.68 319.969 357.929 319.969 349.316C319.969 340.704 323.525 332.845 329.129 327.246C334.733 321.541 342.6 317.988 351.222 317.988C359.844 317.988 367.711 321.541 373.315 327.139C379.027 332.845 382.475 340.596 382.475 349.209C382.475 357.821 379.027 365.788 373.423 371.386Z" fill="#6F389F"/>
</g>
<path d="M474.343 305.69L468.89 296.178C471.022 293.846 472.302 290.747 472.302 287.341C472.302 283.72 470.839 280.467 468.494 278.105C466.148 275.742 462.919 274.269 459.323 274.269C455.728 274.269 452.499 275.742 450.153 278.105C447.808 280.467 446.346 283.72 446.346 287.341C446.346 290.747 447.626 293.846 449.758 296.178L444.306 305.69C444.214 305.844 444.184 306.059 444.245 306.273C444.367 306.611 444.732 306.764 445.067 306.642L449.423 304.892L450.093 309.587C450.124 309.772 450.216 309.956 450.398 310.047C450.703 310.232 451.099 310.109 451.282 309.802L456.796 300.198C457.588 300.351 458.441 300.443 459.263 300.443C460.116 300.443 460.939 300.351 461.731 300.198L467.245 309.802C467.427 310.109 467.823 310.202 468.128 310.048C468.311 309.956 468.402 309.772 468.433 309.588L469.103 304.893L473.459 306.642C473.794 306.764 474.159 306.611 474.282 306.273C474.464 306.059 474.434 305.843 474.342 305.69H474.343ZM451.16 307.531L450.612 303.88C450.551 303.542 450.246 303.297 449.88 303.328C449.82 303.328 449.759 303.358 449.698 303.389L446.316 304.739L450.703 297.099C452.073 298.326 453.719 299.277 455.547 299.829L451.16 307.531ZM459.324 299.124C456.095 299.124 453.17 297.804 451.069 295.687C448.967 293.57 447.657 290.624 447.657 287.371C447.657 284.119 448.967 281.173 451.069 279.056C453.17 276.877 456.095 275.558 459.324 275.558C462.554 275.558 465.478 276.878 467.58 278.994C469.682 281.112 470.992 284.058 470.992 287.31C470.992 290.563 469.682 293.508 467.58 295.626C465.478 297.804 462.553 299.124 459.324 299.124ZM468.951 303.389C468.89 303.359 468.829 303.328 468.768 303.328C468.433 303.266 468.098 303.512 468.037 303.88L467.488 307.531L463.102 299.83C464.929 299.277 466.574 298.326 467.945 297.099L472.332 304.739L468.951 303.389Z" fill="white"/>
<path opacity="0.299" d="M464.505 285.377C464.379 285.193 464.229 285.062 464.053 284.983C463.878 284.903 463.677 284.851 463.477 284.878H461.397L460.744 282.722C460.644 282.407 460.418 282.144 460.168 281.986C459.992 281.907 459.817 281.855 459.616 281.855C459.416 281.855 459.24 281.907 459.065 281.986C458.789 282.144 458.588 282.381 458.488 282.722L457.836 284.878H455.756C455.556 284.851 455.355 284.904 455.179 284.983C455.004 285.062 454.853 285.193 454.728 285.377C454.528 285.667 454.478 285.982 454.528 286.297C454.578 286.612 454.728 286.902 455.004 287.112L456.758 288.426L456.082 290.581C456.082 290.608 456.082 290.634 456.056 290.634C456.006 290.792 456.006 290.976 456.031 291.16C456.056 291.344 456.131 291.528 456.257 291.685C456.457 291.975 456.733 292.132 457.034 292.185C457.335 292.237 457.661 292.159 457.912 291.948L459.666 290.608L461.421 291.948C461.697 292.158 461.998 292.211 462.299 292.185C462.599 292.132 462.875 291.975 463.076 291.685C463.201 291.528 463.251 291.344 463.301 291.16C463.326 290.976 463.326 290.818 463.276 290.634C463.276 290.608 463.276 290.581 463.251 290.581L462.574 288.426L464.329 287.112C464.605 286.902 464.755 286.612 464.805 286.297C464.78 286.007 464.705 285.667 464.505 285.377ZM463.627 286.218L463.602 286.244L461.572 287.795C461.396 287.927 461.296 288.19 461.371 288.4L462.148 290.897V291.002C462.148 291.028 462.148 291.055 462.123 291.055C462.098 291.081 462.073 291.107 462.023 291.107C461.998 291.107 461.948 291.107 461.923 291.081L459.867 289.504C459.767 289.424 459.667 289.399 459.541 289.399C459.441 289.399 459.315 289.425 459.215 289.504L457.16 291.081C457.134 291.107 457.084 291.107 457.06 291.107C457.034 291.107 456.984 291.081 456.959 291.055C456.934 291.028 456.934 291.002 456.934 291.002V290.897L457.711 288.4C457.786 288.163 457.711 287.927 457.511 287.795L455.581 286.245L455.555 286.218C455.53 286.192 455.505 286.166 455.505 286.139C455.505 286.113 455.505 286.06 455.53 286.034C455.53 286.034 455.53 286.008 455.555 286.008C455.58 285.982 455.58 285.982 455.605 285.982C455.63 285.982 455.655 285.955 455.68 285.955H458.213C458.439 285.955 458.64 285.798 458.715 285.561L459.492 283.038C459.492 283.011 459.517 282.958 459.567 282.958C459.592 282.958 459.617 282.933 459.617 282.933C459.642 282.933 459.667 282.933 459.667 282.959L459.743 283.038L460.52 285.561C460.595 285.771 460.795 285.955 461.021 285.955H463.553C463.578 285.955 463.603 285.955 463.628 285.982C463.653 285.982 463.653 286.008 463.678 286.008C463.678 286.008 463.678 286.034 463.703 286.034C463.728 286.06 463.728 286.087 463.728 286.139C463.678 286.166 463.653 286.192 463.628 286.219L463.627 286.218Z" fill="white"/>
<path opacity="0.299" d="M465.63 281.116C464.018 279.44 461.787 278.406 459.314 278.406C456.841 278.406 454.611 279.44 452.998 281.116C451.385 282.793 450.391 285.111 450.391 287.682C450.391 290.252 451.385 292.571 452.998 294.247C454.611 295.924 456.841 296.957 459.314 296.957C461.787 296.957 464.018 295.924 465.63 294.247C467.243 292.571 468.238 290.252 468.238 287.682C468.238 285.112 467.243 282.792 465.63 281.116ZM464.85 293.409C463.426 294.889 461.464 295.784 459.314 295.784C457.164 295.784 455.202 294.862 453.804 293.409C452.38 291.929 451.52 289.917 451.52 287.682C451.52 285.447 452.407 283.407 453.804 281.954C455.202 280.474 457.164 279.552 459.314 279.552C461.464 279.552 463.426 280.474 464.824 281.926C466.249 283.407 467.109 285.419 467.109 287.654C467.109 289.889 466.249 291.956 464.851 293.409H464.85Z" fill="white"/>
<path fill-rule="evenodd" clip-rule="evenodd" d="M108.913 228.91C142.407 229.951 179.825 230.903 200.051 257.661C219.922 283.95 211.065 320.056 201.703 351.667C193.282 380.099 178.669 407.179 151.97 420.004C125.319 432.807 94.1731 429.33 67.7823 415.998C42.0281 402.987 26.0476 378.845 16.5195 351.576C4.95365 318.476 -10.6896 279.764 10.3971 251.769C31.7552 223.413 73.4658 227.809 108.913 228.91Z" fill="#F4EFF7"/>
<path d="M140.334 302.227H117.602C116.874 302.227 116.284 302.817 116.284 303.545C116.284 304.273 116.874 304.864 117.602 304.864H140.334C141.063 304.864 141.653 304.274 141.653 303.545C141.653 302.817 141.063 302.227 140.334 302.227ZM140.334 310.175H117.602C116.874 310.175 116.284 310.765 116.284 311.493C116.284 312.221 116.874 312.811 117.602 312.811H140.334C141.063 312.811 141.653 312.221 141.653 311.493C141.653 310.765 141.063 310.175 140.334 310.175ZM141.653 319.441C141.653 318.712 141.063 318.122 140.334 318.122H117.602C116.874 318.122 116.284 318.712 116.284 319.441C116.284 320.168 116.874 320.759 117.602 320.759H140.334C141.062 320.759 141.653 320.169 141.653 319.441ZM117.602 326.07C116.874 326.07 116.284 326.66 116.284 327.388C116.284 328.116 116.874 328.706 117.602 328.706H128.968C129.696 328.706 130.286 328.116 130.286 327.388C130.286 326.66 129.696 326.07 128.968 326.07H117.602Z" fill="#6F389F" stroke="#6F389F" stroke-width="0.4"/>
<path d="M148.296 283.502L134.705 269.911C133.497 268.702 131.842 268 130.092 268H85.3671C81.7701 268 78.8441 270.926 78.8441 274.523V288.019C78.8441 288.747 79.4341 289.337 80.1621 289.337C80.8901 289.337 81.4811 288.747 81.4811 288.019V274.523C81.4811 272.38 83.2241 270.637 85.3671 270.637H130.092C130.377 270.637 130.656 270.667 130.93 270.727V282.732C130.93 285.238 132.968 287.277 135.474 287.277H147.478C147.538 287.552 147.57 287.834 147.57 288.114V351.478C147.57 353.62 145.827 355.364 143.684 355.364H125.974C127.516 353.059 127.27 349.904 125.237 347.871L113.251 335.886C112.378 335.013 111.108 334.778 110.018 335.176L107.438 332.596C114.718 322.486 113.644 308.498 104.741 299.595C94.8591 289.714 78.6471 289.517 68.5691 299.595C58.5971 309.567 58.5971 325.794 68.5691 335.766C77.4651 344.662 91.4661 345.719 101.569 338.462L104.15 341.043C103.753 342.133 103.987 343.403 104.86 344.277L115.947 355.364H85.3671C83.2241 355.364 81.4811 353.62 81.4811 351.478V347.253C81.4811 346.525 80.8911 345.935 80.1621 345.935C79.4351 345.935 78.8441 346.525 78.8441 347.253V351.478C78.8441 355.074 81.7701 358 85.3671 358H143.684C147.281 358 150.207 355.074 150.207 351.478V288.114C150.207 286.404 149.527 284.733 148.297 283.502H148.296ZM70.4341 333.902C61.4891 324.957 61.4891 310.404 70.4341 301.459C79.4921 292.401 94.0311 292.613 102.877 301.459C111.113 309.695 111.88 322.781 104.661 331.899C103.553 333.298 102.274 334.577 100.873 335.686C91.8141 342.859 78.6961 342.164 70.4331 333.902H70.4341ZM103.645 336.799C104.391 336.136 105.102 335.426 105.779 334.665L107.949 336.836L105.811 338.975L103.641 336.805C103.641 336.802 103.643 336.801 103.645 336.799ZM118.71 354.398L106.725 342.412C106.553 342.241 106.553 341.962 106.725 341.789L106.742 341.772H106.743L110.764 337.75C110.936 337.578 111.216 337.578 111.387 337.75L123.373 349.735C124.658 351.021 124.658 353.112 123.373 354.398C122.084 355.686 119.999 355.686 118.71 354.398ZM133.566 282.732V272.501L145.706 284.641H135.474C134.422 284.641 133.566 283.784 133.566 282.732Z" fill="#6F389F" stroke="#6F389F" stroke-width="0.4"/>
<path d="M116.085 276.555H89.93C88.367 276.555 87.095 277.827 87.095 279.39V284.443C87.095 286.006 88.367 287.278 89.93 287.278H116.084C117.647 287.278 118.919 286.006 118.919 284.443V279.39C118.919 277.827 117.647 276.555 116.084 276.555H116.085ZM116.284 284.443C116.284 284.553 116.194 284.642 116.084 284.642H89.932C89.822 284.642 89.733 284.552 89.733 284.442V279.391C89.733 279.281 89.823 279.193 89.932 279.193H116.086C116.196 279.193 116.285 279.282 116.285 279.391V284.444L116.284 284.443ZM101.023 332.05C108.946 324.127 108.946 311.236 101.023 303.313C93.1 295.39 80.21 295.39 72.287 303.313C69.204 306.396 67.227 310.296 66.57 314.593C66.46 315.313 66.954 315.985 67.674 316.095C68.394 316.205 69.066 315.711 69.176 314.992C69.748 311.254 71.468 307.86 74.151 305.177C81.046 298.282 92.264 298.282 99.159 305.177C105.774 311.793 106.041 322.387 99.962 329.326C99.382 328.148 98.398 327.188 97.11 326.621C95.548 325.934 92.856 325.497 91.2 325.278L91.193 323.614C92.793 322.435 93.929 320.657 94.255 318.6C94.537 318.483 94.795 318.31 95.016 318.087C95.458 317.643 95.698 317.054 95.694 316.427C95.682 314.681 95.684 311.785 95.684 310.098C95.684 308.503 94.522 307.174 93 306.913C92.707 305.43 91.397 304.308 89.83 304.308H83.465C80.185 304.308 77.515 306.977 77.515 310.258V316.452C77.515 317.414 78.103 318.242 78.937 318.595C79.257 320.589 80.336 322.323 81.86 323.501L81.868 325.317C80.213 325.55 77.525 326.009 75.968 326.71C74.785 327.243 73.861 328.147 73.292 329.26C71.184 326.834 69.788 323.91 69.235 320.729C69.11 320.012 68.427 319.531 67.71 319.656C66.993 319.781 66.513 320.464 66.637 321.181C67.357 325.314 69.31 329.072 72.287 332.049C80.244 340.007 93.136 339.938 101.023 332.049V332.05ZM83.465 306.944H89.829C90.157 306.944 90.424 307.211 90.424 307.539C90.424 308.622 91.305 309.504 92.388 309.504H92.453C92.781 309.504 93.048 309.77 93.048 310.098V310.806L91.454 310.656C89.894 310.511 88.297 310.881 86.96 311.7C86.226 312.149 85.384 312.386 84.524 312.386H80.152V310.258C80.152 308.431 81.638 306.944 83.465 306.944ZM80.152 316.171V315.021H84.523C85.87 315.021 87.188 314.65 88.336 313.947C89.191 313.423 90.211 313.187 91.208 313.28L93.048 313.453C93.049 314.265 93.051 315.336 93.056 316.165C92.322 316.294 91.751 316.912 91.706 317.679C91.549 320.374 89.306 322.486 86.6 322.486C83.9 322.486 81.653 320.376 81.486 317.683C81.439 316.923 80.876 316.309 80.152 316.17V316.171ZM86.6 325.123C87.277 325.123 87.934 325.034 88.562 324.87L88.565 325.605C88.566 325.946 88.645 326.272 88.783 326.565C88.127 327.006 87.351 327.25 86.537 327.253H86.525C85.718 327.253 84.948 327.015 84.295 326.583C84.431 326.289 84.507 325.963 84.505 325.623L84.502 324.833C85.17 325.023 85.874 325.123 86.6 325.123ZM75.356 331.283C75.547 330.318 76.163 329.515 77.051 329.114C77.948 328.71 79.676 328.304 81.851 327.984C83.094 329.204 84.758 329.889 86.524 329.889H86.544C88.324 329.884 89.997 329.183 91.238 327.944C93.417 328.247 95.148 328.638 96.048 329.034C97.056 329.478 97.708 330.324 97.868 331.354C91.345 336.713 81.853 336.689 75.356 331.283Z" fill="#6F389F" stroke="#6F389F" stroke-width="0.4"/>
<g filter="url(#filter1_d)">
<path d="M208.742 367H176C169.925 367 165 371.925 165 378V417.348C165 423.423 169.925 428.348 176 428.348H208.742C214.817 428.348 219.742 423.423 219.742 417.348V378C219.742 371.925 214.817 367 208.742 367Z" fill="#6F389F"/>
</g>
<path d="M198.504 391.878L188.532 401.85L185.496 398.813C185.077 398.394 184.399 398.394 183.98 398.813C183.562 399.231 183.562 399.91 183.98 400.328L187.775 404.123C187.984 404.332 188.258 404.436 188.532 404.436C188.807 404.436 189.081 404.332 189.29 404.123L200.02 393.393C200.438 392.974 200.438 392.296 200.02 391.878C199.601 391.459 198.923 391.459 198.504 391.878Z" fill="white"/>
<path d="M192 383C183.729 383 177 389.729 177 398C177 406.271 183.729 413 192 413C200.271 413 207 406.271 207 398C207 389.729 200.271 383 192 383ZM192 410.857C184.911 410.857 179.143 405.089 179.143 398C179.143 390.911 184.911 385.143 192 385.143C199.089 385.143 204.857 390.911 204.857 398C204.857 405.089 199.089 410.857 192 410.857Z" fill="white"/>
<mask id="mask0" mask-type="alpha" maskUnits="userSpaceOnUse" x="136" y="0" width="327" height="263">
<rect x="136" width="327" height="263" fill="#C4C4C4"/>
</mask>
<g mask="url(#mask0)">
<path fill-rule="evenodd" clip-rule="evenodd" d="M411.798 235.073C365.389 274.045 302.981 252.614 253.891 224.566C198.788 193.083 132.306 150.245 152.812 87.1008C172.796 25.566 255.109 24.3067 319.324 23.0819C365.174 22.2073 406.154 41.6214 423.739 81.9331C445.686 132.245 457.037 197.082 411.798 235.073Z" fill="#F4EFF7"/>
<g filter="url(#filter2_d)">
<path d="M233 176H199C192.925 176 188 180.925 188 187V227C188 233.075 192.925 238 199 238H233C239.075 238 244 233.075 244 227V187C244 180.925 239.075 176 233 176Z" fill="#6F389F"/>
</g>
<path d="M215.956 198.525C215.786 198.355 215.556 198.261 215.314 198.261C215.074 198.261 214.842 198.356 214.672 198.525L211.04 202.122C210.99 202.172 210.948 202.229 210.911 202.288L210.883 202.341C210.858 202.389 210.837 202.437 210.82 202.489L210.806 202.523L209.549 207.119L199.73 216.845C198.756 217.811 198.755 219.381 199.73 220.347L202.685 223.274C203.157 223.742 203.785 223.999 204.452 224C205.12 224 205.747 223.742 206.22 223.275L216.038 213.548L220.676 212.303C220.689 212.299 220.7 212.292 220.712 212.288C220.763 212.272 220.812 212.251 220.86 212.227C220.878 212.217 220.896 212.209 220.914 212.197C220.974 212.161 221.03 212.12 221.08 212.071L221.082 212.069L224.712 208.473C225.066 208.121 225.066 207.551 224.712 207.2L215.955 198.525H215.956ZM215.33 211.874C215.177 211.914 215.037 211.995 214.925 212.106L204.937 222.002C204.807 222.129 204.637 222.2 204.454 222.2C204.271 222.2 204.099 222.13 203.97 222.002L201.015 219.075C200.749 218.811 200.749 218.381 201.015 218.118L211.004 208.222C211.116 208.112 211.197 207.972 211.238 207.822L212.148 204.493L218.688 210.973L215.33 211.873V211.874ZM220.44 210.162L212.967 202.759L215.314 200.433L222.786 207.836L220.439 210.162H220.44Z" fill="white"/>
<path opacity="0.295" d="M224.597 200.179L222.886 201.858L221.602 200.6L223.314 198.922L224.597 200.179Z" fill="white"/>
<path opacity="0.295" d="M226.309 198.506L225.025 197.248L226.737 195.57L228.02 196.828L226.309 198.506Z" fill="white"/>
<path opacity="0.295" d="M230.046 192.327L231.329 193.584L229.732 195.15L228.448 193.892L230.046 192.327Z" fill="white"/>
<path opacity="0.295" d="M229.06 204.348L228.59 202.63L230.928 202.016L231.398 203.734L229.06 204.348Z" fill="white"/>
<path opacity="0.295" d="M224.385 205.575L223.916 203.857L226.254 203.243L226.723 204.962L224.385 205.575Z" fill="white"/>
<path opacity="0.295" d="M218.437 196.841L220.19 197.302L219.564 199.593L217.81 199.132L218.437 196.841Z" fill="white"/>
<path opacity="0.295" d="M219.689 192.259L221.443 192.719L220.817 195.01L219.063 194.549L219.689 192.259Z" fill="white"/>
<path opacity="0.295" d="M204.969 219.422L203.686 218.164L206.413 215.492L207.697 216.749L204.969 219.422Z" fill="white"/>
<path d="M412.845 32.598C412.845 32.586 412.846 32.571 412.834 32.56C412.822 32.547 412.807 32.535 412.797 32.52C408.607 25.39 400.871 21 392.5 21C384.129 21 376.393 25.39 372.204 32.52C372.194 32.535 372.179 32.543 372.17 32.56C372.162 32.576 372.162 32.586 372.155 32.598C367.948 39.72 367.948 48.513 372.155 55.635C372.155 55.647 372.156 55.661 372.17 55.674C372.183 55.686 372.194 55.698 372.204 55.712C373.654 58.168 375.55 60.341 377.798 62.123L383.204 74.533H382.606C381.372 74.529 380.219 75.13 379.53 76.135C378.84 77.14 378.704 78.417 379.168 79.541C377.554 79.969 376.43 81.406 376.422 83.05V84.267C376.422 86.282 378.083 87.917 380.131 87.917H381.369C381.791 87.913 382.209 87.837 382.606 87.693V90.396C382.608 92.386 384.247 93.997 386.269 94H398.732C400.754 93.997 402.393 92.385 402.396 90.396V87.693C402.792 87.837 403.21 87.913 403.632 87.917H404.869C406.918 87.917 408.58 86.282 408.58 84.267V83.05C408.573 81.406 407.448 79.969 405.834 79.54C406.299 78.417 406.163 77.14 405.472 76.135C404.782 75.13 403.629 74.529 402.396 74.533H401.797L407.205 62.123C409.444 60.347 411.334 58.183 412.784 55.739C412.801 55.717 412.822 55.699 412.836 55.674C412.851 55.649 412.839 55.647 412.845 55.634C417.052 48.514 417.052 39.72 412.845 32.598ZM411.245 53.437C410.402 53.042 409.535 52.699 408.649 52.408C410.209 46.988 410.209 41.246 408.649 35.825C409.535 35.535 410.402 35.191 411.246 34.797C414.287 40.65 414.287 47.583 411.246 53.437H411.245ZM377.658 44.117C377.655 41.544 378.01 38.982 378.713 36.504C380.518 36.949 382.348 37.287 384.193 37.518C383.725 41.905 383.725 46.328 384.193 50.716C382.348 50.946 380.518 51.284 378.713 51.729C378.01 49.251 377.655 46.689 377.658 44.117ZM405.512 34.183C403.859 34.581 402.184 34.887 400.496 35.099C400.06 31.421 398.967 27.849 397.267 24.547C401.143 26.631 404.085 30.069 405.512 34.183ZM398.062 35.363C396.27 35.517 394.402 35.606 392.497 35.606C390.591 35.606 388.728 35.523 386.931 35.363C388.081 27.813 390.574 23.433 392.502 23.433C394.428 23.433 396.919 27.813 398.066 35.363H398.062ZM398.685 44.117C398.687 46.232 398.582 48.346 398.366 50.451C396.482 50.286 394.515 50.2 392.5 50.2C390.486 50.2 388.519 50.286 386.635 50.45C386.21 46.238 386.21 41.995 386.635 37.783C388.519 37.947 390.485 38.033 392.5 38.033C394.515 38.033 396.481 37.947 398.366 37.783C398.581 39.887 398.686 42.001 398.685 44.117ZM392.5 64.8C390.573 64.8 388.08 60.42 386.935 52.877C388.726 52.722 390.593 52.633 392.5 52.633C394.408 52.633 396.27 52.716 398.066 52.877C396.92 60.42 394.427 64.8 392.5 64.8ZM387.735 24.547C386.035 27.849 384.941 31.422 384.505 35.099C382.818 34.887 381.142 34.581 379.489 34.183C380.916 30.069 383.859 26.631 387.735 24.547ZM384.505 53.138C384.941 56.815 386.035 60.388 387.735 63.69C383.858 61.606 380.915 58.168 379.489 54.054C381.142 53.655 382.817 53.348 384.506 53.134V53.138H384.505ZM392.5 67.233C393.576 67.224 394.65 67.143 395.716 66.99L395.073 74.533H389.928L389.284 66.99C390.35 67.144 391.424 67.225 392.5 67.233ZM397.267 63.687C398.967 60.384 400.06 56.811 400.496 53.135C402.184 53.347 403.859 53.653 405.512 54.051C404.085 58.164 401.143 61.602 397.267 63.687ZM400.808 50.716C401.041 48.524 401.159 46.321 401.159 44.116C401.159 41.913 401.041 39.71 400.808 37.518C402.654 37.288 404.483 36.948 406.288 36.504C407.694 41.484 407.694 46.748 406.288 51.729C404.483 51.284 402.654 50.946 400.808 50.716ZM410.006 32.68C409.31 32.994 408.596 33.271 407.869 33.508C406.936 31.058 405.597 28.779 403.903 26.762C406.326 28.305 408.403 30.319 410.006 32.68ZM381.099 26.763C379.406 28.781 378.065 31.061 377.131 33.509C376.404 33.272 375.691 32.996 374.995 32.681C376.599 30.321 378.676 28.307 381.099 26.763ZM373.754 34.793C374.599 35.187 375.466 35.53 376.352 35.822C374.792 41.242 374.792 46.984 376.352 52.405C375.466 52.695 374.599 53.038 373.754 53.432C370.714 47.58 370.714 40.646 373.754 34.793ZM374.991 55.548C375.688 55.234 376.401 54.958 377.127 54.72C378.062 57.17 379.402 59.449 381.094 61.466C378.674 59.924 376.598 57.912 374.995 55.553L374.991 55.548ZM381.547 64.552C383.2 65.407 384.954 66.064 386.767 66.508L387.446 74.538H385.896L381.547 64.552ZM389.515 81.833L385.079 86.196V81.833H389.515ZM381.369 85.483H380.132C379.449 85.483 378.895 84.939 378.895 84.267V83.05C378.895 82.378 379.449 81.833 380.132 81.833H382.606V84.267C382.606 84.939 382.052 85.483 381.369 85.483ZM385.079 90.396V89.637L393.012 81.833H399.922V82.546L390.752 91.566H386.269C385.613 91.566 385.08 91.042 385.079 90.396ZM398.732 91.566H394.249L399.922 85.987V90.397C399.922 91.042 399.388 91.565 398.731 91.567L398.732 91.566ZM406.106 84.266C406.106 84.939 405.552 85.483 404.869 85.483H403.632C402.949 85.483 402.396 84.939 402.396 84.267V81.833H404.869C405.552 81.833 406.106 82.378 406.106 83.05V84.267V84.266ZM403.632 78.183C403.632 78.855 403.078 79.4 402.396 79.4H382.605C381.923 79.4 381.369 78.855 381.369 78.183C381.369 77.511 381.923 76.967 382.606 76.967H402.396C403.078 76.967 403.632 77.511 403.632 78.183ZM399.106 74.533H397.554L398.234 66.503C400.048 66.059 401.801 65.403 403.455 64.547L399.106 74.533ZM403.903 61.47C405.597 59.453 406.936 57.173 407.869 54.723C408.596 54.961 409.31 55.238 410.006 55.552C408.403 57.912 406.326 59.927 403.903 61.47Z" fill="#6F389F"/>
<path d="M255.329 70.3097C254.799 69.7767 253.937 69.7767 253.405 70.3097L251.853 71.8697L250.301 70.3097C249.769 69.7767 248.908 69.7767 248.377 70.3097C247.845 70.8447 247.845 71.7097 248.377 72.2437L249.929 73.8027L248.377 75.3627C247.845 75.8957 247.845 76.7627 248.377 77.2957C248.643 77.5627 248.991 77.6957 249.339 77.6957C249.687 77.6957 250.036 77.5627 250.301 77.2957L251.853 75.7357L253.405 77.2957C253.671 77.5627 254.019 77.6957 254.368 77.6957C254.716 77.6957 255.064 77.5627 255.329 77.2957C255.861 76.7617 255.861 75.8957 255.329 75.3617L253.777 73.8027L255.329 72.2427C255.861 71.7097 255.861 70.8447 255.329 70.3107V70.3097Z" fill="#6F389F"/>
<path opacity="0.202" d="M419.1 60.9886C418.443 60.6226 417.614 60.8606 417.25 61.5216L416.185 63.4496L414.265 62.3806C413.608 62.0146 412.78 62.2536 412.415 62.9136C412.052 63.5746 412.289 64.4066 412.946 64.7726L414.866 65.8426L413.802 67.7706C413.438 68.4306 413.675 69.2626 414.332 69.6286C414.661 69.8116 415.032 69.8436 415.367 69.7476C415.701 69.6506 416.001 69.4256 416.182 69.0956L417.246 67.1676L419.166 68.2366C419.494 68.4196 419.866 68.4506 420.201 68.3546C420.536 68.2586 420.834 68.0336 421.016 67.7036C421.38 67.0426 421.143 66.2106 420.486 65.8456L418.566 64.7756L419.629 62.8466C419.994 62.1866 419.757 61.3546 419.099 60.9886H419.1Z" fill="#6F389F"/>
<path d="M240.228 88.3147C237.897 88.3147 236 90.0597 236 92.2077C236 94.3537 237.897 96.0997 240.228 96.0997C242.559 96.0997 244.455 94.3527 244.455 92.2067C244.455 90.0597 242.559 88.3137 240.228 88.3137V88.3147ZM240.228 93.5347C239.433 93.5347 238.786 92.9397 238.786 92.2077C238.786 91.4747 239.433 90.8807 240.228 90.8807C241.023 90.8807 241.668 91.4747 241.668 92.2077C241.668 92.9397 241.022 93.5347 240.228 93.5347Z" fill="#6F389F"/>
<path d="M359.12 181.753C358.051 181.753 357.182 182.626 357.182 183.699C357.182 184.773 358.052 185.646 359.12 185.646C360.188 185.646 361.057 184.773 361.057 183.699C361.057 182.626 360.188 181.753 359.12 181.753Z" fill="#6F389F" fill-opacity="0.2"/>
<path d="M337.974 84H259.774C254.38 84.006 250.007 88.327 250 93.66V155.48C250 159.885 253.016 163.733 257.333 164.833L258.311 161.093C255.72 160.433 253.909 158.123 253.91 155.479V93.66C253.91 90.46 256.536 87.865 259.775 87.865H337.974C341.213 87.865 343.838 90.459 343.838 93.66V95.592H347.748V93.66C347.742 88.327 343.37 84.006 337.974 84Z" fill="#6F389F"/>
<path opacity="0.199" d="M259.142 91.7319H263.361V95.9489H259.142V91.7319ZM266.877 91.7319H271.096V95.9489H266.877V91.7319ZM274.613 91.7319H278.832V95.9489H274.613V91.7319Z" fill="#6F389F"/>
<path d="M349.225 99.4641H271.026C265.631 99.4701 261.258 103.812 261.252 109.17V171.293C261.258 176.651 265.631 180.993 271.026 181H296.441V177.117H271.026C267.787 177.117 265.162 174.51 265.162 171.293V109.17C265.162 105.954 267.787 103.346 271.026 103.346H349.226C352.464 103.346 355.09 105.954 355.09 109.17V171.293C355.09 172.712 354.569 174.081 353.624 175.145L356.556 177.713C358.132 175.941 359 173.658 359 171.293V109.17C358.994 103.812 354.62 99.4701 349.225 99.4641Z" fill="#6F389F"/>
<path opacity="0.199" d="M270.395 107.196H274.614V111.413H270.395V107.196ZM278.833 107.196H283.052V111.413H278.833V107.196ZM286.569 107.196H290.788V111.413H286.569V107.196Z" fill="#6F389F"/>
<path d="M305.564 144.358H308.583V141.552H306.639C307.02 140.184 307.216 138.768 307.219 137.343C307.219 136.568 306.609 135.94 305.856 135.94H292.219C291.466 135.94 290.856 136.568 290.856 137.343V151.373C290.856 152.148 291.466 152.776 292.219 152.776C297.851 152.77 303.004 149.519 305.564 144.358ZM293.583 149.891V138.746H304.417C304.311 139.704 304.097 140.646 303.78 141.552H297.674V144.358H302.407C300.4 147.449 297.172 149.473 293.583 149.891Z" fill="#6F389F"/>
<path d="M299.129 123.854C295.843 118.88 289.897 116.265 283.944 117.181C277.99 118.096 273.136 122.368 271.544 128.093C269.952 133.82 271.92 139.931 276.57 143.707V147.164H279.353V145.5C281.506 146.592 283.891 147.163 286.313 147.164C287.081 147.164 287.704 146.55 287.704 145.793V133.453H300.231C300.999 133.453 301.623 132.839 301.623 132.081C301.62 130.203 301.26 128.343 300.559 126.597C300.092 125.433 299.615 124.519 299.129 123.854ZM276.569 139.811C272.872 135.32 272.858 128.894 276.536 124.388L284.922 132.649V144.345C282.928 144.125 281.017 143.432 279.354 142.327C278.291 141.607 277.364 140.768 276.571 139.811H276.569ZM298.762 130.711H286.89L278.503 122.448C283.683 118.346 291.217 118.964 295.638 123.853C296.458 124.823 297.088 125.737 297.524 126.596C298.179 127.885 298.598 129.277 298.762 130.709V130.711ZM276.673 149.97H279.509V152.776H276.673V149.97ZM311.418 141.552H314.255V144.358H311.418V141.552ZM271 161.194H295.109V164H271V161.194ZM317.8 117H349V119.806H317.8V117ZM317.8 124.015H349V126.821H317.8V124.015ZM317.8 131.03H349V133.836H317.8V131.03ZM317.8 138.045H344.036V140.851H317.8V138.045ZM317.8 145.06H324.891V147.866H317.8V145.06ZM276.673 154.881H279.509V157.687H276.673V154.881ZM282.345 154.881H295.109V157.687H282.345V154.881Z" fill="#6F389F"/>
<path d="M345.882 165.998H320.341L311.55 160.249C311.08 159.944 310.479 159.917 309.983 160.179C309.487 160.439 309.177 160.946 309.176 161.497V165.997H306.118C302.739 165.998 300 168.685 300 171.999V187C300 190.313 302.74 193 306.118 193H345.882C349.261 193 352 190.313 352 187V171.997C352 168.683 349.26 165.997 345.882 165.997V165.998ZM348.942 186.999C348.942 188.656 347.572 189.999 345.882 189.999H306.118C304.428 189.999 303.058 188.656 303.058 186.999V172C303.058 170.342 304.428 168.999 306.118 168.999H310.706C311.55 168.999 312.236 168.327 312.236 167.499V164.3L319.033 168.746C319.285 168.91 319.581 168.997 319.883 168.998H345.883C347.572 168.998 348.941 170.341 348.941 171.998V187L348.942 186.999Z" fill="#6F389F"/>
<path opacity="0.196" d="M311.36 172.638L308.285 175.751C307.685 176.359 307.685 177.343 308.285 177.951L311.36 181.064L313.534 178.864L311.546 176.851L313.534 174.839L311.36 172.639V172.638ZM322.12 181.064L325.194 177.951C325.794 177.343 325.794 176.359 325.194 175.751L322.119 172.638L319.945 174.838L321.933 176.851L319.945 178.863L322.119 181.063L322.12 181.064ZM313.534 180.829L316.459 171.936L319.233 172.874L316.307 181.766L313.534 180.829Z" fill="#6F389F"/>
<path opacity="0.201" d="M328.493 174.745H331.342V177.553H328.493V174.745ZM307.836 183.872H310.685V186.681H307.836V183.872ZM314.247 183.872H344.164V186.681H314.247V183.872ZM334.904 174.745H337.753V177.553H334.904V174.745ZM341.315 174.745H344.164V177.553H341.315V174.745Z" fill="#6F389F"/>
</g>
<defs>
<filter id="filter0_d" x="421" y="254" width="78.742" height="85.348" filterUnits="userSpaceOnUse" color-interpolation-filters="sRGB">
<feFlood flood-opacity="0" result="BackgroundImageFix"/>
<feColorMatrix in="SourceAlpha" type="matrix" values="0 0 0 0 0 0 0 0 0 0 0 0 0 0 0 0 0 0 127 0"/>
<feOffset dx="2" dy="4"/>
<feGaussianBlur stdDeviation="6"/>
<feColorMatrix type="matrix" values="0 0 0 0 0.435294 0 0 0 0 0.219608 0 0 0 0 0.623529 0 0 0 0.203098 0"/>
<feBlend mode="normal" in2="BackgroundImageFix" result="effect1_dropShadow"/>
<feBlend mode="normal" in="SourceGraphic" in2="effect1_dropShadow" result="shape"/>
</filter>
<filter id="filter1_d" x="155" y="359" width="78.742" height="85.348" filterUnits="userSpaceOnUse" color-interpolation-filters="sRGB">
<feFlood flood-opacity="0" result="BackgroundImageFix"/>
<feColorMatrix in="SourceAlpha" type="matrix" values="0 0 0 0 0 0 0 0 0 0 0 0 0 0 0 0 0 0 127 0"/>
<feOffset dx="2" dy="4"/>
<feGaussianBlur stdDeviation="6"/>
<feColorMatrix type="matrix" values="0 0 0 0 0.435294 0 0 0 0 0.219608 0 0 0 0 0.623529 0 0 0 0.203098 0"/>
<feBlend mode="normal" in2="BackgroundImageFix" result="effect1_dropShadow"/>
<feBlend mode="normal" in="SourceGraphic" in2="effect1_dropShadow" result="shape"/>
</filter>
<filter id="filter2_d" x="178" y="168" width="80" height="86" filterUnits="userSpaceOnUse" color-interpolation-filters="sRGB">
<feFlood flood-opacity="0" result="BackgroundImageFix"/>
<feColorMatrix in="SourceAlpha" type="matrix" values="0 0 0 0 0 0 0 0 0 0 0 0 0 0 0 0 0 0 127 0"/>
<feOffset dx="2" dy="4"/>
<feGaussianBlur stdDeviation="6"/>
<feColorMatrix type="matrix" values="0 0 0 0 0.435294 0 0 0 0 0.219608 0 0 0 0 0.623529 0 0 0 0.203098 0"/>
<feBlend mode="normal" in2="BackgroundImageFix" result="effect1_dropShadow"/>
<feBlend mode="normal" in="SourceGraphic" in2="effect1_dropShadow" result="shape"/>
</filter>
</defs>
</svg>
